<?xml version="1.0" standalone="no"?>
<!DOCTYPE svg PUBLIC "-//W3C//DTD SVG 1.1//EN" "http://www.w3.org/Graphics/SVG/1.1/DTD/svg11.dtd" >
<svg xmlns="http://www.w3.org/2000/svg" xmlns:xlink="http://www.w3.org/1999/xlink" version="1.1">
<metadata>
Created by FontForge 20170731 at Fri Nov  8 14:52:46 2019
 By Aleksey,,,
</metadata>
<defs>
<font id="TheSans-Bold" horiz-adv-x="550" >
  <font-face 
    font-family="TheSans"
    font-weight="700"
    font-stretch="normal"
    units-per-em="1000"
    panose-1="2 11 8 3 4 3 2 2 2 3"
    ascent="750"
    descent="-250"
    x-height="497"
    cap-height="675"
    bbox="-152 -320 2985 980"
    underline-thickness="41"
    underline-position="-311"
    unicode-range="U+0020-FEF4"
  />
<missing-glyph 
d="M300 150h-150v250h50v-200h100v-50zM500 50h-450v450h450v-450zM350 350h-100v50h150v-250h-50v100h-100v50h100v50zM100 100h350v350h-350v-350z" />
    <glyph glyph-name="lam_alef_madda.isol" unicode="&#xfedf;&#xfe82;" horiz-adv-x="597" 
d="M162 712l146 -533h-134l-143 515zM513 0h-441v104h309v601h132v-705zM25 767l-46 63l105 78q42 -39 94 -39q54 0 104 41v-96q-47 -38 -110 -38q-54 0 -89 32z" />
    <glyph glyph-name="lam_alef_madda.fina" unicode="&#xfee0;&#xfe82;" horiz-adv-x="597" 
d="M72 0v104h309v601h132v-601h100v-104h-541zM162 712l146 -533h-134l-143 515zM25 767l-46 63l105 78q42 -39 94 -39q54 0 104 41v-96q-47 -38 -110 -38q-54 0 -89 32z" />
    <glyph glyph-name="lam_alef_hamza_above.isol" unicode="&#xfedf;&#xfe84;" horiz-adv-x="597" 
d="M162 695l146 -516h-134l-143 498zM513 0h-441v104h309v584h132v-688zM-20 750v69q42 0 59 -4q-18 10 -18 39q0 47 33.5 76.5t107.5 29.5q42 0 59 -5l-12 -69q-25 5 -49 5q-49 0 -49 -34q0 -38 70 -38h57v-69h-258z" />
    <glyph glyph-name="lam_alef_hamza_above.fina" unicode="&#xfee0;&#xfe84;" horiz-adv-x="597" 
d="M613 0h-541v104h309v584h132v-584h100v-104zM162 695l146 -516h-134l-143 498zM-20 750v69q42 0 59 -4q-18 10 -18 39q0 47 33.5 76.5t107.5 29.5q42 0 59 -5l-12 -69q-25 5 -49 5q-49 0 -49 -34q0 -38 70 -38h57v-69h-258z" />
    <glyph glyph-name="lam_alef_hamza_below.isol" unicode="&#xfedf;&#xfe88;" horiz-adv-x="597" 
d="M162 712l146 -533h-134l-143 515zM513 0h-441v104h309v601h132v-705zM82 -268v73q32 0 49 -4q-13 11 -13 33q0 44 35 73.5t104 29.5q41 0 59 -5l-12 -72q-35 5 -48 5q-44 0 -44 -29q0 -31 63 -31h59v-73h-252z" />
    <glyph glyph-name="lam_alef_hamza_below.fina" unicode="&#xfee0;&#xfe88;" horiz-adv-x="597" 
d="M72 0v104h309v601h132v-601h100v-104h-541zM162 712l146 -533h-134l-143 515zM82 -268v73q32 0 49 -4q-13 11 -13 33q0 44 35 73.5t104 29.5q41 0 59 -5l-12 -72q-35 5 -48 5q-44 0 -44 -29q0 -31 63 -31h59v-73h-252z" />
    <glyph glyph-name="lam_alef.isol" unicode="&#xfedf;&#xfe8e;" horiz-adv-x="597" 
d="M162 712l146 -533h-134l-143 515zM513 0h-441v104h309v601h132v-705z" />
    <glyph glyph-name="lam_alef.fina" unicode="&#xfee0;&#xfe8e;" horiz-adv-x="597" 
d="M613 0h-541v104h309v601h132v-601h100v-104zM162 712l146 -533h-134l-143 515z" />
    <glyph glyph-name="alef_wasla.isol" unicode="&#x671;" horiz-adv-x="302" arabic-form="isolated" 
d="M110 819h103v13q0 61 -35 61q-24 0 -42 -21t-26 -53zM-13 750v69h49q46 141 156 141q100 0 100 -126v-84h-305zM85 0v688h132v-688h-132z" />
    <glyph glyph-name="alef_wasla.fina" unicode="&#x671;" horiz-adv-x="302" arabic-form="final" 
d="M85 0v688h132v-584h100v-104h-232zM-13 750v69h49q46 141 156 141q100 0 100 -126v-84h-305zM110 819h103v13q0 61 -35 61q-24 0 -42 -21t-26 -53z" />
    <glyph glyph-name="peh.isol" unicode="&#x67e;" horiz-adv-x="773" arabic-form="isolated" 
d="M699 0h-282q-196 0 -281.5 76t-85.5 220q0 86 26 157l141 23q-34 -74 -34 -165q0 -109 55.5 -158t192.5 -49h136v366h132v-470zM415 -291q-25 0 -41.5 16.5t-16.5 41.5q0 24 16.5 41t41.5 17q24 0 41 -17t17 -41q0 -25 -17 -41.5t-41 -16.5zM495 -171q-25 0 -42.5 18
t-17.5 44t17.5 43.5t42.5 17.5t43 -18t18 -43q0 -26 -18 -44t-43 -18zM334 -171q-26 0 -43.5 18t-17.5 44q0 25 17.5 43t43.5 18t43.5 -18t17.5 -43q0 -26 -18 -44t-43 -18z" />
    <glyph glyph-name="peh.fina" unicode="&#x67e;" horiz-adv-x="782" arabic-form="final" 
d="M798 0h-381q-196 0 -281.5 76t-85.5 220q0 86 26 157l141 23q-34 -74 -34 -165q0 -109 55.5 -158t192.5 -49h136v366h132v-366h99v-104zM334 -171q-26 0 -43.5 18t-17.5 44q0 25 17.5 43t43.5 18t43.5 -18t17.5 -43q0 -26 -18 -44t-43 -18zM495 -171q-25 0 -42.5 18
t-17.5 44t17.5 43.5t42.5 17.5t43 -18t18 -43q0 -26 -18 -44t-43 -18zM415 -291q-25 0 -41.5 16.5t-16.5 41.5q0 24 16.5 41t41.5 17q24 0 41 -17t17 -41q0 -25 -17 -41.5t-41 -16.5z" />
    <glyph glyph-name="peh.init" unicode="&#x67e;" horiz-adv-x="394" arabic-form="initial" 
d="M0 0v104h188v366h132v-470h-320zM179 -291q-25 0 -41.5 16.5t-16.5 41.5q0 24 16.5 41t41.5 17q24 0 41 -17t17 -41q0 -25 -17 -41.5t-41 -16.5zM259 -171q-25 0 -42.5 18t-17.5 44t17.5 43.5t42.5 17.5t43 -18t18 -43q0 -26 -18 -44t-43 -18zM98 -171q-26 0 -43.5 18
t-17.5 44q0 25 17.5 43t43.5 18t43.5 -18t17.5 -43q0 -26 -18 -44t-43 -18z" />
    <glyph glyph-name="peh.medi" unicode="&#x67e;" horiz-adv-x="403" arabic-form="medial" 
d="M0 0v104h188v366h132v-366h99v-104h-419zM98 -171q-26 0 -43.5 18t-17.5 44q0 25 17.5 43t43.5 18t43.5 -18t17.5 -43q0 -26 -18 -44t-43 -18zM259 -171q-25 0 -42.5 18t-17.5 44t17.5 43.5t42.5 17.5t43 -18t18 -43q0 -26 -18 -44t-43 -18zM179 -291q-25 0 -41.5 16.5
t-16.5 41.5q0 24 16.5 41t41.5 17q24 0 41 -17t17 -41q0 -25 -17 -41.5t-41 -16.5z" />
    <glyph glyph-name="tteh.isol" unicode="&#x679;" horiz-adv-x="773" arabic-form="isolated" 
d="M699 0h-282q-196 0 -281.5 76t-85.5 220q0 86 26 157l141 23q-34 -74 -34 -165q0 -109 55.5 -158t192.5 -49h136v366h132v-470zM492 644q0 48 -38 48q-32 0 -61.5 -32t-39.5 -75h67q72 0 72 59zM354 815v-78q0 -21 -7 -58h1q19 31 50.5 50t67.5 19q100 0 100 -97
q0 -56 -40.5 -89t-113.5 -33h-129v286h71z" />
    <glyph glyph-name="uniFB67" unicode="&#x679;" horiz-adv-x="782" arabic-form="final" 
d="M798 0h-381q-196 0 -281.5 76t-85.5 220q0 86 26 157l141 23q-34 -74 -34 -165q0 -109 55.5 -158t192.5 -49h136v366h132v-366h99v-104zM354 815v-78q0 -21 -7 -58h1q19 31 50.5 50t67.5 19q100 0 100 -97q0 -56 -40.5 -89t-113.5 -33h-129v286h71zM492 644q0 48 -38 48
q-32 0 -61.5 -32t-39.5 -75h67q72 0 72 59z" />
    <glyph glyph-name="uniFB68" unicode="&#x679;" horiz-adv-x="394" arabic-form="initial" 
d="M0 0v104h188v366h132v-470h-320zM285 674q0 48 -38 48q-32 0 -61.5 -32t-39.5 -75h67q72 0 72 59zM147 845v-78q0 -21 -7 -58h1q19 31 50.5 50t67.5 19q100 0 100 -97q0 -56 -40.5 -89t-113.5 -33h-129v286h71z" />
    <glyph glyph-name="uniFB69" unicode="&#x679;" horiz-adv-x="403" arabic-form="medial" 
d="M0 0v104h188v366h132v-366h99v-104h-419zM147 845v-78q0 -21 -7 -58h1q19 31 50.5 50t67.5 19q100 0 100 -97q0 -56 -40.5 -89t-113.5 -33h-129v286h71zM285 674q0 48 -38 48q-32 0 -61.5 -32t-39.5 -75h67q72 0 72 59z" />
    <glyph glyph-name="veh.isol" unicode="&#x6a4;" horiz-adv-x="926" arabic-form="isolated" 
d="M643 688q-25 0 -43 18.5t-18 44.5t18 44.5t43 18.5q26 0 44 -18.5t18 -44.5t-18 -44.5t-44 -18.5zM727 546q-28 0 -47.5 19.5t-19.5 48.5q0 28 19.5 48t47.5 20t47 -19.5t19 -48.5q0 -28 -19 -48t-47 -20zM561 546q-28 0 -47 19.5t-19 48.5q0 28 19 48t47 20t47 -19.5
t19 -48.5q0 -28 -19 -48t-47 -20zM885 250q0 -110 -71.5 -180t-183.5 -70h-213q-196 0 -281.5 76t-85.5 220q0 86 26 157l141 23q-34 -74 -34 -165q0 -107 53.5 -157t172.5 -50h33q-44 41 -44 130q0 109 70.5 179t183.5 70q110 0 171.5 -58.5t61.5 -174.5zM752 243
q0 136 -109 136q-47 0 -80 -34t-33 -100q0 -141 111 -141q49 0 80 36t31 103z" />
    <glyph glyph-name="veh.fina" unicode="&#x6a4;" horiz-adv-x="941" arabic-form="final" 
d="M956 104v-104h-539q-196 0 -281.5 76t-85.5 220q0 86 26 157l141 23q-34 -74 -34 -165q0 -107 53.5 -157t172.5 -50h33q-44 41 -44 130q0 109 70.5 179t183.5 70q110 0 171.5 -58.5t61.5 -174.5q0 -45 -15 -86.5t-43 -64.5q42 5 76 5h53zM752 243q0 136 -109 136
q-47 0 -80 -34t-33 -100q0 -141 111 -141q49 0 80 36t31 103zM643 688q-25 0 -43 18.5t-18 44.5t18 44.5t43 18.5q26 0 44 -18.5t18 -44.5t-18 -44.5t-44 -18.5zM727 546q-28 0 -47.5 19.5t-19.5 48.5q0 28 19.5 48t47.5 20t47 -19.5t19 -48.5q0 -28 -19 -48t-47 -20z
M561 546q-28 0 -47 19.5t-19 48.5q0 28 19 48t47 20t47 -19.5t19 -48.5q0 -28 -19 -48t-47 -20z" />
    <glyph glyph-name="veh.init" unicode="&#x6a4;" horiz-adv-x="612" arabic-form="initial" 
d="M304 688q-25 0 -43 18.5t-18 44.5t18 44.5t43 18.5q26 0 44 -18.5t18 -44.5t-18 -44.5t-44 -18.5zM388 546q-28 0 -47.5 19.5t-19.5 48.5q0 28 19.5 48t47.5 20t47 -19.5t19 -48.5q0 -28 -19 -48t-47 -20zM222 546q-28 0 -47 19.5t-19 48.5q0 28 19 48t47 20t47 -19.5
t19 -48.5q0 -28 -19 -48t-47 -20zM543 0h-543v104h57q16 0 30 -2t20 -4l6 -1q-56 41 -56 143t68 172.5t192 70.5q114 0 170 -60.5t56 -169.5v-253zM414 104v133q0 142 -107 142q-55 0 -87 -37.5t-32 -97.5q0 -71 36.5 -105.5t113.5 -34.5h76z" />
    <glyph glyph-name="veh.medi" unicode="&#x6a4;" horiz-adv-x="600" arabic-form="medial" 
d="M302 688q-25 0 -43 18.5t-18 44.5t18 44.5t43 18.5q26 0 44 -18.5t18 -44.5t-18 -44.5t-44 -18.5zM386 546q-28 0 -47.5 19.5t-19.5 48.5q0 28 19.5 48t47.5 20t47 -19.5t19 -48.5q0 -28 -19 -48t-47 -20zM220 546q-28 0 -47 19.5t-19 48.5q0 28 19 48t47 20t47 -19.5
t19 -48.5q0 -28 -19 -48t-47 -20zM0 0v104h42l61 -5q-46 48 -46 135q0 109 70.5 179t183.5 70q110 0 171.5 -58.5t61.5 -174.5q0 -45 -15 -86.5t-43 -64.5q42 5 76 5h53v-104h-615zM300 104q49 0 80 36t31 103q0 136 -109 136q-47 0 -80 -34t-33 -100q0 -141 111 -141z" />
    <glyph glyph-name="tcheh.isol" unicode="&#x686;" horiz-adv-x="617" arabic-form="isolated" 
d="M545 0h-209q-104 0 -146.5 -30t-42.5 -82q0 -38 27 -64.5t78 -35.5l-29 -106q-97 16 -152 66.5t-55 131.5q0 102 80.5 163t243.5 61h85q5 30 5 76q0 98 -45 145t-150 47q-57 0 -115 -8v103q70 9 128 9q165 0 239 -72t74 -219q0 -89 -16 -185zM409 -290q-25 0 -41.5 16.5
t-16.5 41.5q0 24 16.5 41t41.5 17q24 0 41 -17t17 -41q0 -25 -17 -41.5t-41 -16.5zM489 -170q-25 0 -42.5 18t-17.5 44t17.5 43.5t42.5 17.5t43 -17.5t18 -43.5t-18 -44t-43 -18zM328 -170q-26 0 -43.5 18t-17.5 44t17.5 43.5t43.5 17.5t43.5 -17.5t17.5 -43.5t-18 -44
t-43 -18z" />
    <glyph glyph-name="tcheh.fina" unicode="&#x686;" horiz-adv-x="621" arabic-form="final" 
d="M636 0h-300q-104 0 -146.5 -30t-42.5 -82q0 -38 27 -64.5t78 -35.5l-29 -106q-97 16 -152 66.5t-55 131.5q0 102 80.5 163t243.5 61h85q5 30 5 76q0 98 -45 145t-150 47q-57 0 -115 -8v103q70 9 128 9q165 0 239 -72t74 -219q0 -36 -3 -81h78v-104zM328 -170
q-26 0 -43.5 18t-17.5 44t17.5 43.5t43.5 17.5t43.5 -17.5t17.5 -43.5t-18 -44t-43 -18zM489 -170q-25 0 -42.5 18t-17.5 44t17.5 43.5t42.5 17.5t43 -17.5t18 -43.5t-18 -44t-43 -18zM409 -290q-25 0 -41.5 16.5t-16.5 41.5q0 24 16.5 41t41.5 17q24 0 41 -17t17 -41
q0 -25 -17 -41.5t-41 -16.5z" />
    <glyph glyph-name="tcheh.init" unicode="&#x686;" horiz-adv-x="578" arabic-form="initial" 
d="M0 0v104h387q5 40 5 76q0 98 -45.5 145t-150.5 47q-56 0 -115 -8v103q70 9 128 9q165 0 239.5 -72t74.5 -219q0 -83 -17 -185h-506zM238 -290q-25 0 -41.5 16.5t-16.5 41.5q0 24 16.5 41t41.5 17q24 0 41 -17t17 -41q0 -25 -17 -41.5t-41 -16.5zM318 -170q-25 0 -42.5 18
t-17.5 44t17.5 43.5t42.5 17.5q26 0 43.5 -17.5t17.5 -43.5t-18 -44t-43 -18zM157 -170q-26 0 -43.5 18t-17.5 44t18 43.5t43 17.5t43 -17.5t18 -43.5t-18 -44t-43 -18z" />
    <glyph glyph-name="tcheh.medi" unicode="&#x686;" horiz-adv-x="582" arabic-form="medial" 
d="M0 0v104h387q5 40 5 76q0 98 -45.5 145t-150.5 47q-56 0 -115 -8v103q70 9 128 9q165 0 239.5 -72t74.5 -219q0 -42 -4 -81h78v-104h-597zM157 -170q-26 0 -43.5 18t-17.5 44t18 43.5t43 17.5t43 -17.5t18 -43.5t-18 -44t-43 -18zM318 -170q-25 0 -42.5 18t-17.5 44
t17.5 43.5t42.5 17.5q26 0 43.5 -17.5t17.5 -43.5t-18 -44t-43 -18zM238 -290q-25 0 -41.5 16.5t-16.5 41.5q0 24 16.5 41t41.5 17q24 0 41 -17t17 -41q0 -25 -17 -41.5t-41 -16.5z" />
    <glyph glyph-name="ddal.isol" unicode="&#x688;" horiz-adv-x="521" arabic-form="isolated" 
d="M46 0v104h297q-5 112 -62 181t-174 99l32 110q168 -44 250.5 -145.5t82.5 -282.5v-66h-426zM319 674q0 48 -38 48q-32 0 -61.5 -32t-39.5 -75h67q72 0 72 59zM181 845v-78q0 -21 -7 -58h1q19 31 50.5 50t67.5 19q100 0 100 -97q0 -56 -40.5 -89t-113.5 -33h-129v286h71z
" />
    <glyph glyph-name="ddal.fina" unicode="&#x688;" horiz-adv-x="521" arabic-form="final" 
d="M46 0v104h297q-5 112 -62 181t-174 99l32 110q159 -42 241 -134.5t91 -255.5h65v-104h-490zM181 845v-78q0 -21 -7 -58h1q19 31 50.5 50t67.5 19q100 0 100 -97q0 -56 -40.5 -89t-113.5 -33h-129v286h71zM319 674q0 48 -38 48q-32 0 -61.5 -32t-39.5 -75h67q72 0 72 59z
" />
    <glyph glyph-name="uni0698" unicode="&#x698;" horiz-adv-x="396" arabic-form="isolated" 
d="M75 -254q-42 0 -84 10l11 105q39 -12 81 -12q53 0 80 31.5t27 108.5v481h132v-474q0 -53 -10.5 -94t-36 -78t-76.5 -57.5t-124 -20.5zM246 688q-25 0 -43 18.5t-18 44.5t18 44.5t43 18.5q26 0 44 -18.5t18 -44.5t-18 -44.5t-44 -18.5zM330 546q-28 0 -47.5 19.5
t-19.5 48.5q0 28 19.5 48t47.5 20t47 -19.5t19 -48.5q0 -28 -19 -48t-47 -20zM164 546q-28 0 -47 19.5t-19 48.5q0 28 19 48t47 20t47 -19.5t19 -48.5q0 -28 -19 -48t-47 -20z" />
    <glyph glyph-name="uniFB8B" unicode="&#x698;" horiz-adv-x="406" arabic-form="final" 
d="M75 -254q-42 0 -84 10l11 105q39 -12 81 -12q53 0 80 31.5t27 108.5v481h132v-366h99v-104h-99v-4q0 -53 -10.5 -94t-36 -78t-76.5 -57.5t-124 -20.5zM330 546q-28 0 -47.5 19.5t-19.5 48.5q0 28 19.5 48t47.5 20t47 -19.5t19 -48.5q0 -28 -19 -48t-47 -20zM164 546
q-28 0 -47 19.5t-19 48.5q0 28 19 48t47 20t47 -19.5t19 -48.5q0 -28 -19 -48t-47 -20zM246 688q-25 0 -43 18.5t-18 44.5t18 44.5t43 18.5q26 0 44 -18.5t18 -44.5t-18 -44.5t-44 -18.5z" />
    <glyph glyph-name="uni0691" unicode="&#x691;" horiz-adv-x="396" arabic-form="isolated" 
d="M75 -254q-42 0 -84 10l11 105q39 -12 81 -12q53 0 80 31.5t27 108.5v481h132v-474q0 -53 -10.5 -94t-36 -78t-76.5 -57.5t-124 -20.5zM324 674q0 48 -38 48q-32 0 -61.5 -32t-39.5 -75h67q72 0 72 59zM186 845v-78q0 -21 -7 -58h1q19 31 50.5 50t67.5 19q100 0 100 -97
q0 -56 -40.5 -89t-113.5 -33h-129v286h71z" />
    <glyph glyph-name="uniFB8D" unicode="&#x691;" horiz-adv-x="406" arabic-form="final" 
d="M75 -254q-42 0 -84 10l11 105q39 -12 81 -12q53 0 80 31.5t27 108.5v481h132v-366h99v-104h-99v-4q0 -53 -10.5 -94t-36 -78t-76.5 -57.5t-124 -20.5zM186 845v-78q0 -21 -7 -58h1q19 31 50.5 50t67.5 19q100 0 100 -97q0 -56 -40.5 -89t-113.5 -33h-129v286h71zM324 674
q0 48 -38 48q-32 0 -61.5 -32t-39.5 -75h67q72 0 72 59z" />
    <glyph glyph-name="kheh.isol" unicode="&#x6a9;" horiz-adv-x="846" arabic-form="isolated" 
d="M782 0h-365q-196 0 -281.5 76t-85.5 220q0 86 26 157l141 23q-34 -74 -34 -165q0 -109 55.5 -158t192.5 -49h221q-4 116 -64.5 185t-179.5 97v97l395 248v-131l-244 -147q108 -48 165.5 -139.5t57.5 -246.5v-67z" />
    <glyph glyph-name="kheh.fina" unicode="&#x6a9;" horiz-adv-x="846" arabic-form="final" 
d="M417 0q-196 0 -281.5 76t-85.5 220q0 86 26 157l141 23q-34 -74 -34 -165q0 -109 55.5 -158t192.5 -49h221q-4 116 -64.5 185t-179.5 97v97l395 248v-131l-244 -147q209 -94 222 -349h81v-104h-445z" />
    <glyph glyph-name="kheh.init" unicode="&#x6a9;" horiz-adv-x="491" arabic-form="initial" 
d="M0 0v104h297q-4 116 -64.5 185t-180.5 97v97l396 248v-131l-244 -147q107 -48 164.5 -139.5t57.5 -246.5v-67h-426z" />
    <glyph glyph-name="kheh.medi" unicode="&#x6a9;" horiz-adv-x="491" arabic-form="medial" 
d="M0 0v104h297q-4 116 -64.5 185t-180.5 97v97l396 248v-131l-244 -147q101 -46 157.5 -129t63.5 -220h81v-104h-506z" />
    <glyph glyph-name="Gaf.isol" unicode="&#x6af;" horiz-adv-x="846" arabic-form="isolated" 
d="M782 0h-365q-196 0 -281.5 76t-85.5 220q0 86 26 157l141 23q-34 -74 -34 -165q0 -109 55.5 -158t192.5 -49h221q-4 116 -64.5 185t-179.5 97v85l395 249v-120l-244 -147q108 -48 165.5 -139.5t57.5 -246.5v-67zM408 553v113l395 249v-114z" />
    <glyph glyph-name="Gaf.fina" unicode="&#x6af;" horiz-adv-x="846" arabic-form="final" 
d="M417 0q-196 0 -281.5 76t-85.5 220q0 86 26 157l141 23q-34 -74 -34 -165q0 -109 55.5 -158t192.5 -49h221q-4 116 -64.5 185t-179.5 97v85l395 249v-120l-244 -147q209 -94 222 -349h81v-104h-445zM408 553v113l395 249v-114z" />
    <glyph glyph-name="Gaf.init" unicode="&#x6af;" horiz-adv-x="491" arabic-form="initial" 
d="M0 0v104h297q-4 116 -64.5 185t-180.5 97v85l396 249v-120l-244 -147q107 -48 164.5 -139.5t57.5 -246.5v-67h-426zM52 553v113l396 249v-114z" />
    <glyph glyph-name="Gaf.medi" unicode="&#x6af;" horiz-adv-x="491" arabic-form="medial" 
d="M0 0v104h297q-4 116 -64.5 185t-180.5 97v85l396 249v-120l-244 -147q101 -46 157.5 -129t63.5 -220h81v-104h-506zM52 553v113l396 249v-114z" />
    <glyph glyph-name="ghunna.isol" unicode="&#x6ba;" horiz-adv-x="667" arabic-form="isolated" 
d="M593 470v-399q0 -301 -282 -301q-125 0 -194.5 69.5t-69.5 214.5q0 92 24 179l136 25q-28 -100 -28 -192q0 -105 40.5 -149t101.5 -44q69 0 104.5 43.5t35.5 146.5v407h132z" />
    <glyph glyph-name="ghunna.fina" unicode="&#x6ba;" horiz-adv-x="677" arabic-form="final" 
d="M593 470v-366h99v-104h-104q-30 -230 -277 -230q-125 0 -194.5 69.5t-69.5 214.5q0 92 24 179l136 25q-28 -100 -28 -192q0 -105 40.5 -149t101.5 -44q69 0 104.5 43.5t35.5 146.5v407h132z" />
    <glyph glyph-name="hehhamza" unicode="&#x6c0;" horiz-adv-x="594" arabic-form="isolated" 
d="M525 0h-219q-268 0 -268 231q0 108 68 180t193 72q114 0 170 -60.5t56 -169.5v-253zM396 104v133q0 142 -107 142q-55 0 -87 -37.5t-32 -97.5q0 -71 36.5 -105.5t113.5 -34.5h76zM151 554v75q37 0 56 -4q-19 9 -19 39q0 47 36 79.5t109 32.5q24 0 59 -5l-12 -75
q-25 5 -50 5q-48 0 -48 -34q0 -38 69 -38h57v-75h-257z" />
    <glyph glyph-name="hehhamza.fina" unicode="&#x6c0;" horiz-adv-x="595" arabic-form="final" 
d="M610 0h-304q-268 0 -268 232q0 107 67.5 179t197.5 72q52 0 104.5 -8.5t78.5 -17.5l26 -9v-344h98v-104zM384 104v257q-38 18 -95 18q-55 0 -87 -37.5t-32 -97.5q0 -140 150 -140h64zM151 554v75q37 0 56 -4q-19 9 -19 39q0 47 36 79.5t109 32.5q24 0 59 -5l-12 -75
q-25 5 -50 5q-48 0 -48 -34q0 -38 69 -38h57v-75h-257z" />
    <glyph glyph-name="uni06C1" unicode="&#x6c1;" horiz-adv-x="594" arabic-form="isolated" 
d="M525 0h-219q-268 0 -268 231q0 108 68 180t193 72q114 0 170 -60.5t56 -169.5v-253zM396 104v133q0 142 -107 142q-55 0 -87 -37.5t-32 -97.5q0 -71 36.5 -105.5t113.5 -34.5h76z" />
    <glyph glyph-name="hehfinaltone" unicode="&#x6c1;" horiz-adv-x="565" arabic-form="final" 
d="M580 104v-104h-27q-123 0 -181 52.5t-58 158.5v30q-109 -23 -195 -153l-82 68q137 200 355 200l50 -2v-111q0 -77 27 -108t94 -31h17z" />
    <glyph glyph-name="hehinitialaltone" unicode="&#x6c1;" horiz-adv-x="346" arabic-form="initial" 
d="M0 0v104h140v366h132v-470h-272zM113 -242q-28 0 -44.5 18.5t-16.5 47.5q0 39 34.5 75t105.5 54l21 -46q-50 -26 -50 -54q0 -9 4.5 -20t4.5 -19q0 -23 -16 -39.5t-43 -16.5z" />
    <glyph glyph-name="hehmedialaltone" unicode="&#x6c1;" horiz-adv-x="719" arabic-form="medial" 
d="M734 104v-104h-112v-260h-121q-138 0 -213.5 68t-75.5 189q0 58 11 99l-2 1q-22 -45 -62.5 -71t-94.5 -26h-64v104h74q62 0 98.5 48t36.5 122v96h127v-343q0 -182 158 -184v261h240zM96 -267q-30 0 -47.5 20.5t-17.5 51.5q0 81 100 149l37 -37q-36 -35 -36 -63
q0 -11 11 -28.5t11 -36.5q0 -22 -16.5 -39t-41.5 -17z" />
    <glyph glyph-name="uni06BE" unicode="&#x6be;" horiz-adv-x="766" arabic-form="isolated" 
d="M707 0h-707v104h85l45 -5q-26 26 -26 67q0 74 50.5 121.5t138.5 47.5q93 0 138 -56t45 -149v-26h105v12q0 157 -67.5 232.5t-215.5 75.5q-101 0 -214 -37l-12 93q120 39 242 39q193 0 293 -99t100 -313v-107zM369 100v31q0 55 -21.5 88t-63.5 33q-33 0 -52.5 -20.5
t-19.5 -51.5q0 -38 26.5 -59t67.5 -21h63z" />
    <glyph glyph-name="uniFBAB" unicode="&#x6be;" horiz-adv-x="661" arabic-form="final" 
d="M676 104v-104h-92q-32 0 -78 8v-2q86 -25 86 -119t-60 -150.5t-163 -56.5q-126 0 -191 85t-74 235h-104v104h105q11 126 68 233.5t158 174.5q243 -124 243 -278q0 -98 -69 -134v-2q58 6 78 6h93zM306 0h-72q16 -216 142 -216q41 0 64 26t23 72q0 54 -40.5 86t-116.5 32z
M340 361q-95 -88 -107 -257h83q130 0 130 109q0 79 -106 148z" />
    <glyph glyph-name="yehbarree" unicode="&#x6d2;" horiz-adv-x="750" arabic-form="isolated" 
d="M694 0h-630q-16 118 23 230t122 182.5t187 70.5q89 0 127 -45t38 -129v-59h-127v37q0 46 -13.5 67.5t-48.5 21.5q-46 0 -89 -44t-67.5 -107t-24.5 -121h503v-104z" />
    <glyph glyph-name="yehbarree.fina" unicode="&#x6d2;" horiz-adv-x="791" arabic-form="final" 
d="M694 -320h-630q-13 113 27.5 208.5t136.5 155.5t232 60h346v-104h-363q-118 0 -185 -68t-67 -148h503v-104z" />
    <glyph glyph-name="uni06D3" unicode="&#x6d3;" horiz-adv-x="750" arabic-form="isolated" 
d="M694 0h-630q-16 118 23 230t122 182.5t187 70.5q89 0 127 -45t38 -129v-59h-127v37q0 46 -13.5 67.5t-48.5 21.5q-46 0 -89 -44t-67.5 -107t-24.5 -121h503v-104zM189 554v75q37 0 56 -4q-19 9 -19 39q0 47 36 79.5t109 32.5q24 0 59 -5l-12 -75q-25 5 -50 5
q-48 0 -48 -34q0 -38 69 -38h57v-75h-257z" />
    <glyph glyph-name="uniFBB1" unicode="&#x6d3;" horiz-adv-x="791" arabic-form="final" 
d="M694 -320h-630q-13 113 27.5 208.5t136.5 155.5t232 60h346v-104h-363q-118 0 -185 -68t-67 -148h503v-104zM244 190v75q37 0 56 -4q-19 9 -19 39q0 47 36 79.5t109 32.5q24 0 59 -5l-12 -75q-25 5 -50 5q-48 0 -48 -34q0 -38 69 -38h57v-75h-257z" />
    <glyph glyph-name="uni06CC" unicode="&#x6cc;" horiz-adv-x="1057" arabic-form="isolated" 
d="M626 0h-209q-196 0 -281.5 76t-85.5 220q0 86 26 157l141 23q-34 -74 -34 -165q0 -109 55.5 -158t192.5 -49h68v360q93 19 201 19q126 0 178.5 -56t52.5 -165v-126h-128v112q0 72 -24.5 101.5t-86.5 29.5l-66 -6v-373z" />
    <glyph glyph-name="uniFBFD" unicode="&#x6cc;" horiz-adv-x="596" arabic-form="final" 
d="M372 0v104h239v-104h-81q14 -8 23 -28t8 -45q0 -29 -14 -58t-42 -55.5t-78.5 -43.5t-115.5 -17q-127 0 -195.5 71.5t-68.5 216.5q0 105 24 192l136 25q-28 -100 -28 -203q0 -198 145 -198q55 0 81.5 27t23.5 60q-2 25 -17 40.5t-40 15.5z" />
    <glyph glyph-name="uniFBFE" unicode="&#x6cc;" horiz-adv-x="394" arabic-form="initial" 
d="M317 -150q0 -28 -19 -48t-47 -20t-47 19.5t-19 48.5q0 28 19 48t47 20t47 -19.5t19 -48.5zM152 -150q0 -28 -19.5 -48t-47.5 -20t-47 19.5t-19 48.5q0 28 19 48t47 20t47.5 -19.5t19.5 -48.5zM0 0v104h188v366h132v-470h-320z" />
    <glyph glyph-name="uniFBFF" unicode="&#x6cc;" horiz-adv-x="403" arabic-form="medial" 
d="M0 0v104h188v366h132v-366h99v-104h-419zM152 -150q0 -28 -19.5 -48t-47.5 -20t-47 19.5t-19 48.5q0 28 19 48t47 20t47.5 -19.5t19.5 -48.5zM317 -150q0 -28 -19 -48t-47 -20t-47 19.5t-19 48.5q0 28 19 48t47 20t47 -19.5t19 -48.5z" />
    <glyph glyph-name="shadda_dammatan" unicode="&#xfc5e;" horiz-adv-x="0" arabic-form="isolated" 
d="M-113 145l-28 132l52 11l18 -84l43 9q-6 15 -6 30q0 40 27 65.5t67 25.5q37 0 56 -18.5t19 -50.5q0 -70 -84 -86zM25 224l21 4q34 8 34 35q0 22 -25 22q-15 0 -24.5 -10.5t-9.5 -26.5zM29 38q-15 -38 -62 -38q-23 0 -35.5 15t-19.5 50l-8 37l51 10l7 -35q4 -22 19 -22
q22 0 17 31l-6 38l49 10l8 -37q6 -25 21 -25q23 0 18 37l-7 40l50 9l7 -37q9 -46 -9 -73.5t-59 -27.5q-26 0 -41 18z" />
    <glyph glyph-name="shadda_kasratan" unicode="&#xfc5f;" horiz-adv-x="0" arabic-form="isolated" 
d="M-91 77l-8 49l210 32l8 -49zM-79 0l-8 49l211 33l7 -49zM-8 207q-16 -36 -60 -36q-25 0 -37.5 15.5t-18.5 50.5l-7 37l50 9l7 -35q3 -22 19 -22q10 -1 14.5 7.5t2.5 22.5l-5 38l49 9l7 -37q6 -26 21 -26q23 1 18 37l-6 40l50 8l7 -37q8 -46 -10.5 -72.5t-58.5 -27.5
q-26 0 -42 19z" />
    <glyph glyph-name="shadda_fatha" unicode="&#xfc60;" horiz-adv-x="0" arabic-form="isolated" 
d="M-114 162l-9 50l211 32l8 -49zM10 37q-14 -37 -60 -37q-25 0 -37.5 15.5t-18.5 50.5l-7 38l51 9l6 -36q4 -21 20 -21q10 -1 14 7.5t2 22.5l-5 37l50 10l7 -37q4 -26 20 -26q23 0 18 37l-6 39l51 9l6 -37q8 -46 -10.5 -72.5t-58.5 -27.5q-26 0 -42 19z" />
    <glyph glyph-name="shadda_damma" unicode="&#xfc61;" horiz-adv-x="0" arabic-form="isolated" 
d="M-119 146l-11 48l92 19q-6 15 -6 30q0 40 27 65.5t67 25.5q37 0 56 -18.5t19 -50.5q0 -70 -84 -86zM15 224l21 4q34 8 34 35q0 22 -25 22q-15 0 -24.5 -10.5t-9.5 -26.5zM19 38q-15 -38 -62 -38q-23 0 -35.5 15t-19.5 50l-8 37l51 10l7 -35q4 -22 19 -22q22 0 17 31
l-6 38l49 10l8 -37q6 -25 21 -25q23 0 18 37l-7 40l50 9l7 -37q9 -46 -9 -73.5t-59 -27.5q-26 0 -41 18z" />
    <glyph glyph-name="shadda_kasra" unicode="&#xfc62;" horiz-adv-x="0" arabic-form="isolated" 
d="M-85 0l-9 49l211 32l8 -49zM-1 127q-16 -36 -60 -36q-25 0 -37.5 15.5t-18.5 50.5l-7 37l50 9l7 -35q3 -22 19 -22q10 -1 14.5 7.5t2.5 22.5l-5 38l49 9l7 -37q6 -26 21 -26q23 1 18 37l-6 40l51 8l6 -37q8 -46 -10.5 -72.5t-58.5 -27.5q-26 0 -42 19z" />
    <glyph glyph-name="shadda_alefsuperscript" unicode="&#xfc63;" horiz-adv-x="0" arabic-form="isolated" 
d="M7 35q-15 -32 -59 -34q-25 -1 -38 13t-20 46l-8 35l50 9l7 -32q4 -21 20 -21q22 0 17 29l-6 35l49 9l8 -34q3 -13 8 -18.5t13 -4.5q24 0 17 34l-7 36l51 9l7 -34q9 -42 -9 -67t-58 -26q-27 0 -42 16zM15 158l-53 -10v96h53v-86z" />
    <glyph glyph-name="alah" unicode="&#xfdf2;" horiz-adv-x="1278" arabic-form="isolated" 
d="M1193 0h-887q-268 0 -268 232q0 107 67.5 179t197.5 72q52 0 104.5 -8.5t78.5 -17.5l26 -9v-344h207v571h132v-571h210v601h132v-705zM384 104v257q-38 18 -95 18q-55 0 -87 -37.5t-32 -97.5q0 -140 150 -140h64z" />
    <glyph glyph-name="fathatan" unicode="&#xfe70;" horiz-adv-x="0" arabic-form="isolated" 
d="M-112 0v64l224 32v-64zM-111 105v64l224 32v-64z" />
    <glyph glyph-name="dammatan" unicode="&#xfe72;" horiz-adv-x="0" arabic-form="isolated" 
d="M-119 0l-31 147l57 13l21 -95l45 10q-6 20 -6 38q0 41 29 68.5t71 27.5q40 0 62 -22.5t22 -55.5q0 -73 -89 -93zM31 87l26 6q15 2 24.5 12t9.5 23q0 26 -28 26q-16 0 -27 -11t-10 -28z" />
    <glyph glyph-name="kasratan" unicode="&#xfe74;" horiz-adv-x="0" arabic-form="isolated" 
d="M-112 -201v64l224 32v-64zM-111 -96v64l224 32v-64z" />
    <glyph glyph-name="fatha" unicode="&#xfe76;" horiz-adv-x="0" arabic-form="isolated" 
d="M-112 0v71l224 32v-71z" />
    <glyph glyph-name="damma" unicode="&#xfe78;" horiz-adv-x="0" arabic-form="isolated" 
d="M-115 0l-12 52l77 17q-6 20 -6 38q0 41 29 68.5t71 27.5q40 0 62 -22.5t22 -55.5q0 -73 -89 -93zM8 81l26 6q15 2 24.5 12t9.5 23q0 26 -28 26q-16 0 -27 -11t-10 -28z" />
    <glyph glyph-name="kasra" unicode="&#xfe7a;" horiz-adv-x="0" arabic-form="isolated" 
d="M-112 -206v71l224 32v-71z" />
    <glyph glyph-name="shadda" unicode="&#xfe7c;" horiz-adv-x="0" arabic-form="isolated" 
d="M2 39q-10 -17 -29.5 -28t-40.5 -11q-56 0 -66 69l-8 56l60 10l8 -56q4 -24 22 -24q27 0 24 32l-9 56l60 10l9 -57q5 -27 25 -27q29 0 24 38l-9 60l60 8l9 -56q7 -44 -17 -73.5t-71 -29.5q-33 0 -51 23z" />
    <glyph glyph-name="sukun" unicode="&#xfe7e;" horiz-adv-x="0" arabic-form="isolated" 
d="M-33 84q0 -15 9 -24t24 -9q32 0 32 34q0 15 -8.5 25t-23.5 10t-24 -10.5t-9 -25.5zM-95 84q0 38 28 62t67 24q43 0 69 -22t26 -62q0 -37 -28 -61.5t-67 -24.5q-43 0 -69 21.5t-26 62.5z" />
    <glyph glyph-name="hamza.isol" unicode="&#x621;" horiz-adv-x="492" arabic-form="isolated" 
d="M42 0v103q59 0 92 -6q-35 17 -35 68q0 70 53.5 118.5t163.5 48.5q52 0 90 -7l-16 -104q-36 8 -80 8q-38 0 -58.5 -16.5t-20.5 -42.5q0 -67 114 -67h89v-103h-392z" />
    <glyph glyph-name="alef_madda.isol" unicode="&#x622;" horiz-adv-x="302" arabic-form="isolated" 
d="M85 0v705h132v-705h-132zM26 767l-46 63l105 78q42 -39 94 -39q54 0 104 41v-96q-47 -38 -110 -38q-54 0 -89 32z" />
    <glyph glyph-name="alef_madda.fina" unicode="&#x622;" horiz-adv-x="302" arabic-form="final" 
d="M85 0v705h132v-601h100v-104h-232zM26 767l-46 63l105 78q42 -39 94 -39q54 0 104 41v-96q-47 -38 -110 -38q-54 0 -89 32z" />
    <glyph glyph-name="alef_hamza_above.isol" unicode="&#x623;" horiz-adv-x="302" arabic-form="isolated" 
d="M15 750v69q42 0 59 -4q-18 10 -18 39q0 47 33.5 76.5t107.5 29.5q41 0 59 -5l-12 -69q-25 5 -49 5q-49 0 -49 -34q0 -38 70 -38h57v-69h-258zM85 0v688h132v-688h-132z" />
    <glyph glyph-name="alef_hamza_above.fina" unicode="&#x623;" horiz-adv-x="302" arabic-form="final" 
d="M85 0v688h132v-584h100v-104h-232zM15 750v69q42 0 59 -4q-18 10 -18 39q0 47 33.5 76.5t107.5 29.5q41 0 59 -5l-12 -69q-25 5 -49 5q-49 0 -49 -34q0 -38 70 -38h57v-69h-258z" />
    <glyph glyph-name="waw_hamza.isol" unicode="&#x624;" horiz-adv-x="586" arabic-form="isolated" 
d="M199 -252q-33 0 -71 3t-60 7l-21 3l8 108q78 -17 156 -17q173 0 173 133v15h-78q-268 0 -268 232q0 107 67.5 179t197.5 72q52 0 104.5 -8.5t78.5 -17.5l26 -9v-450q0 -111 -77 -180.5t-236 -69.5zM384 104v257q-38 18 -95 18q-55 0 -87 -37.5t-32 -97.5q0 -140 150 -140
h64zM159 554v75q37 0 56 -4q-19 9 -19 39q0 47 36 79.5t109 32.5q24 0 59 -5l-12 -75q-25 5 -50 5q-48 0 -48 -34q0 -38 69 -38h57v-75h-257z" />
    <glyph glyph-name="waw_hamza.fina" unicode="&#x624;" horiz-adv-x="595" arabic-form="final" 
d="M199 -252q-33 0 -71 3t-60 7l-21 3l8 108q78 -17 156 -17q173 0 173 133v15h-78q-268 0 -268 232q0 107 67.5 179t197.5 72q52 0 104.5 -8.5t78.5 -17.5l26 -9v-344h99v-104h-99v-2q0 -111 -77 -180.5t-236 -69.5zM384 104v257q-38 18 -95 18q-55 0 -87 -37.5t-32 -97.5
q0 -140 150 -140h64zM159 554v75q37 0 56 -4q-19 9 -19 39q0 47 36 79.5t109 32.5q24 0 59 -5l-12 -75q-25 5 -50 5q-48 0 -48 -34q0 -38 69 -38h57v-75h-257z" />
    <glyph glyph-name="alef_hamza_below.isol" unicode="&#x625;" horiz-adv-x="302" arabic-form="isolated" 
d="M85 0v705h132v-705h-132zM5 -268v73q32 0 49 -4q-13 11 -13 33q0 44 35 73.5t104 29.5q41 0 59 -5l-12 -72q-35 5 -48 5q-44 0 -44 -29q0 -31 63 -31h59v-73h-252z" />
    <glyph glyph-name="alef_hamza_below.fina" unicode="&#x625;" horiz-adv-x="302" arabic-form="final" 
d="M85 0v705h132v-601h100v-104h-232zM5 -268v73q32 0 49 -4q-13 11 -13 33q0 44 35 73.5t104 29.5q41 0 59 -5l-12 -72q-35 5 -48 5q-44 0 -44 -29q0 -31 63 -31h59v-73h-252z" />
    <glyph glyph-name="yeh_hamza_above.isol" unicode="&#x626;" horiz-adv-x="1000" arabic-form="isolated" 
d="M626 0h-209q-196 0 -281.5 76t-85.5 220q0 86 26 157l141 23q-34 -74 -34 -165q0 -109 55.5 -158t192.5 -49h68v360q93 19 201 19q126 0 178.5 -56t52.5 -165v-126h-128v112q0 72 -24.5 101.5t-86.5 29.5l-66 -6v-373zM44 554v75q37 0 56 -4q-19 9 -19 39q0 47 36 79.5
t109 32.5q24 0 59 -5l-12 -75q-25 5 -50 5q-48 0 -48 -34q0 -38 69 -38h57v-75h-257z" />
    <glyph glyph-name="yeh_hamza_above.fina" unicode="&#x626;" horiz-adv-x="1000" arabic-form="final" 
d="M626 0h-209q-196 0 -281.5 76t-85.5 220q0 86 26 157l141 23q-34 -74 -34 -165q0 -109 55.5 -158t192.5 -49h68v360q93 19 201 19q126 0 178.5 -56t52.5 -165v-158h84v-104h-212v248q0 72 -24.5 101.5t-86.5 29.5l-66 -6v-373zM44 554v75q37 0 56 -4q-19 9 -19 39
q0 47 36 79.5t109 32.5q24 0 59 -5l-12 -75q-25 5 -50 5q-48 0 -48 -34q0 -38 69 -38h57v-75h-257z" />
    <glyph glyph-name="yeh_hamza_above.init" unicode="&#x626;" horiz-adv-x="346" arabic-form="initial" 
d="M0 0v104h140v366h132v-470h-272zM57 554v75q37 0 56 -4q-19 9 -19 39q0 47 36 79.5t109 32.5q24 0 59 -5l-12 -75q-25 5 -50 5q-48 0 -48 -34q0 -38 69 -38h57v-75h-257z" />
    <glyph glyph-name="yeh_hamza_above.medi" unicode="&#x626;" horiz-adv-x="355" arabic-form="medial" 
d="M0 0v104h140v366h132v-366h98v-104h-370zM57 554v75q37 0 56 -4q-19 9 -19 39q0 47 36 79.5t109 32.5q24 0 59 -5l-12 -75q-25 5 -50 5q-48 0 -48 -34q0 -38 69 -38h57v-75h-257z" />
    <glyph glyph-name="alef.isol" unicode="&#x627;" horiz-adv-x="302" arabic-form="isolated" 
d="M85 0v705h132v-705h-132z" />
    <glyph glyph-name="alef.fina" unicode="&#x627;" horiz-adv-x="302" arabic-form="final" 
d="M85 0v705h132v-601h100v-104h-232z" />
    <glyph glyph-name="beh.isol" unicode="&#x628;" horiz-adv-x="773" arabic-form="isolated" 
d="M699 0h-282q-196 0 -281.5 76t-85.5 220q0 86 26 157l141 23q-34 -74 -34 -165q0 -109 55.5 -158t192.5 -49h136v366h132v-470zM395 -219q-29 0 -49 20t-20 49q0 28 20 48.5t49 20.5t49 -20t20 -49q0 -28 -20 -48.5t-49 -20.5z" />
    <glyph glyph-name="beh.fina" unicode="&#x628;" horiz-adv-x="782" arabic-form="final" 
d="M417 0q-196 0 -281.5 76t-85.5 220q0 86 26 157l141 23q-34 -74 -34 -165q0 -109 55.5 -158t192.5 -49h136v366h132v-366h99v-104h-381zM395 -219q-29 0 -49 20t-20 49q0 28 20 48.5t49 20.5t49 -20t20 -49q0 -28 -20 -48.5t-49 -20.5z" />
    <glyph glyph-name="beh.init" unicode="&#x628;" horiz-adv-x="346" arabic-form="initial" 
d="M0 0v104h140v366h132v-470h-272zM132 -219q-29 0 -49 20t-20 49q0 28 20.5 48.5t48.5 20.5q29 0 49 -20t20 -49q0 -28 -20.5 -48.5t-48.5 -20.5z" />
    <glyph glyph-name="beh.medi" unicode="&#x628;" horiz-adv-x="355" arabic-form="medial" 
d="M0 0v104h140v366h132v-366h98v-104h-370zM132 -219q-29 0 -49 20t-20 49q0 28 20.5 48.5t48.5 20.5q29 0 49 -20t20 -49q0 -28 -20.5 -48.5t-48.5 -20.5z" />
    <glyph glyph-name="tehmarbuta.isol" unicode="&#x629;" horiz-adv-x="594" arabic-form="isolated" 
d="M525 0h-219q-268 0 -268 231q0 108 68 180t193 72q114 0 170 -60.5t56 -169.5v-253zM396 104v133q0 142 -107 142q-55 0 -87 -37.5t-32 -97.5q0 -71 36.5 -105.5t113.5 -34.5h76zM373 546q-28 0 -47 19.5t-19 48.5q0 28 19 48t47 20t47 -19.5t19 -48.5q0 -28 -19 -48
t-47 -20zM207 546q-28 0 -47 19.5t-19 48.5q0 28 19 48t47 20t47.5 -19.5t19.5 -48.5q0 -28 -19.5 -48t-47.5 -20z" />
    <glyph glyph-name="tehmarbuta.fina" unicode="&#x629;" horiz-adv-x="595" arabic-form="final" 
d="M610 0h-304q-268 0 -268 232q0 107 67.5 179t197.5 72q52 0 104.5 -8.5t78.5 -17.5l26 -9v-344h98v-104zM384 104v257q-38 18 -95 18q-55 0 -87 -37.5t-32 -97.5q0 -140 150 -140h64zM373 546q-28 0 -47 19.5t-19 48.5q0 28 19 48t47 20t47 -19.5t19 -48.5q0 -28 -19 -48
t-47 -20zM207 546q-28 0 -47 19.5t-19 48.5q0 28 19 48t47 20t47.5 -19.5t19.5 -48.5q0 -28 -19.5 -48t-47.5 -20z" />
    <glyph glyph-name="teh.isol" unicode="&#x62a;" horiz-adv-x="773" arabic-form="isolated" 
d="M699 0h-282q-196 0 -281.5 76t-85.5 220q0 86 26 157l141 23q-34 -74 -34 -165q0 -109 55.5 -158t192.5 -49h136v366h132v-470zM485 546q-28 0 -47 19.5t-19 48.5q0 28 19 48t47 20t47 -19.5t19 -48.5q0 -28 -19 -48t-47 -20zM319 546q-28 0 -47 19.5t-19 48.5
q0 28 19 48t47 20t47.5 -19.5t19.5 -48.5q0 -28 -19.5 -48t-47.5 -20z" />
    <glyph glyph-name="teh.fina" unicode="&#x62a;" horiz-adv-x="782" arabic-form="final" 
d="M417 0q-196 0 -281.5 76t-85.5 220q0 86 26 157l141 23q-34 -74 -34 -165q0 -109 55.5 -158t192.5 -49h136v366h132v-366h99v-104h-381zM319 546q-28 0 -47 19.5t-19 48.5q0 28 19 48t47 20t47.5 -19.5t19.5 -48.5q0 -28 -19.5 -48t-47.5 -20zM485 546q-28 0 -47 19.5
t-19 48.5q0 28 19 48t47 20t47 -19.5t19 -48.5q0 -28 -19 -48t-47 -20z" />
    <glyph glyph-name="teh.init" unicode="&#x62a;" horiz-adv-x="346" arabic-form="initial" 
d="M0 0v104h140v366h132v-470h-272zM270 546q-28 0 -47 19.5t-19 48.5q0 28 19 48t47 20t47 -19.5t19 -48.5q0 -28 -19 -48t-47 -20zM104 546q-28 0 -47 19.5t-19 48.5q0 28 19 48t47 20t47.5 -19.5t19.5 -48.5q0 -28 -19.5 -48t-47.5 -20z" />
    <glyph glyph-name="teh.medi" unicode="&#x62a;" horiz-adv-x="346" arabic-form="medial" 
d="M0 0v104h140v366h132v-366h89v-104h-361zM104 546q-28 0 -47 19.5t-19 48.5q0 28 19 48t47 20t47.5 -19.5t19.5 -48.5q0 -28 -19.5 -48t-47.5 -20zM270 546q-28 0 -47 19.5t-19 48.5q0 28 19 48t47 20t47 -19.5t19 -48.5q0 -28 -19 -48t-47 -20z" />
    <glyph glyph-name="theh.isol" unicode="&#x62b;" horiz-adv-x="773" arabic-form="isolated" 
d="M699 0h-282q-196 0 -281.5 76t-85.5 220q0 86 26 157l141 23q-34 -74 -34 -165q0 -109 55.5 -158t192.5 -49h136v366h132v-470zM401 688q-25 0 -43 18.5t-18 44.5t18 44.5t43 18.5q26 0 44 -18.5t18 -44.5t-18 -44.5t-44 -18.5zM485 546q-28 0 -47.5 19.5t-19.5 48.5
q0 28 19.5 48t47.5 20t47 -19.5t19 -48.5q0 -28 -19 -48t-47 -20zM319 546q-28 0 -47 19.5t-19 48.5q0 28 19 48t47 20t47 -19.5t19 -48.5q0 -28 -19 -48t-47 -20z" />
    <glyph glyph-name="theh.fina" unicode="&#x62b;" horiz-adv-x="782" arabic-form="final" 
d="M417 0q-196 0 -281.5 76t-85.5 220q0 86 26 157l141 23q-34 -74 -34 -165q0 -109 55.5 -158t192.5 -49h136v366h132v-366h99v-104h-381zM485 546q-28 0 -47.5 19.5t-19.5 48.5q0 28 19.5 48t47.5 20t47 -19.5t19 -48.5q0 -28 -19 -48t-47 -20zM319 546q-28 0 -47 19.5
t-19 48.5q0 28 19 48t47 20t47 -19.5t19 -48.5q0 -28 -19 -48t-47 -20zM401 688q-25 0 -43 18.5t-18 44.5t18 44.5t43 18.5q26 0 44 -18.5t18 -44.5t-18 -44.5t-44 -18.5z" />
    <glyph glyph-name="theh.init" unicode="&#x62b;" horiz-adv-x="346" arabic-form="initial" 
d="M0 0v104h140v366h132v-470h-272zM186 688q-25 0 -43 18.5t-18 44.5t18 44.5t43 18.5q26 0 44 -18.5t18 -44.5t-18 -44.5t-44 -18.5zM270 546q-28 0 -47.5 19.5t-19.5 48.5q0 28 19.5 48t47.5 20t47 -19.5t19 -48.5q0 -28 -19 -48t-47 -20zM104 546q-28 0 -47 19.5
t-19 48.5q0 28 19 48t47 20t47 -19.5t19 -48.5q0 -28 -19 -48t-47 -20z" />
    <glyph glyph-name="theh.medi" unicode="&#x62b;" horiz-adv-x="355" arabic-form="medial" 
d="M0 0v104h140v366h132v-366h98v-104h-370zM270 546q-28 0 -47.5 19.5t-19.5 48.5q0 28 19.5 48t47.5 20t47 -19.5t19 -48.5q0 -28 -19 -48t-47 -20zM104 546q-28 0 -47 19.5t-19 48.5q0 28 19 48t47 20t47 -19.5t19 -48.5q0 -28 -19 -48t-47 -20zM186 688q-25 0 -43 18.5
t-18 44.5t18 44.5t43 18.5q26 0 44 -18.5t18 -44.5t-18 -44.5t-44 -18.5z" />
    <glyph glyph-name="jeem.isol" unicode="&#x62c;" horiz-adv-x="600" arabic-form="isolated" 
d="M396 -219q-29 0 -49 20t-20 49q0 28 20.5 48.5t48.5 20.5q29 0 49 -20t20 -49q0 -28 -20.5 -48.5t-48.5 -20.5zM517 0h-191q-189 0 -189 -110q0 -45 42 -75.5t124 -30.5l-9 -104q-142 0 -215 55.5t-73 146.5q0 100 80.5 161t243.5 61h68q5 40 5 76q0 98 -45 145t-150 47
q-57 0 -115 -8v103q68 9 128 9q165 0 239 -72t74 -219q0 -83 -17 -185z" />
    <glyph glyph-name="jeem.fina" unicode="&#x62c;" horiz-adv-x="593" arabic-form="final" 
d="M326 0q-189 0 -189 -110q0 -45 42 -75.5t124 -30.5l-9 -104q-142 0 -215 55.5t-73 146.5q0 100 80.5 161t243.5 61h68q5 40 5 76q0 98 -45 145t-150 47q-57 0 -115 -8v103q68 9 128 9q165 0 239 -72t74 -219q0 -42 -4 -81h79v-104h-283zM396 -219q-29 0 -49 20t-20 49
q0 28 20.5 48.5t48.5 20.5q29 0 49 -20t20 -49q0 -28 -20.5 -48.5t-48.5 -20.5z" />
    <glyph glyph-name="jeem.init" unicode="&#x62c;" horiz-adv-x="578" arabic-form="initial" 
d="M0 0v104h387q5 40 5 76q0 98 -45.5 145t-150.5 47q-56 0 -115 -8v103q70 9 128 9q165 0 239.5 -72t74.5 -219q0 -83 -17 -185h-506zM237 -219q-29 0 -49 20t-20 49q0 28 20 48.5t49 20.5t49 -20t20 -49q0 -28 -20 -48.5t-49 -20.5z" />
    <glyph glyph-name="jeem.medi" unicode="&#x62c;" horiz-adv-x="582" arabic-form="medial" 
d="M0 0v104h387q5 40 5 76q0 98 -45.5 145t-150.5 47q-56 0 -115 -8v103q70 9 128 9q165 0 239.5 -72t74.5 -219q0 -42 -4 -81h78v-104h-597zM237 -219q-29 0 -49 20t-20 49q0 28 20 48.5t49 20.5t49 -20t20 -49q0 -28 -20 -48.5t-49 -20.5z" />
    <glyph glyph-name="hah.isol" unicode="&#x62d;" horiz-adv-x="588" arabic-form="isolated" 
d="M304 -320q-143 0 -215.5 54.5t-72.5 148.5q0 100 80.5 160.5t243.5 60.5h57q5 40 5 76q0 98 -45.5 145t-150.5 47q-56 0 -115 -8v103q70 9 128 9q165 0 239.5 -72t74.5 -219q0 -83 -17 -185h-180q-189 0 -189 -108q0 -48 42 -78t128 -30q78 0 171 18l9 -102
q-105 -20 -193 -20z" />
    <glyph glyph-name="hah.fina" unicode="&#x62d;" horiz-adv-x="592" arabic-form="final" 
d="M336 0q-189 0 -189 -108q0 -48 42 -78t128 -30q78 0 171 18l9 -102q-105 -20 -193 -20q-143 0 -215.5 54.5t-72.5 148.5q0 100 80.5 160.5t243.5 60.5h57q5 40 5 76q0 98 -45.5 145t-150.5 47q-56 0 -115 -8v103q70 9 128 9q165 0 239.5 -72t74.5 -219q0 -42 -4 -81h78
v-104h-271z" />
    <glyph glyph-name="hah.init" unicode="&#x62d;" horiz-adv-x="578" arabic-form="initial" 
d="M0 0v104h387q5 40 5 76q0 98 -45.5 145t-150.5 47q-56 0 -115 -8v103q70 9 128 9q165 0 239.5 -72t74.5 -219q0 -83 -17 -185h-506z" />
    <glyph glyph-name="hah.medi" unicode="&#x62d;" horiz-adv-x="582" arabic-form="medial" 
d="M0 0v104h387q5 40 5 76q0 98 -45.5 145t-150.5 47q-56 0 -115 -8v103q70 9 128 9q165 0 239.5 -72t74.5 -219q0 -42 -4 -81h78v-104h-597z" />
    <glyph glyph-name="khah.isol" unicode="&#x62e;" horiz-adv-x="588" arabic-form="isolated" 
d="M304 -320q-143 0 -215.5 54.5t-72.5 148.5q0 100 80.5 160.5t243.5 60.5h57q5 40 5 76q0 98 -45.5 145t-150.5 47q-56 0 -115 -8v103q70 9 128 9q165 0 239.5 -72t74.5 -219q0 -83 -17 -185h-180q-189 0 -189 -108q0 -48 42 -78t128 -30q78 0 171 18l9 -102
q-105 -20 -193 -20zM247 554q-29 0 -49 20t-20 49t20 49t49 20t49 -20t20 -49t-20 -49t-49 -20z" />
    <glyph glyph-name="khah.fina" unicode="&#x62e;" horiz-adv-x="592" arabic-form="final" 
d="M336 0q-189 0 -189 -108q0 -48 42 -78t128 -30q78 0 171 18l9 -102q-105 -20 -193 -20q-143 0 -215.5 54.5t-72.5 148.5q0 100 80.5 160.5t243.5 60.5h57q5 40 5 76q0 98 -45.5 145t-150.5 47q-56 0 -115 -8v103q70 9 128 9q165 0 239.5 -72t74.5 -219q0 -42 -4 -81h78
v-104h-271zM247 554q-29 0 -49 20t-20 49t20 49t49 20t49 -20t20 -49t-20 -49t-49 -20z" />
    <glyph glyph-name="khah.init" unicode="&#x62e;" horiz-adv-x="578" arabic-form="initial" 
d="M0 0v104h387q5 40 5 76q0 98 -45.5 145t-150.5 47q-56 0 -115 -8v103q70 9 128 9q165 0 239.5 -72t74.5 -219q0 -83 -17 -185h-506zM237 554q-29 0 -49 20t-20 49t20 49t49 20t49 -20t20 -49t-20 -49t-49 -20z" />
    <glyph glyph-name="khah.medi" unicode="&#x62e;" horiz-adv-x="582" arabic-form="medial" 
d="M0 0v104h387q5 40 5 76q0 98 -45.5 145t-150.5 47q-56 0 -115 -8v103q70 9 128 9q165 0 239.5 -72t74.5 -219q0 -42 -4 -81h78v-104h-597zM237 554q-29 0 -49 20t-20 49t20 49t49 20t49 -20t20 -49t-20 -49t-49 -20z" />
    <glyph glyph-name="dal.isol" unicode="&#x62f;" horiz-adv-x="521" arabic-form="isolated" 
d="M46 0v104h297q-5 112 -62 181t-174 99l32 110q168 -44 250.5 -145.5t82.5 -282.5v-66h-426z" />
    <glyph glyph-name="dal.fina" unicode="&#x62f;" horiz-adv-x="521" arabic-form="final" 
d="M46 0v104h297q-5 112 -62 181t-174 99l32 110q159 -42 241 -134.5t91 -255.5h65v-104h-490z" />
    <glyph glyph-name="thal.isol" unicode="&#x630;" horiz-adv-x="521" arabic-form="isolated" 
d="M46 0v104h297q-5 112 -62 181t-174 99l32 110q168 -44 250.5 -145.5t82.5 -282.5v-66h-426zM198 554q-29 0 -49 20t-20 49t20.5 49t48.5 20t48.5 -20t20.5 -49t-20.5 -49t-48.5 -20z" />
    <glyph glyph-name="thal.fina" unicode="&#x630;" horiz-adv-x="521" arabic-form="final" 
d="M46 0v104h297q-5 112 -62 181t-174 99l32 110q159 -42 241 -134.5t91 -255.5h65v-104h-490zM198 554q-29 0 -49 20t-20 49t20.5 49t48.5 20t48.5 -20t20.5 -49t-20.5 -49t-48.5 -20z" />
    <glyph glyph-name="reh.isol" unicode="&#x631;" horiz-adv-x="396" arabic-form="isolated" 
d="M75 -254q-42 0 -84 10l11 105q39 -12 81 -12q53 0 80 31.5t27 108.5v481h132v-474q0 -53 -10.5 -94t-36 -78t-76.5 -57.5t-124 -20.5z" />
    <glyph glyph-name="reh.fina" unicode="&#x631;" horiz-adv-x="406" arabic-form="final" 
d="M75 -254q-42 0 -84 10l11 105q39 -12 81 -12q53 0 80 31.5t27 108.5v481h132v-366h99v-104h-99v-4q0 -53 -10.5 -94t-36 -78t-76.5 -57.5t-124 -20.5z" />
    <glyph glyph-name="zain.isol" unicode="&#x632;" horiz-adv-x="396" arabic-form="isolated" 
d="M75 -254q-42 0 -84 10l11 105q39 -12 81 -12q53 0 80 31.5t27 108.5v481h132v-474q0 -53 -10.5 -94t-36 -78t-76.5 -57.5t-124 -20.5zM256 554q-29 0 -49 20t-20 49t20.5 49t48.5 20t48.5 -20t20.5 -49t-20.5 -49t-48.5 -20z" />
    <glyph glyph-name="zain.fina" unicode="&#x632;" horiz-adv-x="406" arabic-form="final" 
d="M75 -254q-42 0 -84 10l11 105q39 -12 81 -12q53 0 80 31.5t27 108.5v481h132v-366h99v-104h-99v-4q0 -53 -10.5 -94t-36 -78t-76.5 -57.5t-124 -20.5zM256 554q-29 0 -49 20t-20 49t20.5 49t48.5 20t48.5 -20t20.5 -49t-20.5 -49t-48.5 -20z" />
    <glyph glyph-name="seen.isol" unicode="&#x633;" horiz-adv-x="1222" arabic-form="isolated" 
d="M311 -230q-125 0 -194.5 69.5t-69.5 214.5q0 92 24 179l136 25q-28 -100 -28 -192q0 -105 40.5 -149t101.5 -44q69 0 104.5 43t35.5 146v348h132v-197q0 -59 17 -87.5t59 -28.5q41 0 57.5 28.5t16.5 86.5v238h126v-235q0 -63 22.5 -87t87.5 -24h35q7 70 7 120
q0 138 -29 268l129 18q32 -135 32 -277q0 -115 -15 -233h-186q-132 0 -162 74q-12 -38 -44 -60t-75 -22q-62 0 -90 41q4 -14 4 -24q0 -26 -5 -52.5t-22.5 -61.5t-46 -61.5t-80.5 -45t-120 -18.5z" />
    <glyph glyph-name="seen.fina" unicode="&#x633;" horiz-adv-x="1231" arabic-form="final" 
d="M311 -230q-125 0 -194.5 69.5t-69.5 214.5q0 92 24 179l136 25q-28 -100 -28 -192q0 -105 40.5 -149t101.5 -44q69 0 104.5 43t35.5 146v348h132v-197q0 -59 17 -87.5t59 -28.5q41 0 57.5 28.5t16.5 86.5v238h126v-235q0 -63 22.5 -87t87.5 -24h35q7 70 7 120
q0 138 -29 268l129 18q32 -135 32 -277q0 -56 -5 -129h98v-104h-294q-132 0 -162 74q-12 -38 -44 -60t-75 -22q-62 0 -90 41q4 -14 4 -24q0 -26 -5 -52.5t-22.5 -61.5t-46 -61.5t-80.5 -45t-120 -18.5z" />
    <glyph glyph-name="seen.init" unicode="&#x633;" horiz-adv-x="883" arabic-form="initial" 
d="M0 0v104h32q50 0 70 26t20 99v181h132v-198q0 -59 17 -87.5t59 -28.5q41 0 57.5 28.5t16.5 86.5v239h126v-235q0 -63 22.5 -87t87.5 -24h35q7 70 7 120q0 138 -29 268l129 18q32 -135 32 -277q0 -115 -15 -233h-186q-132 0 -162 74q-17 -41 -56.5 -62t-88.5 -21
q-55 0 -92 22t-50 61q-28 -74 -133 -74h-31z" />
    <glyph glyph-name="seen.medi" unicode="&#x633;" horiz-adv-x="892" arabic-form="medial" 
d="M0 0v104h32q50 0 70 26t20 99v181h132v-198q0 -59 17 -87.5t59 -28.5q41 0 57.5 28.5t16.5 86.5v239h126v-235q0 -63 22.5 -87t87.5 -24h35q7 70 7 120q0 138 -29 268l129 18q32 -135 32 -277q0 -56 -5 -129h98v-104h-294q-132 0 -162 74q-17 -41 -56.5 -62t-88.5 -21
q-55 0 -92 22t-50 61q-28 -74 -133 -74h-31z" />
    <glyph glyph-name="sheen.isol" unicode="&#x634;" horiz-adv-x="1222" arabic-form="isolated" 
d="M311 -230q-125 0 -194.5 69.5t-69.5 214.5q0 92 24 179l136 25q-28 -100 -28 -192q0 -105 40.5 -149t101.5 -44q69 0 104.5 43t35.5 146v348h132v-197q0 -59 17 -87.5t59 -28.5q41 0 57.5 28.5t16.5 86.5v238h126v-235q0 -63 22.5 -87t87.5 -24h35q7 70 7 120
q0 138 -29 268l129 18q32 -135 32 -277q0 -115 -15 -233h-186q-132 0 -162 74q-12 -38 -44 -60t-75 -22q-62 0 -90 41q4 -14 4 -24q0 -26 -5 -52.5t-22.5 -61.5t-46 -61.5t-80.5 -45t-120 -18.5zM800 688q-25 0 -43 18.5t-18 44.5t18 44.5t43 18.5q26 0 44 -18.5t18 -44.5
t-18 -44.5t-44 -18.5zM884 546q-28 0 -47.5 19.5t-19.5 48.5q0 28 19.5 48t47.5 20t47 -19.5t19 -48.5q0 -28 -19 -48t-47 -20zM718 546q-28 0 -47 19.5t-19 48.5q0 28 19 48t47 20t47 -19.5t19 -48.5q0 -28 -19 -48t-47 -20z" />
    <glyph glyph-name="sheen.fina" unicode="&#x634;" horiz-adv-x="1231" arabic-form="final" 
d="M952 0q-132 0 -162 74q-12 -38 -44 -60t-75 -22q-62 0 -90 41q4 -14 4 -24q0 -26 -5 -52.5t-22.5 -61.5t-46 -61.5t-80.5 -45t-120 -18.5q-125 0 -194.5 69.5t-69.5 214.5q0 92 24 179l136 25q-28 -100 -28 -192q0 -105 40.5 -149t101.5 -44q69 0 104.5 43t35.5 146v348
h132v-197q0 -59 17 -87.5t59 -28.5q41 0 57.5 28.5t16.5 86.5v238h126v-235q0 -63 22.5 -87t87.5 -24h35q7 70 7 120q0 138 -29 268l129 18q32 -135 32 -277q0 -56 -5 -129h98v-104h-294zM884 546q-28 0 -47.5 19.5t-19.5 48.5q0 28 19.5 48t47.5 20t47 -19.5t19 -48.5
q0 -28 -19 -48t-47 -20zM718 546q-28 0 -47 19.5t-19 48.5q0 28 19 48t47 20t47 -19.5t19 -48.5q0 -28 -19 -48t-47 -20zM800 688q-25 0 -43 18.5t-18 44.5t18 44.5t43 18.5q26 0 44 -18.5t18 -44.5t-18 -44.5t-44 -18.5z" />
    <glyph glyph-name="sheen.init" unicode="&#x634;" horiz-adv-x="883" arabic-form="initial" 
d="M0 0v104h32q50 0 70 26t20 99v181h132v-198q0 -59 17 -87.5t59 -28.5q41 0 57.5 28.5t16.5 86.5v239h126v-235q0 -63 22.5 -87t87.5 -24h35q7 70 7 120q0 138 -29 268l129 18q32 -135 32 -277q0 -115 -15 -233h-186q-132 0 -162 74q-17 -41 -56.5 -62t-88.5 -21
q-55 0 -92 22t-50 61q-28 -74 -133 -74h-31zM461 688q-25 0 -43 18.5t-18 44.5t18 44.5t43 18.5q26 0 44 -18.5t18 -44.5t-18 -44.5t-44 -18.5zM545 546q-28 0 -47.5 19.5t-19.5 48.5q0 28 19.5 48t47.5 20t47 -19.5t19 -48.5q0 -28 -19 -48t-47 -20zM379 546
q-28 0 -47 19.5t-19 48.5q0 28 19 48t47 20t47 -19.5t19 -48.5q0 -28 -19 -48t-47 -20z" />
    <glyph glyph-name="sheen.medi" unicode="&#x634;" horiz-adv-x="892" arabic-form="medial" 
d="M0 0v104h32q50 0 70 26t20 99v181h132v-198q0 -59 17 -87.5t59 -28.5q41 0 57.5 28.5t16.5 86.5v239h126v-235q0 -63 22.5 -87t87.5 -24h35q7 70 7 120q0 138 -29 268l129 18q32 -135 32 -277q0 -56 -5 -129h98v-104h-294q-132 0 -162 74q-17 -41 -56.5 -62t-88.5 -21
q-55 0 -92 22t-50 61q-28 -74 -133 -74h-31zM545 546q-28 0 -47.5 19.5t-19.5 48.5q0 28 19.5 48t47.5 20t47 -19.5t19 -48.5q0 -28 -19 -48t-47 -20zM379 546q-28 0 -47 19.5t-19 48.5q0 28 19 48t47 20t47 -19.5t19 -48.5q0 -28 -19 -48t-47 -20zM461 688q-25 0 -43 18.5
t-18 44.5t18 44.5t43 18.5q26 0 44 -18.5t18 -44.5t-18 -44.5t-44 -18.5z" />
    <glyph glyph-name="sad.isol" unicode="&#x635;" horiz-adv-x="1107" arabic-form="isolated" 
d="M311 -230q-125 0 -194.5 69.5t-69.5 214.5q0 92 24 179l136 25q-28 -100 -28 -192q0 -105 40.5 -149t101.5 -44q69 0 104.5 43t35.5 146v408h132v-25q0 -82 -11 -148h1q36 87 105.5 136.5t151.5 49.5q101 0 152 -63.5t51 -178.5q0 -133 -14 -241h-442
q-12 -117 -84.5 -173.5t-191.5 -56.5zM592 104h311q5 67 5 123q0 74 -22 112t-73 38q-77 0 -139 -81.5t-82 -191.5z" />
    <glyph glyph-name="sad.fina" unicode="&#x635;" horiz-adv-x="1116" arabic-form="final" 
d="M587 0q-12 -117 -84.5 -173.5t-191.5 -56.5q-125 0 -194.5 69.5t-69.5 214.5q0 92 24 179l136 25q-28 -100 -28 -192q0 -105 40.5 -149t101.5 -44q69 0 104.5 43t35.5 146v408h132v-25q0 -82 -11 -148h1q36 87 105.5 136.5t151.5 49.5q101 0 152 -63.5t51 -178.5
q0 -77 -4 -137h92v-104h-544zM592 104h311q5 67 5 123q0 74 -22 112t-73 38q-77 0 -139 -81.5t-82 -191.5z" />
    <glyph glyph-name="sad.init" unicode="&#x635;" horiz-adv-x="768" arabic-form="initial" 
d="M704 241q0 -133 -14 -241h-690v104h122v366h132v-25q0 -82 -11 -148h1q36 87 105.5 136.5t151.5 49.5q101 0 152 -63.5t51 -178.5zM569 226q0 74 -22 112.5t-73 38.5q-77 0 -139 -81.5t-82 -191.5h311q5 67 5 122z" />
    <glyph glyph-name="sad.medi" unicode="&#x635;" horiz-adv-x="777" arabic-form="medial" 
d="M704 241q0 -77 -4 -137h92v-104h-792v104h122v366h132v-25q0 -82 -11 -148h1q36 87 105.5 136.5t151.5 49.5q101 0 152 -63.5t51 -178.5zM569 226q0 74 -22 112.5t-73 38.5q-77 0 -139 -81.5t-82 -191.5h311q5 67 5 122z" />
    <glyph glyph-name="dad.isol" unicode="&#x636;" horiz-adv-x="1107" arabic-form="isolated" 
d="M311 -230q-125 0 -194.5 69.5t-69.5 214.5q0 92 24 179l136 25q-28 -100 -28 -192q0 -105 40.5 -149t101.5 -44q69 0 104.5 43t35.5 146v408h132v-25q0 -82 -11 -148h1q36 87 105.5 136.5t151.5 49.5q101 0 152 -63.5t51 -178.5q0 -133 -14 -241h-442
q-12 -117 -84.5 -173.5t-191.5 -56.5zM592 104h311q5 67 5 123q0 74 -22 112t-73 38q-77 0 -139 -81.5t-82 -191.5zM822 554q-29 0 -49 20t-20 49t20.5 49t48.5 20t48.5 -20t20.5 -49t-20.5 -49t-48.5 -20z" />
    <glyph glyph-name="dad.fina" unicode="&#x636;" horiz-adv-x="1116" arabic-form="final" 
d="M311 -230q-125 0 -194.5 69.5t-69.5 214.5q0 92 24 179l136 25q-28 -100 -28 -192q0 -105 40.5 -149t101.5 -44q69 0 104.5 43t35.5 146v408h132v-25q0 -82 -11 -148h1q36 87 105.5 136.5t151.5 49.5q101 0 152 -63.5t51 -178.5q0 -77 -4 -137h92v-104h-544
q-12 -117 -84.5 -173.5t-191.5 -56.5zM592 104h311q5 67 5 123q0 74 -22 112t-73 38q-77 0 -139 -81.5t-82 -191.5zM822 554q-29 0 -49 20t-20 49t20.5 49t48.5 20t48.5 -20t20.5 -49t-20.5 -49t-48.5 -20z" />
    <glyph glyph-name="dad.init" unicode="&#x636;" horiz-adv-x="768" arabic-form="initial" 
d="M704 241q0 -133 -14 -241h-690v104h122v366h132v-25q0 -82 -11 -148h1q36 87 105.5 136.5t151.5 49.5q101 0 152 -63.5t51 -178.5zM569 226q0 74 -22 112.5t-73 38.5q-77 0 -139 -81.5t-82 -191.5h311q5 67 5 122zM484 554q-29 0 -49 20t-20 49t20.5 49t48.5 20t48.5 -20
t20.5 -49t-20.5 -49t-48.5 -20z" />
    <glyph glyph-name="dad.medi" unicode="&#x636;" horiz-adv-x="777" arabic-form="medial" 
d="M0 0v104h122v366h132v-25q0 -82 -11 -148h1q36 87 105.5 136.5t151.5 49.5q101 0 152 -63.5t51 -178.5q0 -77 -4 -137h92v-104h-792zM569 226q0 74 -22 112.5t-73 38.5q-77 0 -139 -81.5t-82 -191.5h311q5 67 5 122zM484 554q-29 0 -49 20t-20 49t20.5 49t48.5 20
t48.5 -20t20.5 -49t-20.5 -49t-48.5 -20z" />
    <glyph glyph-name="tah.isol" unicode="&#x637;" horiz-adv-x="768" arabic-form="isolated" 
d="M0 0v104h122v601h132v-260q0 -82 -11 -148h1q36 87 105.5 136.5t151.5 49.5q101 0 152 -63.5t51 -178.5q0 -133 -14 -241h-690zM253 104h311q5 67 5 122q0 74 -22 112.5t-73 38.5q-77 0 -139 -81.5t-82 -191.5z" />
    <glyph glyph-name="tah.fina" unicode="&#x637;" horiz-adv-x="777" arabic-form="final" 
d="M0 0v104h122v601h132v-260q0 -82 -11 -148h1q36 87 105.5 136.5t151.5 49.5q101 0 152 -63.5t51 -178.5q0 -77 -4 -137h92v-104h-792zM253 104h311q5 67 5 122q0 74 -22 112.5t-73 38.5q-77 0 -139 -81.5t-82 -191.5z" />
    <glyph glyph-name="tah.init" unicode="&#x637;" horiz-adv-x="768" arabic-form="initial" 
d="M0 0v104h122v601h132v-260q0 -82 -11 -148h1q36 87 105.5 136.5t151.5 49.5q101 0 152 -63.5t51 -178.5q0 -133 -14 -241h-690zM253 104h311q5 67 5 122q0 74 -22 112.5t-73 38.5q-77 0 -139 -81.5t-82 -191.5z" />
    <glyph glyph-name="tah.medi" unicode="&#x637;" horiz-adv-x="777" arabic-form="medial" 
d="M0 0v104h122v601h132v-260q0 -82 -11 -148h1q36 87 105.5 136.5t151.5 49.5q101 0 152 -63.5t51 -178.5q0 -77 -4 -137h92v-104h-792zM253 104h311q5 67 5 122q0 74 -22 112.5t-73 38.5q-77 0 -139 -81.5t-82 -191.5z" />
    <glyph glyph-name="zah.isol" unicode="&#x638;" horiz-adv-x="768" arabic-form="isolated" 
d="M0 0v104h122v601h132v-260q0 -82 -11 -148h1q36 87 105.5 136.5t151.5 49.5q101 0 152 -63.5t51 -178.5q0 -133 -14 -241h-690zM253 104h311q5 67 5 122q0 74 -22 112.5t-73 38.5q-77 0 -139 -81.5t-82 -191.5zM484 554q-29 0 -49 20t-20 49t20.5 49t48.5 20t48.5 -20
t20.5 -49t-20.5 -49t-48.5 -20z" />
    <glyph glyph-name="zah.fina" unicode="&#x638;" horiz-adv-x="777" arabic-form="final" 
d="M0 0v104h122v601h132v-260q0 -82 -11 -148h1q36 87 105.5 136.5t151.5 49.5q101 0 152 -63.5t51 -178.5q0 -77 -4 -137h92v-104h-792zM253 104h311q5 67 5 122q0 74 -22 112.5t-73 38.5q-77 0 -139 -81.5t-82 -191.5zM484 554q-29 0 -49 20t-20 49t20.5 49t48.5 20
t48.5 -20t20.5 -49t-20.5 -49t-48.5 -20z" />
    <glyph glyph-name="zah.init" unicode="&#x638;" horiz-adv-x="768" arabic-form="initial" 
d="M0 0v104h122v601h132v-260q0 -82 -11 -148h1q36 87 105.5 136.5t151.5 49.5q101 0 152 -63.5t51 -178.5q0 -133 -14 -241h-690zM253 104h311q5 67 5 122q0 74 -22 112.5t-73 38.5q-77 0 -139 -81.5t-82 -191.5zM484 554q-29 0 -49 20t-20 49t20.5 49t48.5 20t48.5 -20
t20.5 -49t-20.5 -49t-48.5 -20z" />
    <glyph glyph-name="zah.medi" unicode="&#x638;" horiz-adv-x="777" arabic-form="medial" 
d="M0 0v104h122v601h132v-260q0 -82 -11 -148h1q36 87 105.5 136.5t151.5 49.5q101 0 152 -63.5t51 -178.5q0 -77 -4 -137h92v-104h-792zM253 104h311q5 67 5 122q0 74 -22 112.5t-73 38.5q-77 0 -139 -81.5t-82 -191.5zM484 554q-29 0 -49 20t-20 49t20.5 49t48.5 20
t48.5 -20t20.5 -49t-20.5 -49t-48.5 -20z" />
    <glyph glyph-name="ain.isol" unicode="&#x639;" horiz-adv-x="494" arabic-form="isolated" 
d="M289 -320q-141 0 -210.5 55.5t-69.5 148.5q0 68 39.5 115.5t113.5 65.5q-50 21 -81.5 68t-31.5 112q0 108 69.5 173t197.5 65q27 0 55 -3.5t43 -6.5l14 -3l-22 -104q-41 14 -93 14q-61 0 -95.5 -35.5t-34.5 -96.5q0 -64 48 -104t144 -40h70v-104h-123q-178 0 -178 -111
q0 -48 40.5 -76.5t120.5 -28.5q34 0 71 3.5t58 6.5l20 4l7 -102q-81 -16 -172 -16z" />
    <glyph glyph-name="ain.fina" unicode="&#x639;" horiz-adv-x="629" arabic-form="final" 
d="M312 -255q-143 0 -213 49t-70 127q0 35 14.5 66t33 51t55 42.5t59.5 33.5t67 31q-41 39 -62.5 58t-60.5 43t-77 35l11 94q154 111 289 111q105 0 158 -46.5t53 -117.5q0 -108 -114 -186q61 -32 123 -32h66v-104h-81q-124 0 -222 74q-106 -52 -131 -70q-46 -33 -46 -70
q0 -86 163 -86q34 0 71.5 3t57.5 7l21 3l8 -100q-87 -16 -173 -16zM191 329q19 -7 36.5 -17.5t37.5 -26t32 -25.5t36 -31.5t32 -28.5q73 48 73 105q0 37 -24.5 60.5t-70.5 23.5q-62 0 -152 -60z" />
    <glyph glyph-name="ain.init" unicode="&#x639;" horiz-adv-x="549" arabic-form="initial" 
d="M0 0v104h153q-34 20 -56 60t-22 89q0 99 67.5 164.5t194.5 65.5q30 0 61 -4.5t47 -9.5l16 -5l-23 -105q-46 21 -104 21q-56 0 -91 -35t-35 -92q0 -67 56.5 -108t170.5 -41h78v-104h-513z" />
    <glyph glyph-name="ain.medi" unicode="&#x639;" horiz-adv-x="629" arabic-form="medial" 
d="M0 0v104h35q138 0 233 31q-4 4 -23 22t-25 23t-23 20.5t-25.5 21.5t-25 17.5t-28.5 17.5t-28 13t-32 11l11 94q154 111 289 111q105 0 158 -46.5t53 -117.5q0 -107 -102 -192q54 -26 111 -26h66v-104h-81q-113 0 -206 62q-139 -62 -330 -62h-27zM191 329
q24 -10 50.5 -27.5t44 -32t47 -40.5t43.5 -38q62 49 62 114q0 37 -24.5 60.5t-70.5 23.5q-62 0 -152 -60z" />
    <glyph glyph-name="ghain.isol" unicode="&#x63a;" horiz-adv-x="494" arabic-form="isolated" 
d="M289 -320q-141 0 -210.5 55.5t-69.5 148.5q0 68 39.5 115.5t113.5 65.5q-50 21 -81.5 68t-31.5 112q0 108 69.5 173t197.5 65q27 0 55 -3.5t43 -6.5l14 -3l-22 -104q-41 14 -93 14q-61 0 -95.5 -35.5t-34.5 -96.5q0 -64 48 -104t144 -40h70v-104h-123q-178 0 -178 -111
q0 -48 40.5 -76.5t120.5 -28.5q34 0 71 3.5t58 6.5l20 4l7 -102q-81 -16 -172 -16zM274 560q-29 0 -49 20t-20 49t20.5 49t48.5 20t48.5 -20t20.5 -49t-20.5 -49t-48.5 -20z" />
    <glyph glyph-name="ghain.fina" unicode="&#x63a;" horiz-adv-x="629" arabic-form="final" 
d="M312 -255q-143 0 -213 49t-70 127q0 35 14.5 66t33 51t55 42.5t59.5 33.5t67 31q-41 39 -62.5 58t-60.5 43t-77 35l11 94q154 111 289 111q105 0 158 -46.5t53 -117.5q0 -108 -114 -186q61 -32 123 -32h66v-104h-81q-124 0 -222 74q-106 -52 -131 -70q-46 -33 -46 -70
q0 -86 163 -86q34 0 71.5 3t57.5 7l21 3l8 -100q-87 -16 -173 -16zM191 329q19 -7 36.5 -17.5t37.5 -26t32 -25.5t36 -31.5t32 -28.5q73 48 73 105q0 37 -24.5 60.5t-70.5 23.5q-62 0 -152 -60zM342 560q-29 0 -49 20t-20 49t20.5 49t48.5 20t48.5 -20t20.5 -49t-20.5 -49
t-48.5 -20z" />
    <glyph glyph-name="ghain.init" unicode="&#x63a;" horiz-adv-x="549" arabic-form="initial" 
d="M0 0v104h153q-34 20 -56 60t-22 89q0 99 67.5 164.5t194.5 65.5q30 0 61 -4.5t47 -9.5l16 -5l-23 -105q-46 21 -104 21q-56 0 -91 -35t-35 -92q0 -67 56.5 -108t170.5 -41h78v-104h-513zM309 554q-29 0 -49 20t-20 49t20 49t49 20t49 -20t20 -49t-20 -49t-49 -20z" />
    <glyph glyph-name="ghain.medi" unicode="&#x63a;" horiz-adv-x="629" arabic-form="medial" 
d="M0 0v104h35q138 0 233 31q-4 4 -23 22t-25 23t-23 20.5t-25.5 21.5t-25 17.5t-28.5 17.5t-28 13t-32 11l11 94q154 111 289 111q105 0 158 -46.5t53 -117.5q0 -107 -102 -192q54 -26 111 -26h66v-104h-81q-113 0 -206 62q-139 -62 -330 -62h-27zM191 329
q24 -10 50.5 -27.5t44 -32t47 -40.5t43.5 -38q62 49 62 114q0 37 -24.5 60.5t-70.5 23.5q-62 0 -152 -60zM342 560q-29 0 -49 20t-20 49t20.5 49t48.5 20t48.5 -20t20.5 -49t-20.5 -49t-48.5 -20z" />
    <glyph glyph-name="feh.isol" unicode="&#x641;" horiz-adv-x="926" arabic-form="isolated" 
d="M643 558q-29 0 -49 20t-20 49t20 49t49 20t49 -20t20 -49t-20 -49t-49 -20zM885 250q0 -110 -71.5 -180t-183.5 -70h-213q-196 0 -281.5 76t-85.5 220q0 86 26 157l141 23q-34 -74 -34 -165q0 -107 53.5 -157t172.5 -50h33q-44 41 -44 130q0 109 70.5 179t183.5 70
q110 0 171.5 -58.5t61.5 -174.5zM752 243q0 136 -109 136q-47 0 -80 -34t-33 -100q0 -141 111 -141q49 0 80 36t31 103z" />
    <glyph glyph-name="feh.fina" unicode="&#x641;" horiz-adv-x="941" arabic-form="final" 
d="M956 104v-104h-539q-196 0 -281.5 76t-85.5 220q0 86 26 157l141 23q-34 -74 -34 -165q0 -107 53.5 -157t172.5 -50h33q-44 41 -44 130q0 109 70.5 179t183.5 70q110 0 171.5 -58.5t61.5 -174.5q0 -45 -15 -86.5t-43 -64.5q42 5 76 5h53zM752 243q0 136 -109 136
q-47 0 -80 -34t-33 -100q0 -141 111 -141q49 0 80 36t31 103zM643 558q-29 0 -49 20t-20 49t20 49t49 20t49 -20t20 -49t-20 -49t-49 -20z" />
    <glyph glyph-name="feh.init" unicode="&#x641;" horiz-adv-x="612" arabic-form="initial" 
d="M304 558q-29 0 -49 20t-20 49t20.5 49t48.5 20t48.5 -20t20.5 -49t-20.5 -49t-48.5 -20zM543 0h-543v104h57q16 0 30 -2t20 -4l6 -1q-56 41 -56 143t68 172.5t192 70.5q114 0 170 -60.5t56 -169.5v-253zM414 104v133q0 142 -107 142q-55 0 -87 -37.5t-32 -97.5
q0 -71 36.5 -105.5t113.5 -34.5h76z" />
    <glyph glyph-name="feh.medi" unicode="&#x641;" horiz-adv-x="600" arabic-form="medial" 
d="M302 558q-29 0 -49 20t-20 49t20.5 49t48.5 20t48.5 -20t20.5 -49t-20.5 -49t-48.5 -20zM0 0v104h42l61 -5q-46 48 -46 135q0 109 70.5 179t183.5 70q110 0 171.5 -58.5t61.5 -174.5q0 -45 -15 -86.5t-43 -64.5q42 5 76 5h53v-104h-615zM300 104q49 0 80 36t31 103
q0 136 -109 136q-47 0 -80 -34t-33 -100q0 -141 111 -141z" />
    <glyph glyph-name="qaf.isol" unicode="&#x642;" horiz-adv-x="884" arabic-form="isolated" 
d="M810 448v-687q-194 -11 -323 -11q-234 0 -337 74t-103 232q0 90 24 177l136 25q-28 -100 -28 -189q0 -118 71.5 -167t255.5 -49l175 6v141h-78q-267 0 -267 232q0 107 67 179t197 72q53 0 105.5 -8.5t78.5 -17.5zM681 104v257q-38 18 -94 18q-55 0 -87.5 -37.5
t-32.5 -97.5q0 -140 150 -140h64zM671 546q-28 0 -47 19.5t-19 48.5q0 28 19 48t47 20t47 -19.5t19 -48.5q0 -28 -19 -48t-47 -20zM505 546q-28 0 -47 19.5t-19 48.5q0 28 19 48t47 20t47.5 -19.5t19.5 -48.5q0 -28 -19.5 -48t-47.5 -20z" />
    <glyph glyph-name="qaf.fina" unicode="&#x642;" horiz-adv-x="893" arabic-form="final" 
d="M810 448v-344h98v-104h-98v-239q-194 -11 -323 -11q-234 0 -337 74t-103 232q0 90 24 177l136 25q-28 -100 -28 -189q0 -118 71.5 -167t255.5 -49l175 6v141h-78q-267 0 -267 232q0 107 67 179t197 72q53 0 105.5 -8.5t78.5 -17.5zM681 104v257q-38 18 -94 18
q-55 0 -87.5 -37.5t-32.5 -97.5q0 -140 150 -140h64zM505 546q-28 0 -47 19.5t-19 48.5q0 28 19 48t47 20t47.5 -19.5t19.5 -48.5q0 -28 -19.5 -48t-47.5 -20zM671 546q-28 0 -47 19.5t-19 48.5q0 28 19 48t47 20t47 -19.5t19 -48.5q0 -28 -19 -48t-47 -20z" />
    <glyph glyph-name="qaf.init" unicode="&#x642;" horiz-adv-x="612" arabic-form="initial" 
d="M387 546q-28 0 -47 19.5t-19 48.5q0 28 19 48t47 20t47 -19.5t19 -48.5q0 -28 -19 -48t-47 -20zM221 546q-28 0 -47 19.5t-19 48.5q0 28 19 48t47 20t47.5 -19.5t19.5 -48.5q0 -28 -19.5 -48t-47.5 -20zM543 0h-543v104h57q16 0 30 -2t20 -4l6 -1q-56 41 -56 143
t68 172.5t192 70.5q114 0 170 -60.5t56 -169.5v-253zM414 104v133q0 142 -107 142q-55 0 -87 -37.5t-32 -97.5q0 -71 36.5 -105.5t113.5 -34.5h76z" />
    <glyph glyph-name="qaf.medi" unicode="&#x642;" horiz-adv-x="600" arabic-form="medial" 
d="M386 546q-28 0 -47 19.5t-19 48.5q0 28 19 48t47 20t47 -19.5t19 -48.5q0 -28 -19 -48t-47 -20zM220 546q-28 0 -47 19.5t-19 48.5q0 28 19 48t47 20t47.5 -19.5t19.5 -48.5q0 -28 -19.5 -48t-47.5 -20zM0 0v104h42l61 -5q-46 48 -46 135q0 109 70.5 179t183.5 70
q110 0 171.5 -58.5t61.5 -174.5q0 -45 -15 -86.5t-43 -64.5q42 5 76 5h53v-104h-615zM300 104q49 0 80 36t31 103q0 136 -109 136q-47 0 -80 -34t-33 -100q0 -141 111 -141z" />
    <glyph glyph-name="kaf.isol" unicode="&#x643;" horiz-adv-x="857" arabic-form="isolated" 
d="M417 0q-196 0 -281.5 76t-85.5 220q0 86 26 157l141 23q-34 -74 -34 -165q0 -109 55.5 -158t192.5 -49h209v601h132v-705h-355zM302 412v75q37 0 56 -4q-19 9 -19 39q0 47 36 79.5t109 32.5q24 0 59 -5l-12 -75q-25 5 -50 5q-48 0 -48 -34q0 -38 69 -38h57v-75h-257z" />
    <glyph glyph-name="kaf.fina" unicode="&#x643;" horiz-adv-x="857" arabic-form="final" 
d="M417 0q-196 0 -281.5 76t-85.5 220q0 86 26 157l141 23q-34 -74 -34 -165q0 -109 55.5 -158t192.5 -49h209v601h132v-601h101v-104h-456zM302 412v75q37 0 56 -4q-19 9 -19 39q0 47 36 79.5t109 32.5q24 0 59 -5l-12 -75q-25 5 -50 5q-48 0 -48 -34q0 -38 69 -38h57v-75
h-257z" />
    <glyph glyph-name="kaf.init" unicode="&#x643;" horiz-adv-x="491" arabic-form="initial" 
d="M0 0v104h297q-4 116 -64.5 185t-180.5 97v97l396 248v-131l-244 -147q107 -48 164.5 -139.5t57.5 -246.5v-67h-426z" />
    <glyph glyph-name="kaf.medi" unicode="&#x643;" horiz-adv-x="491" arabic-form="medial" 
d="M0 0v104h297q-4 116 -64.5 185t-180.5 97v97l396 248v-131l-244 -147q101 -46 157.5 -129t63.5 -220h81v-104h-506z" />
    <glyph glyph-name="lam.isol" unicode="&#x644;" horiz-adv-x="652" arabic-form="isolated" 
d="M441 66v639h132v-629q0 -154 -69 -230t-199 -76q-258 0 -258 284q0 92 24 179l136 25q-28 -100 -28 -192q0 -193 137 -193q125 0 125 193z" />
    <glyph glyph-name="lam.fina" unicode="&#x644;" horiz-adv-x="652" arabic-form="final" 
d="M441 66v639h132v-601h95v-104h-100q-32 -230 -263 -230q-258 0 -258 284q0 92 24 179l136 25q-28 -100 -28 -192q0 -193 137 -193q125 0 125 193z" />
    <glyph glyph-name="lam.init" unicode="&#x644;" horiz-adv-x="341" arabic-form="initial" 
d="M0 0v104h124v601h132v-705h-256z" />
    <glyph glyph-name="lam.medi" unicode="&#x644;" horiz-adv-x="341" arabic-form="medial" 
d="M0 0v104h124v601h132v-601h101v-104h-357z" />
    <glyph glyph-name="meem.isol" unicode="&#x645;" horiz-adv-x="806" arabic-form="isolated" 
d="M737 0h-219q-246 0 -267 194h-20q-43 0 -56.5 -28.5t-2.5 -98.5l52 -327h-127l-51 317q-17 112 28.5 176.5t160.5 64.5h22q20 83 85 134t169 51q114 0 170 -60.5t56 -169.5v-253zM608 104v133q0 142 -107 142q-55 0 -87 -37.5t-32 -97.5q0 -71 36.5 -105.5t113.5 -34.5
h76z" />
    <glyph glyph-name="meem.fina" unicode="&#x645;" horiz-adv-x="806" arabic-form="final" 
d="M518 0q-246 0 -267 194h-20q-43 0 -56.5 -28.5t-2.5 -98.5l52 -327h-127l-51 317q-17 112 28.5 176.5t160.5 64.5h22q20 83 85 134t169 51q114 0 170 -60.5t56 -169.5v-149h84v-104h-303zM608 104v133q0 142 -107 142q-55 0 -87 -37.5t-32 -97.5q0 -71 36.5 -105.5
t113.5 -34.5h76z" />
    <glyph glyph-name="meem.init" unicode="&#x645;" horiz-adv-x="650" arabic-form="initial" 
d="M581 0h-228q-159 0 -206 77q-37 -77 -132 -77h-15v104h20q38 0 56.5 27t18.5 93q0 112 67 185.5t188 73.5q117 0 174 -62.5t57 -175.5v-245zM452 104v126q0 149 -111 149q-54 0 -85 -39t-31 -104q0 -68 32.5 -100t108.5 -32h86z" />
    <glyph glyph-name="meem.medi" unicode="&#x645;" horiz-adv-x="650" arabic-form="medial" 
d="M353 0q-159 0 -206 77q-37 -77 -132 -77h-15v104h20q38 0 56.5 27t18.5 93q0 112 67 185.5t188 73.5q117 0 174 -62.5t57 -175.5v-141h85v-104h-313zM452 104v126q0 149 -111 149q-54 0 -85 -39t-31 -104q0 -68 32.5 -100t108.5 -32h86z" />
    <glyph glyph-name="noon.isol" unicode="&#x646;" horiz-adv-x="667" arabic-form="isolated" 
d="M593 470v-399q0 -301 -282 -301q-125 0 -194.5 69.5t-69.5 214.5q0 92 24 179l136 25q-28 -100 -28 -192q0 -105 40.5 -149t101.5 -44q69 0 104.5 43.5t35.5 146.5v407h132zM311 345q-29 0 -49 20t-20 49q0 28 20 48.5t49 20.5t49 -20.5t20 -48.5t-20 -48.5t-49 -20.5z
" />
    <glyph glyph-name="noon.fina" unicode="&#x646;" horiz-adv-x="677" arabic-form="final" 
d="M593 470v-366h99v-104h-104q-30 -230 -277 -230q-125 0 -194.5 69.5t-69.5 214.5q0 92 24 179l136 25q-28 -100 -28 -192q0 -105 40.5 -149t101.5 -44q69 0 104.5 43.5t35.5 146.5v407h132zM311 345q-29 0 -49 20t-20 49q0 28 20 48.5t49 20.5t49 -20.5t20 -48.5
t-20 -48.5t-49 -20.5z" />
    <glyph glyph-name="noon.init" unicode="&#x646;" horiz-adv-x="346" arabic-form="initial" 
d="M0 0v104h140v366h132v-470h-272zM206 554q-29 0 -49 20t-20 49t20.5 49t48.5 20t48.5 -20t20.5 -49t-20.5 -49t-48.5 -20z" />
    <glyph glyph-name="noon.medi" unicode="&#x646;" horiz-adv-x="355" arabic-form="medial" 
d="M0 0v104h140v366h132v-366h98v-104h-370zM206 554q-29 0 -49 20t-20 49t20.5 49t48.5 20t48.5 -20t20.5 -49t-20.5 -49t-48.5 -20z" />
    <glyph glyph-name="heh.isol" unicode="&#x647;" horiz-adv-x="594" arabic-form="isolated" 
d="M525 0h-219q-268 0 -268 231q0 108 68 180t193 72q114 0 170 -60.5t56 -169.5v-253zM396 104v133q0 142 -107 142q-55 0 -87 -37.5t-32 -97.5q0 -71 36.5 -105.5t113.5 -34.5h76z" />
    <glyph glyph-name="heh.fina" unicode="&#x647;" horiz-adv-x="595" arabic-form="final" 
d="M610 0h-304q-268 0 -268 232q0 107 67.5 179t197.5 72q52 0 104.5 -8.5t78.5 -17.5l26 -9v-344h98v-104zM384 104v257q-38 18 -95 18q-55 0 -87 -37.5t-32 -97.5q0 -140 150 -140h64z" />
    <glyph glyph-name="heh.init" unicode="&#x647;" horiz-adv-x="766" arabic-form="initial" 
d="M707 0h-707v104h85l45 -5q-26 26 -26 67q0 74 50.5 121.5t138.5 47.5q93 0 138 -56t45 -149v-26h105v12q0 157 -67.5 232.5t-215.5 75.5q-101 0 -214 -37l-12 93q120 39 242 39q193 0 293 -99t100 -313v-107zM369 100v31q0 55 -21.5 88t-63.5 33q-33 0 -52.5 -20.5
t-19.5 -51.5q0 -38 26.5 -59t67.5 -21h63z" />
    <glyph glyph-name="heh.medi" unicode="&#x647;" horiz-adv-x="766" arabic-form="medial" 
d="M782 0h-782v104h85l45 -5q-26 26 -26 67q0 74 50.5 121.5t138.5 47.5q93 0 138 -56t45 -149v-26h105v12q0 157 -67.5 232.5t-215.5 75.5q-101 0 -214 -37l-12 93q120 39 242 39q193 0 293 -99t100 -313v-3h75v-104zM369 100v31q0 55 -21.5 88t-63.5 33q-33 0 -52.5 -20.5
t-19.5 -51.5q0 -38 26.5 -59t67.5 -21h63z" />
    <glyph glyph-name="waw.isol" unicode="&#x648;" horiz-adv-x="586" arabic-form="isolated" 
d="M199 -252q-33 0 -71 3t-60 7l-21 3l8 108q78 -17 156 -17q173 0 173 133v15h-78q-268 0 -268 232q0 107 67.5 179t197.5 72q52 0 104.5 -8.5t78.5 -17.5l26 -9v-450q0 -111 -77 -180.5t-236 -69.5zM384 104v257q-38 18 -95 18q-55 0 -87 -37.5t-32 -97.5q0 -140 150 -140
h64z" />
    <glyph glyph-name="waw.fina" unicode="&#x648;" horiz-adv-x="595" arabic-form="final" 
d="M199 -252q-33 0 -71 3t-60 7l-21 3l8 108q78 -17 156 -17q173 0 173 133v15h-78q-268 0 -268 232q0 107 67.5 179t197.5 72q52 0 104.5 -8.5t78.5 -17.5l26 -9v-344h99v-104h-99v-2q0 -111 -77 -180.5t-236 -69.5zM384 104v257q-38 18 -95 18q-55 0 -87 -37.5t-32 -97.5
q0 -140 150 -140h64z" />
    <glyph glyph-name="alefmaksura.isol" unicode="&#x649;" horiz-adv-x="1000" arabic-form="isolated" 
d="M626 0h-209q-196 0 -281.5 76t-85.5 220q0 86 26 157l141 23q-34 -74 -34 -165q0 -109 55.5 -158t192.5 -49h68v360q93 19 201 19q126 0 178.5 -56t52.5 -165v-126h-128v112q0 72 -24.5 101.5t-86.5 29.5l-66 -6v-373z" />
    <glyph glyph-name="alefmaksura.fina" unicode="&#x649;" horiz-adv-x="1000" arabic-form="final" 
d="M626 0h-209q-196 0 -281.5 76t-85.5 220q0 86 26 157l141 23q-34 -74 -34 -165q0 -109 55.5 -158t192.5 -49h68v360q93 19 201 19q126 0 178.5 -56t52.5 -165v-158h84v-104h-212v248q0 72 -24.5 101.5t-86.5 29.5l-66 -6v-373z" />
    <glyph glyph-name="yeh.isol" unicode="&#x64a;" horiz-adv-x="1000" arabic-form="isolated" 
d="M626 0h-209q-196 0 -281.5 76t-85.5 220q0 86 26 157l141 23q-34 -74 -34 -165q0 -109 55.5 -158t192.5 -49h68v360q93 19 201 19q126 0 178.5 -56t52.5 -165v-126h-128v112q0 72 -24.5 101.5t-86.5 29.5l-66 -6v-373zM541 -150q0 -28 -19 -48t-47 -20t-47 19.5t-19 48.5
q0 28 19 48t47 20t47 -19.5t19 -48.5zM376 -150q0 -28 -19.5 -48t-47.5 -20t-47 19.5t-19 48.5q0 28 19 48t47 20t47.5 -19.5t19.5 -48.5z" />
    <glyph glyph-name="yeh.fina" unicode="&#x64a;" horiz-adv-x="1000" arabic-form="final" 
d="M626 0h-209q-196 0 -281.5 76t-85.5 220q0 86 26 157l141 23q-34 -74 -34 -165q0 -109 55.5 -158t192.5 -49h68v360q93 19 201 19q126 0 178.5 -56t52.5 -165v-158h84v-104h-212v248q0 72 -24.5 101.5t-86.5 29.5l-66 -6v-373zM541 -150q0 -28 -19 -48t-47 -20t-47 19.5
t-19 48.5q0 28 19 48t47 20t47 -19.5t19 -48.5zM376 -150q0 -28 -19.5 -48t-47.5 -20t-47 19.5t-19 48.5q0 28 19 48t47 20t47.5 -19.5t19.5 -48.5z" />
    <glyph glyph-name="yeh.init" unicode="&#x64a;" horiz-adv-x="394" arabic-form="initial" 
d="M317 -150q0 -28 -19 -48t-47 -20t-47 19.5t-19 48.5q0 28 19 48t47 20t47 -19.5t19 -48.5zM152 -150q0 -28 -19.5 -48t-47.5 -20t-47 19.5t-19 48.5q0 28 19 48t47 20t47.5 -19.5t19.5 -48.5zM0 0v104h188v366h132v-470h-320z" />
    <glyph glyph-name="yeh.medi" unicode="&#x64a;" horiz-adv-x="403" arabic-form="medial" 
d="M0 0v104h188v366h132v-366h99v-104h-419zM152 -150q0 -28 -19.5 -48t-47.5 -20t-47 19.5t-19 48.5q0 28 19 48t47 20t47.5 -19.5t19.5 -48.5zM317 -150q0 -28 -19 -48t-47 -20t-47 19.5t-19 48.5q0 28 19 48t47 20t47 -19.5t19 -48.5z" />
    <glyph glyph-name=".notdef" 
d="M300 150h-150v250h50v-200h100v-50zM500 50h-450v450h450v-450zM350 350h-100v50h150v-250h-50v100h-100v50h100v50zM100 100h350v350h-350v-350z" />
    <glyph glyph-name=".null" horiz-adv-x="0" 
 />
    <glyph glyph-name=".null" horiz-adv-x="0" 
 />
    <glyph glyph-name="nonmarkingreturn" horiz-adv-x="333" 
 />
    <glyph glyph-name="space" unicode=" " horiz-adv-x="244" 
 />
    <glyph glyph-name="exclam" unicode="!" horiz-adv-x="321" 
d="M244 708l-19 -520h-110l-21 520h150zM247 65q0 -32 -22.5 -54t-56.5 -22q-33 0 -55.5 22t-22.5 54t22.5 54t55.5 22q34 0 56.5 -22t22.5 -54z" />
    <glyph glyph-name="quotedbl" unicode="&#x22;" horiz-adv-x="405" 
d="M361 702l-17 -254h-95l-16 254h128zM172 702l-16 -254h-96l-16 254h128z" />
    <glyph glyph-name="numbersign" unicode="#" horiz-adv-x="583" 
d="M555 411h-88l-15 -143h80v-90h-90l-18 -178h-102l19 178h-132l-19 -178h-102l19 178h-79v90h88l16 143h-80v89h89l18 175h102l-19 -175h132l19 175h102l-19 -175h79v-89zM365 411h-131l-16 -143h132z" />
    <glyph glyph-name="dollar" unicode="$" horiz-adv-x="494" 
d="M448 185q0 -69 -44.5 -120.5t-120.5 -68.5v-122h-92v115q-55 1 -121 13l9 116q59 -21 127 -21q107 0 107 75q0 30 -27.5 50t-66.5 34t-78.5 32.5t-67 57.5t-27.5 96q0 67 43.5 115t114.5 62v101h91v-94q54 -2 102 -12l-8 -109q-62 17 -111 17q-51 0 -75.5 -18.5
t-24.5 -48.5q0 -28 28 -47.5t67.5 -34.5t79 -34t67.5 -58t28 -96z" />
    <glyph glyph-name="percent" unicode="%" horiz-adv-x="760" 
d="M722 154q0 -73 -45 -119t-112 -46q-72 0 -110 41t-38 115q0 71 44.5 117t111.5 46q70 0 109.5 -39t39.5 -115zM669 638l-501 -660l-80 57l501 661zM343 534q0 -73 -44.5 -119.5t-112.5 -46.5q-72 0 -110 41.5t-38 114.5q0 71 45 117t112 46q70 0 109 -39t39 -114z
M625 148q0 79 -55 79q-25 0 -40.5 -20.5t-15.5 -56.5q0 -81 57 -81q23 0 38.5 21.5t15.5 57.5zM247 527q0 43 -13.5 61.5t-42.5 18.5q-24 0 -39.5 -21t-15.5 -57q0 -81 56 -81q24 0 39.5 21t15.5 58z" />
    <glyph glyph-name="ampersand" unicode="&#x26;" horiz-adv-x="797" 
d="M755 74l-84 -97q-86 60 -137 100q-110 -88 -260 -88q-111 0 -169 56t-58 142q0 61 32.5 110.5t94.5 97.5q-46 55 -65.5 95t-19.5 83q0 70 53 117.5t146 47.5q85 0 131.5 -40t46.5 -107q0 -100 -119 -193q85 -85 181 -160v-1q65 99 60 221h127q3 -165 -91 -290
q80 -60 131 -94zM340 582q0 26 -15.5 43t-46.5 17q-28 0 -45.5 -17.5t-17.5 -44.5q0 -44 57 -110q68 58 68 112zM440 147q-109 88 -191 172q-69 -59 -69 -116q0 -43 31.5 -74t84.5 -31q79 0 144 49z" />
    <glyph glyph-name="quotesingle" unicode="'" horiz-adv-x="216" 
d="M172 702l-16 -254h-96l-16 254h128z" />
    <glyph glyph-name="parenleft" unicode="(" horiz-adv-x="306" 
d="M297 -170l-97 -45q-148 233 -148 500q0 269 149 502l93 -43q-116 -207 -116 -454q0 -254 119 -460z" />
    <glyph glyph-name="parenright" unicode=")" horiz-adv-x="306" 
d="M256 288q0 -270 -149 -503l-93 43q117 206 117 455q0 250 -118 460l97 44q146 -234 146 -499z" />
    <glyph glyph-name="asterisk" unicode="*" horiz-adv-x="384" 
d="M350 531l-45 -78l-85 68l16 -108h-91l16 108l-86 -68l-44 78l101 40l-101 40l45 79l85 -68l-16 108h91l-16 -108l85 68l45 -78l-101 -40z" />
    <glyph glyph-name="plus" unicode="+" 
d="M511 244h-176v-186h-121v186h-175v107h175v185h121v-185h176v-107z" />
    <glyph glyph-name="comma" unicode="," horiz-adv-x="258" 
d="M128 149q51 0 72 -50q29 -69 -26 -162q-33 -57 -94 -110l-53 47q50 53 58.5 90.5t-17.5 63.5q-29 33 -10 77t70 44z" />
    <glyph glyph-name="glyph296" unicode="-" horiz-adv-x="334" 
d="M290 226h-246v103h246v-103z" />
    <glyph glyph-name="period" unicode="." horiz-adv-x="258" 
d="M211 71q0 -34 -24 -58t-58 -24t-58 24t-24 58q0 33 24 57t58 24t58 -24t24 -57z" />
    <glyph glyph-name="slash" unicode="/" horiz-adv-x="463" 
d="M465 757l-350 -918h-126l350 918h126z" />
    <glyph glyph-name="zero" unicode="0" horiz-adv-x="589" 
d="M553 345q0 -171 -76.5 -262.5t-190.5 -91.5q-250 0 -250 339q0 171 76.5 262.5t190.5 91.5q250 0 250 -339zM417 336q0 125 -30 183t-91 58q-124 0 -124 -239q0 -125 30 -182.5t91 -57.5q124 0 124 238z" />
    <glyph glyph-name="one" unicode="1" horiz-adv-x="359" 
d="M286 0h-132v542l-116 -46l-19 122l166 57h101v-675z" />
    <glyph glyph-name="two" unicode="2" horiz-adv-x="498" 
d="M458 0h-408v108l101 114q83 90 114 148t31 104q0 42 -25 68t-72 26q-62 0 -125 -38l-19 116q80 39 179 39t151.5 -53t52.5 -136q0 -132 -159 -306l-60 -70v-1q70 4 239 4v-123z" />
    <glyph glyph-name="three" unicode="3" horiz-adv-x="473" 
d="M429 210q0 -98 -76.5 -159t-197.5 -61q-67 0 -113 13l14 112q38 -14 102 -14q62 0 97.5 28t35.5 73q0 43 -35.5 69t-107.5 26q-38 0 -70 -5v103q193 -5 193 102q0 37 -24 58.5t-71 21.5q-53 0 -111 -28l-10 107q72 29 155 29q94 0 145 -45t51 -117q0 -54 -29 -94.5
t-79 -58.5l-1 -2q61 -15 96.5 -57.5t35.5 -100.5z" />
    <glyph glyph-name="four" unicode="4" horiz-adv-x="554" 
d="M536 148h-101v-148h-126v148h-283l-9 102l246 425h172v-410h101v-117zM311 263v295h-1l-172 -297q44 2 173 2z" />
    <glyph glyph-name="five" unicode="5" horiz-adv-x="461" 
d="M429 229q0 -107 -80 -172t-206 -65q-55 0 -100 10l13 114q36 -13 94 -13q67 0 105.5 31t38.5 82q0 102 -165 102q-39 0 -64 -4v361h333v-122l-213 1v-134q117 1 180.5 -49.5t63.5 -141.5z" />
    <glyph glyph-name="six" unicode="6" horiz-adv-x="578" 
d="M541 231q0 -108 -70.5 -175t-183.5 -67q-118 0 -176.5 83t-58.5 211q0 194 97.5 297.5t250.5 103.5q54 0 79 -4v-115q-36 9 -81 9q-160 0 -202 -162q-6 -26 -8 -34l1 -1q55 55 145 55q96 0 151.5 -55t55.5 -146zM406 213q0 53 -27 83t-78 30q-49 0 -79 -30.5t-30 -74.5
q0 -57 28 -90t78 -33q49 0 78.5 32t29.5 83z" />
    <glyph glyph-name="seven" unicode="7" horiz-adv-x="459" 
d="M435 565q-117 -259 -180 -565h-143q30 139 82 296t97 256q-76 -2 -269 -2v125h413v-110z" />
    <glyph glyph-name="eight" unicode="8" horiz-adv-x="557" 
d="M514 183q0 -93 -71 -144t-176 -51t-165 48.5t-60 129.5q0 98 122 174q-111 63 -111 158q0 87 66 139t169 52q95 0 153.5 -47t58.5 -119q0 -52 -30.5 -91t-84.5 -76q129 -72 129 -173zM369 512q0 31 -23.5 52.5t-67.5 21.5q-45 0 -70 -20.5t-25 -54.5q0 -31 24 -54.5
t74 -49.5q46 29 67 53t21 52zM380 174q0 36 -28.5 61t-84.5 54q-45 -29 -68 -53.5t-23 -57.5q0 -39 27.5 -61.5t75.5 -22.5q44 0 72.5 21.5t28.5 58.5z" />
    <glyph glyph-name="nine" unicode="9" horiz-adv-x="581" 
d="M530 393q0 -194 -90.5 -298.5t-263.5 -104.5q-51 0 -90 7v116q44 -13 100 -13q148 0 186 143q3 10 7.5 26.5t5.5 21.5l-1 1q-45 -56 -139 -56q-93 0 -148 56t-55 151q0 105 69.5 174t177.5 69q84 0 139.5 -42t78.5 -105.5t23 -145.5zM386 451q0 59 -28 92t-76 33
t-77.5 -32t-29.5 -84q0 -51 27 -81.5t77 -30.5q47 0 77 32t30 71z" />
    <glyph glyph-name="colon" unicode=":" horiz-adv-x="298" 
d="M242 354q0 -34 -23.5 -58t-57.5 -24t-58 24t-24 58q0 33 24 57t58 24t57.5 -24t23.5 -57zM242 71q0 -34 -23.5 -58t-57.5 -24t-58 24t-24 58q0 33 24 57t58 24t57.5 -24t23.5 -57z" />
    <glyph glyph-name="glyph277" unicode=";" horiz-adv-x="298" 
d="M242 354q0 -34 -23.5 -58t-57.5 -24t-58 24t-24 58q0 33 24 57t58 24t57.5 -24t23.5 -57zM160 149q49 0 72.5 -45t-4.5 -123t-115 -154l-53 47q49 53 57.5 90.5t-16.5 63.5q-29 33 -10 77t69 44z" />
    <glyph glyph-name="less" unicode="&#x3c;" 
d="M466 93l-84 -87l-319 295l318 294l84 -84l-237 -209z" />
    <glyph glyph-name="equal" unicode="=" 
d="M497 341h-444v103h444v-103zM497 150h-444v103h444v-103z" />
    <glyph glyph-name="greater" unicode="&#x3e;" 
d="M487 300l-318 -294l-84 84l237 209l-238 209l84 87z" />
    <glyph glyph-name="question" unicode="?" horiz-adv-x="451" 
d="M404 512q0 -39 -14.5 -71t-35 -52t-43.5 -42t-39.5 -41t-23 -50t5.5 -68h-125q-16 45 -12 81.5t19 60.5t36.5 46.5t42 39t35 38.5t14.5 45q0 45 -52.5 72t-144.5 30l16 116q156 -4 238.5 -62.5t82.5 -142.5zM271 65q0 -32 -22.5 -54t-55.5 -22t-55.5 22t-22.5 54t22.5 54
t55.5 22t55.5 -22t22.5 -54z" />
    <glyph glyph-name="at" unicode="@" horiz-adv-x="970" 
d="M881 413q0 -135 -67 -209t-174 -74q-53 0 -80 27t-25 69h-3q-18 -37 -56.5 -66.5t-84.5 -29.5q-48 0 -74.5 36.5t-26.5 106.5q0 118 59.5 192.5t174.5 74.5q69 0 122 -20l-35 -198q-9 -49 2 -70.5t42 -21.5q50 0 80.5 44t30.5 133q0 97 -61 162t-189 65q-136 0 -228 -95
t-92 -246q0 -129 71 -199.5t213 -70.5q88 0 175 29l19 -100q-102 -34 -210 -34q-185 0 -284.5 97t-99.5 265q0 197 128 326.5t315 129.5q171 0 264.5 -91.5t93.5 -231.5zM538 449q-20 6 -44 6q-48 0 -76.5 -52t-28.5 -109q0 -65 32 -65q30 0 60.5 45t47.5 131z" />
    <glyph glyph-name="A" unicode="A" horiz-adv-x="626" 
d="M625 0h-144l-46 138h-256l-47 -138h-131l233 675h153zM402 241l-69 201q-18 53 -27 93h-1q-16 -60 -26 -93l-69 -201h192z" />
    <glyph glyph-name="B" unicode="B" horiz-adv-x="580" 
d="M539 208q0 -88 -67 -149t-205 -61q-17 0 -83 1t-114 1v674q95 5 224 5q109 0 167.5 -43t58.5 -124q0 -51 -27 -91.5t-75 -59.5v-2q54 -11 87.5 -53t33.5 -98zM382 491q0 84 -109 84q-31 0 -73 -2v-177q16 -1 53 -1q129 0 129 96zM400 204q0 94 -143 94q-43 0 -57 -1v-191
q48 -3 72 -3q62 0 95 27.5t33 73.5z" />
    <glyph glyph-name="C" unicode="C" horiz-adv-x="566" 
d="M526 23q-82 -31 -176 -31q-85 0 -147.5 26.5t-97.5 73t-51 102.5t-16 122q0 166 86.5 265.5t251.5 99.5q76 0 144 -20l-18 -120q-62 24 -132 24q-92 0 -140.5 -62t-48.5 -165q0 -228 197 -228q70 0 128 28z" />
    <glyph glyph-name="D" unicode="D" horiz-adv-x="667" 
d="M630 349q0 -169 -101.5 -261t-270.5 -92q-46 0 -188 5v673q132 5 218 5q342 0 342 -330zM490 339q0 113 -49.5 172t-161.5 59q-47 0 -79 -3v-455q30 -5 71 -5q100 0 159.5 58t59.5 174z" />
    <glyph glyph-name="E" unicode="E" horiz-adv-x="493" 
d="M437 0h-367v675h367v-109h-237v-166h225v-106h-225v-182h237v-112z" />
    <glyph glyph-name="F" unicode="F" horiz-adv-x="465" 
d="M431 564h-231v-173h218v-107h-218v-284h-130v675h361v-111z" />
    <glyph glyph-name="G" unicode="G" horiz-adv-x="675" 
d="M608 32q-104 -42 -231 -42q-164 0 -252.5 87t-88.5 240q0 168 98 268t277 100q99 0 191 -29l-26 -119q-78 32 -173 32q-114 0 -170 -66t-56 -169q0 -108 55.5 -167.5t159.5 -59.5q47 0 86 12v235h130v-322z" />
    <glyph glyph-name="H" unicode="H" horiz-adv-x="686" 
d="M617 0h-131v293h-286v-293h-130v675h130v-270h286v270h131v-675z" />
    <glyph glyph-name="I" unicode="I" horiz-adv-x="270" 
d="M200 0h-130v675h130v-675z" />
    <glyph glyph-name="J" unicode="J" horiz-adv-x="335" 
d="M266 189q0 -198 -182 -198q-38 0 -84 8v112q27 -10 62 -10q38 0 56 20.5t18 72.5v481h130v-486z" />
    <glyph glyph-name="K" unicode="K" horiz-adv-x="597" 
d="M588 0h-171l-217 324v-324h-130v675h130v-306l218 306h160l-248 -326z" />
    <glyph glyph-name="L" unicode="L" horiz-adv-x="429" 
d="M419 0h-349v675h130v-561h219v-114z" />
    <glyph glyph-name="M" unicode="M" horiz-adv-x="881" 
d="M850 0h-135l-49 326q-11 73 -21 169h-2q-20 -96 -38 -154l-109 -341h-126l-104 317q-28 91 -44 178h-2q-8 -95 -18 -180l-39 -315h-131l103 675h153l114 -349q22 -73 37 -142h2q21 90 37 140l115 351h152z" />
    <glyph glyph-name="N" unicode="N" horiz-adv-x="699" 
d="M629 0h-172l-209 372q-43 84 -60 132q7 -103 7 -321v-183h-125v675h172l204 -363q34 -60 65 -135q-7 119 -7 328v170h125v-675z" />
    <glyph glyph-name="O" unicode="O" horiz-adv-x="703" 
d="M670 348q0 -163 -95 -261t-235 -98q-151 0 -229 89.5t-78 248.5q0 163 95 261t235 98q151 0 229 -89.5t78 -248.5zM531 333q0 110 -45 173t-134 63q-79 0 -129.5 -60t-50.5 -166q0 -111 45 -173.5t134 -62.5q79 0 129.5 60t50.5 166z" />
    <glyph glyph-name="P" unicode="P" horiz-adv-x="538" 
d="M515 471q0 -106 -70.5 -173t-197.5 -67l-47 2v-233h-130v675q93 4 189 4q124 0 190 -54t66 -154zM380 458q0 114 -130 114l-50 -1v-227q25 -5 55 -5q61 0 93 31.5t32 87.5z" />
    <glyph glyph-name="Q" unicode="Q" horiz-adv-x="703" 
d="M702 -66q-58 -9 -106.5 -2t-75 20t-67.5 25t-84 12h-29q-151 0 -229 89.5t-78 248.5q0 163 95 261t235 98q151 0 229 -89.5t78 -248.5q0 -101 -37 -175.5t-102 -107.5q19 0 71.5 -13t99.5 -7v-111zM531 333q0 110 -45 173t-134 63q-79 0 -129.5 -60t-50.5 -166
q0 -111 45 -173.5t134 -62.5q78 0 129 60t51 166z" />
    <glyph glyph-name="R" unicode="R" horiz-adv-x="567" 
d="M554 0h-161l-182 279h-11v-279h-130v675q71 4 194 4q245 0 245 -190q0 -73 -47 -124.5t-119 -63.5q38 -50 54 -74zM373 476q0 97 -122 97q-31 0 -51 -3v-195q18 -2 47 -2q58 0 92 28t34 75z" />
    <glyph glyph-name="S" unicode="S" horiz-adv-x="503" 
d="M467 207q0 -95 -72.5 -156.5t-188.5 -61.5q-88 0 -156 18l14 125q69 -29 147 -29q50 0 81.5 21.5t31.5 66.5q0 35 -29.5 57.5t-71 37.5t-83 34.5t-71 60t-29.5 102.5q0 92 67.5 147.5t187.5 55.5q60 0 122 -13l-12 -114q-59 19 -116 19q-55 0 -83 -22t-28 -59
q0 -33 30 -55t72 -38t84.5 -36t72.5 -61t30 -100z" />
    <glyph glyph-name="T" unicode="T" horiz-adv-x="510" 
d="M495 564h-175v-564h-130v564h-175v111h480v-111z" />
    <glyph glyph-name="U" unicode="U" horiz-adv-x="681" 
d="M611 262q0 -137 -72 -205t-208 -68q-77 0 -130 19.5t-80.5 55.5t-39 76.5t-11.5 93.5v441h130v-433q0 -70 30.5 -107.5t109.5 -37.5q76 0 109 36t33 121v421h129v-413z" />
    <glyph glyph-name="V" unicode="V" horiz-adv-x="628" 
d="M625 675l-237 -675h-150l-235 675h142l131 -395q26 -77 39 -130h2q15 60 41 138l133 387h134z" />
    <glyph glyph-name="W" unicode="W" horiz-adv-x="951" 
d="M927 675l-172 -675h-160l-98 372q-13 52 -26 139h-1q-7 -70 -25 -136l-98 -375h-151l-172 675h139l92 -373q15 -61 25 -137h1q12 80 26 133l103 377h138l104 -375q19 -72 27 -131h1q11 72 25 129l92 377h130z" />
    <glyph glyph-name="X" unicode="X" horiz-adv-x="628" 
d="M618 0h-164l-145 248l-145 -248h-154l215 345l-202 330h151l137 -234l136 234h148l-199 -329z" />
    <glyph glyph-name="Y" unicode="Y" horiz-adv-x="561" 
d="M559 675l-215 -436v-239h-130v238l-211 437h142l89 -194q25 -56 46 -112h2q14 39 54 125l85 181h138z" />
    <glyph glyph-name="Z" unicode="Z" horiz-adv-x="537" 
d="M493 0h-448v100l243 396q28 43 44 64q-48 -2 -123 -2h-156v117h436v-105l-257 -405q-21 -34 -31 -47q17 2 146 2h146v-120z" />
    <glyph glyph-name="bracketleft" unicode="[" horiz-adv-x="328" 
d="M292 -205h-221v982h221v-101h-101v-778h101v-103z" />
    <glyph glyph-name="backslash" unicode="\" horiz-adv-x="479" 
d="M483 -161h-126l-350 918h126z" />
    <glyph glyph-name="bracketright" unicode="]" horiz-adv-x="328" 
d="M256 -205h-220v103h100v778h-100v101h220v-982z" />
    <glyph glyph-name="asciicircum" unicode="^" 
d="M488 383l-92 -46l-131 247l-125 -247l-85 45l164 293h98z" />
    <glyph glyph-name="underscore" unicode="_" 
d="M550 -246h-550v103h550v-103z" />
    <glyph glyph-name="grave" unicode="`" horiz-adv-x="374" 
d="M296 629l-48 -69l-181 108l59 86z" />
    <glyph glyph-name="a" unicode="a" horiz-adv-x="524" 
d="M457 0h-122q0 52 5 84l-1 1q-18 -43 -61 -69t-98 -26q-66 0 -104 40t-38 102q0 86 76 129.5t211 43.5v18q0 46 -20 66.5t-69 20.5q-71 0 -150 -34l-21 98q85 34 188 34q111 0 155.5 -43.5t44.5 -131.5v-205q0 -73 4 -128zM325 208v13q-164 0 -164 -75q0 -25 16.5 -41.5
t43.5 -16.5q45 0 74.5 36.5t29.5 83.5z" />
    <glyph glyph-name="b" unicode="b" horiz-adv-x="559" 
d="M523 274q0 -128 -71.5 -206t-197.5 -78q-100 0 -185 24v716h128v-214q0 -55 -8 -97h1q19 41 59 64.5t91 23.5q89 0 136 -61t47 -172zM389 261q0 140 -85 140q-48 0 -77.5 -47.5t-29.5 -112.5v-140q27 -9 67 -9q125 0 125 169z" />
    <glyph glyph-name="c" unicode="c" horiz-adv-x="425" 
d="M398 14q-60 -23 -140 -23q-107 0 -165.5 59t-58.5 182q0 122 64.5 198t188.5 76q60 0 109 -17l-20 -110q-47 19 -93 19q-56 0 -85.5 -41t-29.5 -112q0 -144 116 -144q52 0 97 20z" />
    <glyph glyph-name="d" unicode="d" horiz-adv-x="558" 
d="M488 0h-119q0 42 6 83h-2q-20 -43 -61 -68.5t-96 -25.5q-89 0 -135 62t-46 171q0 128 70.5 206t192.5 78q34 0 63 -4v228h127v-730zM361 258v139q-37 8 -67 8q-125 0 -125 -169q0 -141 85 -141q48 0 77.5 48t29.5 115z" />
    <glyph glyph-name="e" unicode="e" horiz-adv-x="514" 
d="M476 296q0 -44 -5 -72h-307q0 -134 137 -134q72 0 144 29l14 -97q-86 -32 -180 -32q-245 0 -245 254q0 115 63.5 189t172.5 74q104 0 155 -58.5t51 -152.5zM349 309q1 50 -22 77t-64 27q-40 0 -66.5 -28t-31.5 -76h184z" />
    <glyph glyph-name="f" unicode="f" horiz-adv-x="354" 
d="M374 730l-9 -105q-26 9 -62 9q-42 0 -61.5 -23t-19.5 -72v-42h116v-99h-116v-398h-127v398h-87v99h87v41q0 101 48.5 150.5t149.5 49.5q46 0 81 -8z" />
    <glyph glyph-name="g" unicode="g" horiz-adv-x="545" 
d="M520 -53q0 -83 -76 -140.5t-197 -57.5q-100 0 -156.5 38t-56.5 110q0 37 22.5 71t54.5 51q-49 23 -49 76q0 29 16.5 53.5t42.5 35.5q-74 40 -74 136q0 80 57.5 134t161.5 54q39 0 81 -11h169v-100h-68q25 -23 25 -63q0 -82 -54.5 -130.5t-158.5 -48.5q-20 0 -39 4
q-24 -11 -24 -32q0 -17 16.5 -23t60.5 -8l77 -3q169 -6 169 -146zM351 327q0 41 -23.5 64.5t-66.5 23.5t-67.5 -24.5t-24.5 -62.5q0 -40 24 -63t68 -23q42 0 66 22.5t24 62.5zM393 -70q0 61 -78 64l-86 3h-23q-46 -33 -46 -76q0 -34 29 -54t77 -20q60 0 93.5 23t33.5 60z
" />
    <glyph glyph-name="h" unicode="h" horiz-adv-x="571" 
d="M501 0h-127v318q0 41 -14 61.5t-48 20.5q-48 0 -81.5 -47.5t-33.5 -113.5v-239h-128v730h128v-214q0 -62 -9 -101h2q49 92 163 92q148 0 148 -158v-349z" />
    <glyph glyph-name="i" unicode="i" horiz-adv-x="266" 
d="M213 648q0 -32 -23.5 -54.5t-56.5 -22.5t-56 22.5t-23 54.5t23 55t56 23t56.5 -22.5t23.5 -55.5zM197 0h-128v497h128v-497z" />
    <glyph glyph-name="j" unicode="j" horiz-adv-x="271" 
d="M217 648q0 -32 -23.5 -54.5t-56.5 -22.5t-56.5 22.5t-23.5 54.5t23.5 55t56.5 23t56.5 -22.5t23.5 -55.5zM201 -37q0 -105 -44 -158t-149 -53q-36 0 -71 10l9 109q31 -12 59 -12q39 0 54 20t15 71v547h127v-534z" />
    <glyph glyph-name="k" unicode="k" horiz-adv-x="523" 
d="M511 0h-160l-154 246v-246h-128v730h128v-440l145 207h156l-174 -227z" />
    <glyph glyph-name="l" unicode="l" horiz-adv-x="266" 
d="M197 0h-128v730h128v-730z" />
    <glyph glyph-name="m" unicode="m" horiz-adv-x="866" 
d="M797 0h-128v314q0 43 -13 64.5t-46 21.5q-44 0 -79 -46t-35 -116v-238h-126v315q0 41 -12.5 63t-46.5 22q-45 0 -79.5 -47t-34.5 -115v-238h-128v497h121q0 -47 -6 -89l1 -1q23 46 66 73t98 27q112 0 137 -99q20 41 62 70t100 29q149 0 149 -165v-342z" />
    <glyph glyph-name="n" unicode="n" horiz-adv-x="571" 
d="M501 0h-127v318q0 41 -14 61.5t-48 20.5q-48 0 -81.5 -47t-33.5 -113v-240h-128v497h121q0 -53 -7 -89h1q23 45 66.5 72t102.5 27q148 0 148 -158v-349z" />
    <glyph glyph-name="o" unicode="o" horiz-adv-x="553" 
d="M520 258q0 -117 -71.5 -192.5t-182.5 -75.5q-110 0 -171.5 61t-61.5 189q0 117 70.5 192t183.5 75q110 0 171.5 -62t61.5 -187zM388 251q0 148 -110 148q-47 0 -80 -37t-33 -109q0 -154 111 -154q49 0 80.5 39.5t31.5 112.5z" />
    <glyph glyph-name="p" unicode="p" horiz-adv-x="559" 
d="M523 275q0 -132 -67.5 -207t-194.5 -75q-36 0 -64 4v-238h-128v738h119q0 -51 -5 -83h2q45 93 156 93q88 0 135 -60.5t47 -171.5zM389 261q0 141 -85 141q-48 0 -77.5 -48t-29.5 -115v-138q30 -9 67 -9q125 0 125 169z" />
    <glyph glyph-name="q" unicode="q" horiz-adv-x="559" 
d="M489 -241h-127v225q0 59 7 96l-2 1q-20 -43 -59 -67.5t-88 -24.5q-90 0 -137 59.5t-47 173.5q0 129 71 206.5t200 77.5q92 0 182 -15v-732zM362 260v138q-37 7 -67 7q-125 0 -125 -169q0 -141 84 -141q49 0 78.5 48.5t29.5 116.5z" />
    <glyph glyph-name="r" unicode="r" horiz-adv-x="355" 
d="M341 507l-6 -125q-69 14 -103.5 -31t-34.5 -148v-203h-128v497h121q0 -47 -9 -100h2q46 120 158 110z" />
    <glyph glyph-name="s" unicode="s" horiz-adv-x="417" 
d="M378 155q0 -74 -60 -119.5t-159 -45.5q-65 0 -111 13l9 107q46 -20 106 -20q36 0 58 14.5t22 39.5q0 24 -21 38.5t-50.5 24t-59 22.5t-50.5 43t-21 77q0 70 54 114.5t157 44.5q43 0 90 -10l-6 -100q-44 13 -90 13q-73 0 -73 -51q0 -23 21 -37.5t51.5 -24.5t60.5 -24
t51 -44t21 -75z" />
    <glyph glyph-name="t" unicode="t" horiz-adv-x="375" 
d="M344 4q-56 -14 -108 -14q-82 0 -113 34t-31 122v252h-86v99h86v153l127 34v-187h121v-99h-121v-218q0 -47 13 -64.5t46 -17.5t57 7z" />
    <glyph glyph-name="u" unicode="u" horiz-adv-x="570" 
d="M501 0h-120q0 58 6 89h-1q-51 -99 -169 -99q-148 0 -148 158v349h127v-318q0 -41 14 -61.5t48 -20.5q48 0 81.5 47t33.5 113v240h128v-497z" />
    <glyph glyph-name="v" unicode="v" horiz-adv-x="506" 
d="M500 497l-172 -497h-152l-171 497h138l80 -240q22 -74 32 -124h2q13 61 30 123l78 241h135z" />
    <glyph glyph-name="w" unicode="w" horiz-adv-x="796" 
d="M786 497l-156 -497h-139l-72 220q-16 56 -28 112h-1q-12 -57 -34 -125l-63 -207h-132l-152 497h140l53 -188q33 -123 39 -150h1q10 58 36 144l60 194h123l61 -188q30 -100 40 -150h2q12 61 34 144l57 194h131z" />
    <glyph glyph-name="x" unicode="x" horiz-adv-x="528" 
d="M517 0h-161l-96 167l-96 -167h-153l171 251l-161 246h153l96 -164l97 164h142l-156 -245z" />
    <glyph glyph-name="y" unicode="y" horiz-adv-x="502" 
d="M499 497l-197 -525q-47 -125 -104 -173t-146 -48q-37 0 -70 7l15 110q32 -10 63 -10q79 0 113 98l16 44l-184 497h143l67 -190q22 -68 39 -137h1q16 67 48 158l59 169h137z" />
    <glyph glyph-name="z" unicode="z" horiz-adv-x="450" 
d="M403 0h-358v91l200 293q-38 -2 -106 -2h-88v115h348v-91l-196 -290q21 1 113 1h87v-117z" />
    <glyph glyph-name="braceleft" unicode="{" horiz-adv-x="362" 
d="M330 -205h-21q-97 0 -139.5 53t-42.5 170v135q0 60 -23.5 84.5t-76.5 27.5v96q54 3 77 25.5t23 82.5v87q0 112 42.5 166.5t139.5 54.5h21v-101q-49 0 -66.5 -23.5t-17.5 -94.5v-86q0 -142 -92 -158v-2q92 -13 92 -161v-134q0 -72 17.5 -95.5t66.5 -23.5v-103z" />
    <glyph glyph-name="bar" unicode="|" horiz-adv-x="288" 
d="M193 -241h-102v1000h102v-1000z" />
    <glyph glyph-name="braceright" unicode="}" horiz-adv-x="360" 
d="M338 265q-52 -3 -76 -27.5t-24 -84.5v-135q0 -117 -42.5 -170t-138.5 -53h-22v103q50 0 67.5 23.5t17.5 95.5v134q0 148 92 161v2q-92 13 -92 155v89q0 71 -17.5 94.5t-67.5 23.5v101h22q97 0 139 -54.5t42 -166.5v-84q0 -62 23 -85t77 -26v-96z" />
    <glyph glyph-name="asciitilde" unicode="~" 
d="M509 566q0 -72 -41 -116t-110 -44q-32 0 -56 10.5t-38.5 26t-26 31t-25 26t-28.5 10.5q-45 0 -47 -80h-95v18q0 72 41 116t110 44q32 0 56 -11t38.5 -26t26 -30.5t25 -26.5t28.5 -11q45 0 47 81h95v-18z" />
    <glyph glyph-name="uni00A0" unicode="&#xa0;" horiz-adv-x="120" 
 />
    <glyph glyph-name="exclamdown" unicode="&#xa1;" horiz-adv-x="321" 
d="M231 432q0 -32 -22.5 -54t-55.5 -22t-55.5 22t-22.5 54t22.5 54t55.5 22t55.5 -22t22.5 -54zM227 -211h-150l19 520h110z" />
    <glyph glyph-name="cent" unicode="&#xa2;" horiz-adv-x="454" 
d="M409 55q-44 -17 -90 -21v-102h-96v102q-89 11 -136 73.5t-47 161.5q0 96 49 162.5t134 82.5v93h96v-86q48 -3 89 -17l-12 -108q-42 21 -96 21q-59 0 -93.5 -37t-34.5 -104q0 -62 31 -98.5t95 -36.5q52 0 102 25z" />
    <glyph glyph-name="sterling" unicode="&#xa3;" horiz-adv-x="476" 
d="M451 0h-409v89q47 33 67.5 68t20.5 83q0 31 -4 61h-97v98h86q-11 68 -11 101q0 91 53 139t151 48q64 0 111 -15l-22 -105q-40 15 -82 15q-82 0 -82 -82q0 -21 10 -101h135v-98h-123q2 -20 2 -49q0 -89 -67 -147q36 6 107 6h154v-111z" />
    <glyph glyph-name="currency" unicode="&#xa4;" 
d="M515 118l-98 -71l-77 103q-35 -16 -74 -16q-31 0 -55 9l-69 -95l-99 70l68 85q-34 49 -34 123q0 73 39 123l-72 92l97 69l71 -97q32 13 72 13q36 0 64 -11l70 96l97 -71l-71 -89q29 -44 29 -115q0 -68 -37 -119zM361 334q0 99 -87 99q-36 0 -60.5 -27t-24.5 -75
q0 -47 21 -75.5t65 -28.5q36 0 61 27.5t25 79.5z" />
    <glyph glyph-name="yen" unicode="&#xa5;" horiz-adv-x="601" 
d="M581 675l-186 -366h124v-81h-155v-58h155v-83h-155v-87h-129v87h-155v83h155v58h-155v81h125l-183 366h142l89 -184q28 -57 47 -113h2q21 60 55 126l87 171h137z" />
    <glyph glyph-name="brokenbar" unicode="&#xa6;" horiz-adv-x="288" 
d="M193 391h-102v368h102v-368zM193 -241h-102v378h102v-378z" />
    <glyph glyph-name="section" unicode="&#xa7;" horiz-adv-x="530" 
d="M458 247q0 -86 -77 -145q37 -45 37 -104q0 -69 -55.5 -117t-169.5 -48q-46 0 -83 10l8 107q40 -12 77 -12q42 0 64 17t22 44q0 25 -23 51t-55.5 52t-64.5 56t-55 73.5t-23 93.5q0 90 76 145q-37 46 -37 104q0 72 51.5 118t158.5 46q49 0 82 -8l-7 -106q-34 10 -71 10
q-77 0 -77 -56q0 -23 23 -50t55.5 -54t65 -58.5t55.5 -75.5t23 -93zM342 230q0 19 -6 36t-21.5 35.5t-27.5 30.5t-38.5 36.5t-40.5 37.5q-32 -25 -32 -64q0 -40 29 -74.5t106 -100.5q31 24 31 63z" />
    <glyph glyph-name="dieresis" unicode="&#xa8;" horiz-adv-x="546" 
d="M434 648q0 -28 -20 -48.5t-49 -20.5t-49 20.5t-20 48.5q0 29 20 49t49 20t49 -20t20 -49zM232 648q0 -28 -20 -48.5t-49 -20.5t-49 20.5t-20 48.5q0 29 20 49t49 20t49 -20t20 -49z" />
    <glyph glyph-name="copyright" unicode="&#xa9;" horiz-adv-x="762" 
d="M722 334q0 -142 -100 -242t-242 -100q-144 0 -243 99.5t-99 241.5t100 242t242 100t242 -99.5t100 -241.5zM625 333q0 102 -71.5 174.5t-173.5 72.5t-174 -72t-72 -174t72 -174.5t174 -72.5t173.5 72t71.5 174zM480 177q-43 -20 -102 -20q-76 0 -118.5 46.5t-42.5 126.5
q0 79 44.5 130.5t131.5 51.5q45 0 82 -15l-14 -85q-26 17 -63 17q-75 0 -75 -97q0 -87 70 -87q41 0 70 14z" />
    <glyph glyph-name="ordfeminine" unicode="&#xaa;" horiz-adv-x="403" 
d="M341 325h-97q0 28 4 49l-1 1q-11 -25 -39.5 -42t-61.5 -17q-53 0 -79.5 26.5t-26.5 70.5q0 64 55 97t144 32v15q0 47 -58 47q-54 0 -110 -27l-9 86q61 22 135 22q77 0 110 -32.5t33 -83.5v-159q0 -61 1 -85zM361 176h-311v99h311v-99zM239 467v10q-103 0 -103 -50
q0 -14 10 -23t27 -9q30 0 48 24t18 48z" />
    <glyph glyph-name="guillemotleft" unicode="&#xab;" horiz-adv-x="534" 
d="M477 150l-100 -47l-118 189l120 192l96 -46l-92 -145zM252 144l-103 -46l-107 194l110 197l98 -45l-85 -151z" />
    <glyph glyph-name="logicalnot" unicode="&#xac;" 
d="M489 95h-113v149h-337v107h450v-256z" />
    <glyph glyph-name="uni00AD" unicode="&#xad;" horiz-adv-x="334" 
d="M290 226h-246v103h246v-103z" />
    <glyph glyph-name="registered" unicode="&#xae;" horiz-adv-x="564" 
d="M516 530q0 -96 -69 -163t-165 -67q-98 0 -166 66.5t-68 163.5q0 96 68.5 163.5t165.5 67.5q98 0 166 -66.5t68 -164.5zM438 530q0 65 -46 111.5t-110 46.5q-65 0 -111 -46t-46 -111t46 -111.5t111 -46.5t110.5 46t45.5 111zM377 420h-72l-38 85h-7v-85h-60v223h93
q79 0 79 -62q0 -50 -45 -63q9 -10 17 -27zM306 573q0 24 -30 24h-16v-51h11q35 0 35 27z" />
    <glyph glyph-name="glyph267" unicode="&#xaf;" horiz-adv-x="395" 
d="M332 600h-269v92h269v-92z" />
    <glyph glyph-name="degree" unicode="&#xb0;" horiz-adv-x="388" 
d="M340 604q0 -66 -45.5 -104t-108.5 -38q-67 0 -105.5 37.5t-38.5 101.5q0 63 46 102t105 39q74 0 110.5 -39t36.5 -99zM245 604q0 23 -13.5 40.5t-39.5 17.5q-24 0 -39.5 -16.5t-15.5 -43.5t15 -43t39 -16t39 17t15 44z" />
    <glyph glyph-name="plusminus" unicode="&#xb1;" 
d="M511 346h-175v-183h-122v183h-175v106h175v182h122v-182h175v-106zM507 0h-464v107h464v-107z" />
    <glyph glyph-name="twosuperior" unicode="&#xb2;" horiz-adv-x="372" 
d="M337 358h-302v86l72 73q30 31 46 48.5t30 41.5t14 43q0 53 -59 53q-42 0 -84 -20l-15 89q57 24 130 24t114 -30.5t41 -91.5q0 -49 -20 -86t-63 -84l-50 -51q39 2 146 2v-97z" />
    <glyph glyph-name="threesuperior" unicode="&#xb3;" horiz-adv-x="364" 
d="M323 493q0 -65 -52.5 -104t-141.5 -39q-50 0 -101 11l13 80q30 -10 80 -10q38 0 59.5 15t21.5 40q0 31 -37.5 45.5t-106.5 5.5v76q133 0 133 61q0 43 -60 43q-49 0 -86 -17l-11 77q54 19 125 19q150 0 150 -107q0 -69 -62 -97q76 -22 76 -99z" />
    <glyph glyph-name="acute" unicode="&#xb4;" horiz-adv-x="393" 
d="M333 668l-181 -108l-47 69l169 125z" />
    <glyph glyph-name="glyph270" unicode="&#xb5;" horiz-adv-x="582" 
d="M556 -4q-28 -5 -51 -5q-61 0 -86 25t-27 71h-1q-40 -94 -142 -94q-43 0 -64 23l15 -257h-131v738h128v-322q0 -78 61 -78q51 0 83.5 45t32.5 117v238h127v-318q0 -51 11 -66.5t44 -15.5v-101z" />
    <glyph glyph-name="paragraph" unicode="&#xb6;" horiz-adv-x="595" 
d="M544 573h-65v-669h-179v102h70v669h174v-102zM293 231q-118 -1 -178.5 62.5t-60.5 160.5q0 100 66.5 160.5t172.5 60.5v-444z" />
    <glyph glyph-name="glyph303" unicode="&#xb7;" horiz-adv-x="269" 
d="M218 298q0 -34 -24.5 -58.5t-58.5 -24.5q-35 0 -59 24.5t-24 58.5t24.5 58.5t58.5 24.5t58.5 -24.5t24.5 -58.5z" />
    <glyph glyph-name="cedilla" unicode="&#xb8;" horiz-adv-x="400" 
d="M256 -40q72 -99 -20 -194h-96q38 45 41 79.5t-31 81.5z" />
    <glyph glyph-name="onesuperior" unicode="&#xb9;" horiz-adv-x="296" 
d="M235 358h-123v324l-82 -30l-19 94l119 42h105v-430z" />
    <glyph glyph-name="ordmasculine" unicode="&#xba;" horiz-adv-x="426" 
d="M385 506q0 -85 -51.5 -137t-131.5 -52q-74 0 -119 44t-45 138q0 84 51.5 135.5t128.5 51.5t122 -43t45 -137zM371 176h-318v99h318v-99zM281 504q0 92 -69 92q-29 0 -49.5 -23t-20.5 -71q0 -96 67 -96q32 0 52 23.5t20 74.5z" />
    <glyph glyph-name="guillemotright" unicode="&#xbb;" horiz-adv-x="534" 
d="M492 295l-110 -197l-99 45l86 151l-87 149l103 46zM275 295l-121 -192l-96 46l93 145l-94 143l100 47z" />
    <glyph glyph-name="onequarter" unicode="&#xbc;" horiz-adv-x="850" 
d="M235 358h-123v324l-82 -30l-19 94l119 42h105v-430zM759 754l-651 -904l-79 54l652 905zM819 -22h-63v-90h-108v90h-196l-8 79l147 261h165v-250h63v-90zM647 67v181l-100 -182q27 1 100 1z" />
    <glyph glyph-name="onehalf" unicode="&#xbd;" horiz-adv-x="858" 
d="M759 754l-651 -904l-79 54l652 905zM235 358h-123v324l-82 -30l-19 94l119 42h105v-430zM816 -112h-301v86l72 73q29 30 45.5 48.5t30 42t13.5 42.5q0 53 -58 53q-42 0 -84 -20l-16 89q58 24 131 24q72 0 113 -30.5t41 -91.5q0 -49 -19.5 -86.5t-62.5 -83.5l-50 -51
q39 2 145 2v-97z" />
    <glyph glyph-name="threequarters" unicode="&#xbe;" horiz-adv-x="868" 
d="M778 754l-652 -904l-78 54l651 905zM323 493q0 -65 -52.5 -104t-141.5 -39q-50 0 -101 11l13 80q30 -10 80 -10q38 0 59.5 15t21.5 40q0 31 -37.5 45.5t-106.5 5.5v76q133 0 133 61q0 43 -60 43q-49 0 -86 -17l-11 77q54 19 125 19q150 0 150 -107q0 -69 -62 -97
q76 -22 76 -99zM837 -22h-62v-90h-108v90h-197l-7 79l147 261h165v-250h62v-90zM665 67v181l-99 -182q26 1 99 1z" />
    <glyph glyph-name="questiondown" unicode="&#xbf;" horiz-adv-x="451" 
d="M336 432q0 -32 -22.5 -54t-55.5 -22t-55.5 22t-22.5 54t22.5 54t55.5 22t55.5 -22t22.5 -54zM384 -104l-16 -116q-156 4 -238.5 62.5t-82.5 142.5q0 39 14.5 71t35 52t43.5 42t39.5 41t23 50t-5.5 68h125q16 -45 12 -81.5t-19 -60.5t-36.5 -46.5t-42 -39t-35 -38.5
t-14.5 -45q0 -45 52.5 -72t144.5 -30z" />
    <glyph glyph-name="AE" unicode="&#xc6;" horiz-adv-x="785" 
d="M729 0h-365v149h-197l-72 -149h-133l334 675h426v-109h-233v-166h225v-106h-225v-182h240v-112zM364 251v315h-2q-26 -65 -62 -141l-89 -174h153z" />
    <glyph glyph-name="Eth" unicode="&#xd0;" horiz-adv-x="676" 
d="M639 349q0 -168 -100 -260.5t-272 -92.5q-45 0 -188 5v295h-75v99h75v279q132 5 219 5q341 0 341 -330zM499 339q0 113 -50 172t-162 59q-47 0 -79 -3v-172h122v-99h-122v-184q30 -5 71 -5q101 0 160.5 58t59.5 174z" />
    <glyph glyph-name="multiply" unicode="&#xd7;" 
d="M503 147l-78 -78l-154 154l-154 -154l-70 70l154 154l-154 154l78 78l154 -154l154 154l70 -70l-154 -154z" />
    <glyph glyph-name="Thorn" unicode="&#xde;" horiz-adv-x="544" 
d="M528 365q0 -106 -76 -173.5t-202 -67.5q-34 0 -50 2v-126h-130v675h130v-94q44 2 73 2q121 0 188 -55.5t67 -162.5zM394 357q0 55 -34 87.5t-106 32.5q-16 0 -54 -4v-239q23 -4 58 -4q62 0 99 33t37 94z" />
    <glyph glyph-name="germandbls" unicode="&#xdf;" horiz-adv-x="607" 
d="M576 157q0 -76 -57 -122t-150 -46q-67 0 -106 14l7 105q45 -20 91 -20q42 0 62.5 16t20.5 40t-18.5 42t-44.5 32.5t-52 32t-44.5 49t-18.5 74.5q0 32 11.5 57.5t28 41.5t33.5 31t28.5 34t11.5 42q0 28 -20 43t-55 15q-107 0 -107 -138v-500h-128v494q0 125 66.5 184
t173.5 59q93 0 148 -40t55 -109q0 -35 -12 -61.5t-29 -42t-34 -28.5t-29 -29.5t-12 -37.5q0 -23 18.5 -41.5t45 -33.5t53 -33.5t45 -50t18.5 -73.5z" />
    <glyph glyph-name="ae" unicode="&#xe6;" horiz-adv-x="800" 
d="M762 285q0 -28 -4 -59h-308q-1 -68 33.5 -102t103.5 -34q75 0 144 31l14 -98q-81 -33 -180 -33q-78 0 -129 27t-71 74h-1q-55 -101 -183 -101q-67 0 -105 40t-38 102q0 86 76.5 130t210.5 44v25q0 40 -22.5 59.5t-74.5 19.5q-70 0 -140 -35l-23 101q84 32 185 32
q111 0 156 -62h1q52 62 146 62q104 0 156.5 -62t52.5 -161zM635 312q1 48 -22 75t-64 27q-40 0 -66 -27.5t-31 -74.5h183zM325 208v15q-165 0 -165 -77q0 -25 16 -41.5t43 -16.5q46 0 76 36.5t30 83.5z" />
    <glyph glyph-name="eth" unicode="&#xf0;" horiz-adv-x="555" 
d="M518 278q0 -140 -69.5 -214t-178.5 -74t-173 63t-64 187q0 118 68 191.5t173 73.5q56 0 79 -31q-5 10 -14.5 25t-10.5 16q-19 33 -53 69l-92 -41l-52 60l84 37q-29 25 -76 57l125 53q36 -27 69 -60l89 39l51 -60l-86 -37q131 -161 131 -354zM385 260q0 66 -27.5 102.5
t-81.5 36.5q-47 0 -78.5 -38t-31.5 -111t30 -112t83 -39q49 0 77.5 40t28.5 121z" />
    <glyph glyph-name="divide" unicode="&#xf7;" 
d="M352 498q0 -32 -23 -55t-55 -23t-55 23t-23 55t23 55t55 23t55 -23t23 -55zM511 244h-472v107h472v-107zM352 97q0 -32 -23 -55t-55 -23t-55 23t-23 55t23 55t55 23t55 -23t23 -55z" />
    <glyph glyph-name="logo" unicode="&#xfb;" horiz-adv-x="2985" 
d="M1098 43v47q-60 -2 -60 -31q0 -28 29 -28q19 0 31 12zM1300 7v277h51v-83q15 3 32 3q46 0 70 -22.5t24 -82.5q0 -48 -28 -75.5t-72 -27.5q-39 0 -77 11zM1351 156v-116q18 -2 27 -2q20 0 33.5 16.5t13.5 44.5q0 21 -3.5 34t-11.5 18.5t-14 7t-16 1.5q-11 0 -29 -4z
M2124 0h-60l-55 91h-16v-91h-51v283h51v-172l73 86h56l-71 -81zM376 0h-51v197h51v-197zM351 224q-11 0 -19.5 8t-8.5 20t8.5 20t19.5 8t19.5 -8t8.5 -20t-8.5 -20t-19.5 -8zM606 0h-51v100q0 29 -8 43t-32 14q-13 0 -37 -4v-153h-51v192q44 12 94 12q85 0 85 -85v-119z
M1894 0h-51v100q0 29 -8 43t-32 14q-13 0 -37 -4v-153h-51v192q44 12 95 12q84 0 84 -85v-119zM956 0h-51v100q0 30 -7.5 43.5t-31.5 13.5q-20 0 -39 -11q3 -11 3 -27v-119h-51v100q0 30 -7.5 43.5t-31.5 13.5q-13 0 -35 -4v-153h-51v192q44 12 92 12q37 0 56 -15
q32 15 70 15q84 0 84 -85v-119zM290 39l1 -39h-32q-56 0 -56 65v219h51v-216q0 -29 22 -29h14zM2106 599v-100q0 -80 -71 -80q-34 0 -58 29q-14 -26 -53 -26h-425q-10 -39 -39.5 -58.5t-66.5 -19.5l-12 42q25 0 46 17.5t21 53.5v142h56v-136h65v105l56 17v-25q87 25 136 25
q52 0 78 -31t32 -91h34q25 0 25 31v35q0 82 83 82q51 0 93 -12zM1625 463h189q-10 71 -62 71q-42 0 -127 -23v-48zM2051 491v67q-14 2 -29 2q-23 0 -30 -13.5t-7 -43.5v-4q8 -15 21.5 -27t23.5 -12q21 0 21 31zM1290 611q50 0 94 -12v-107q0 -70 -85 -70h-170
q-28 0 -47.5 18.5t-19.5 46.5v55l56 17v-65q0 -31 33 -31h81q-25 33 -25 66q0 82 83 82zM1328 494v64q-14 2 -28 2q-37 0 -37 -38q0 -19 13.5 -39t23.5 -20q28 0 28 31zM1305 641q-13 0 -21.5 8.5t-8.5 21.5t8.5 21.5t21.5 8.5t21.5 -8.5t8.5 -21.5t-8.5 -21.5t-21.5 -8.5z
M933 422h-56v279h56v-279zM766 494v207h55v-209q0 -30 -10.5 -46.5t-22 -20t-27.5 -3.5h-126l12 41h22v238h41v-238h32q24 0 24 31zM705 358h-40l4 13h6q-2 4 -2 8q0 9 9.5 14.5t23.5 2.5l-3 -13q-13 2 -13 -6q0 -6 9 -6h9zM574 641q-13 0 -21.5 8.5t-8.5 21.5t8.5 21.5
t21.5 8.5t21.5 -8.5t8.5 -21.5t-8.5 -21.5t-21.5 -8.5zM133 422h-129l13 41h20q-8 13 -8 29q0 31 31.5 47t78.5 8l-12 -44q-21 3 -32 -3.5t-11 -16.5q0 -20 29 -20h32zM526 422h-22q-25 0 -46 15q-18 -18 -51 -18q-34 0 -58 29q-14 -26 -53 -26h-55q-16 0 -28 3.5t-22.5 20
t-10.5 46.5v209h56v-207q0 -31 24 -31h17q25 0 25 31v35q2 82 83 82q51 0 93 -12v-92q0 -44 38 -44q30 0 30 31v105h56v-107q0 -42 -18.5 -56t-57.5 -14zM423 491v67q-14 2 -29 2q-23 0 -30 -13.5t-7 -43.5v-4q8 -15 21.5 -27t23.5 -12q21 0 21 31zM2985 0h-703v701h703
v-701zM2717 123v511l-172 -56v-511zM1149 0h-40l-2 9q-20 -13 -52 -13q-30 0 -47.5 17t-17.5 44q0 63 108 68v1q0 21 -8 28.5t-27 7.5q-16 0 -52 -9l-11 40q51 11 76 11q33 0 53 -14t20 -56v-134zM1667 0h-40l-2 9q-20 -13 -52 -13q-30 0 -47.5 17t-17.5 44q0 63 108 68v1
q0 21 -8 28.5t-27 7.5q-16 0 -52 -9l-11 40q51 11 76 11q33 0 53 -14t20 -56v-134zM1616 43v47q-60 -2 -60 -31q0 -28 29 -28q19 0 31 12zM159 0h-40l-2 9q-20 -13 -52 -13q-30 0 -47.5 17t-17.5 44q0 63 108 68v1q0 21 -8 28.5t-27 7.5q-16 0 -52 -9l-11 40q51 11 76 11
q33 0 53 -14t20 -56v-134zM108 43v47q-60 -2 -60 -31q0 -28 29 -28q19 0 31 12z" />
    <glyph glyph-name="thorn" unicode="&#xfe;" horiz-adv-x="559" 
d="M523 275q0 -132 -67.5 -207t-194.5 -75q-36 0 -64 4v-238h-128v971h128v-204q0 -64 -5 -102h2q42 83 147 83q88 0 135 -60.5t47 -171.5zM389 261q0 141 -85 141q-48 0 -77.5 -48t-29.5 -115v-138q30 -9 67 -9q125 0 125 169z" />
    <glyph glyph-name="OE" unicode="&#x152;" horiz-adv-x="860" 
d="M804 0h-355q-53 -11 -109 -11q-151 0 -229 90t-78 250q0 162 94 259.5t231 97.5q55 0 105 -11h341v-109h-236v-166h224v-106h-224v-182h236v-112zM438 123v433q-44 13 -86 13q-76 0 -128 -59t-52 -167q0 -111 44.5 -173.5t132.5 -62.5q44 0 89 16z" />
    <glyph glyph-name="oe" unicode="&#x153;" horiz-adv-x="860" 
d="M821 285q0 -28 -4 -59h-307q-1 -136 136 -136q76 0 144 31l14 -98q-81 -33 -180 -33q-126 0 -185 81q-61 -81 -174 -81q-110 0 -171 61t-61 189q0 118 70.5 192.5t183.5 74.5q112 0 166 -73q59 74 159 74q104 0 156.5 -62t52.5 -161zM694 312q1 48 -22 75t-64 27
q-40 0 -66 -27.5t-31 -74.5h183zM387 251q0 148 -109 148q-47 0 -80 -37t-33 -109q0 -154 111 -154q49 0 80 39.5t31 112.5z" />
    <glyph glyph-name="florin" unicode="&#x192;" horiz-adv-x="454" 
d="M253 324l-22 -219q-16 -148 -67.5 -209t-156.5 -61q-40 0 -74 9l19 111q37 -13 64 -13q41 0 59 28.5t26 106.5l24 247h-111v98h120l11 99q11 111 62.5 165t149.5 54q40 0 72 -7l-14 -105q-29 8 -62 8q-36 0 -55.5 -24.5t-25.5 -81.5l-10 -108h144v-98h-153z" />
    <glyph glyph-name="circumflex" unicode="&#x2c6;" horiz-adv-x="426" 
d="M365 619l-50 -59l-104 81l-103 -81l-49 58l153 136z" />
    <glyph glyph-name="macron" unicode="&#x2c9;" horiz-adv-x="395" 
d="M332 600h-269v92h269v-92z" />
    <glyph glyph-name="tilde" unicode="&#x2dc;" horiz-adv-x="463" 
d="M414 666q-45 -89 -121 -89q-37 0 -73 25.5t-51 25.5q-30 0 -55 -45l-61 47q45 89 122 89q37 0 72 -25.5t51 -25.5q30 0 55 45z" />
    <glyph glyph-name="semicolon" unicode="&#x37e;" horiz-adv-x="298" 
d="M242 354q0 -34 -23.5 -58t-57.5 -24t-58 24t-24 58q0 33 24 57t58 24t57.5 -24t23.5 -57zM160 149q49 0 72.5 -45t-4.5 -123t-115 -154l-53 47q49 53 57.5 90.5t-16.5 63.5q-29 33 -10 77t69 44z" />
    <glyph glyph-name="mu" unicode="&#x3bc;" horiz-adv-x="582" 
d="M556 -4q-28 -5 -51 -5q-61 0 -86 25t-27 71h-1q-40 -94 -142 -94q-43 0 -64 23l15 -257h-131v738h128v-322q0 -78 61 -78q51 0 83.5 45t32.5 117v238h127v-318q0 -51 11 -66.5t44 -15.5v-101z" />
    <glyph glyph-name="comma.arabic" unicode="&#x60c;" horiz-adv-x="258" 
d="M129 -11q-51 0 -72 50q-29 69 26 162q33 57 94 110l53 -47q-50 -53 -58.5 -90.5t17.5 -63.5q29 -33 10 -77t-70 -44z" />
    <glyph glyph-name="uni0615" unicode="&#x615;" horiz-adv-x="351" 
d="M8 739v56h46v185h69v-70q0 -28 -4 -43h1q29 48 92 48q59 0 78.5 -40.5t1.5 -135.5h-284zM123 795h100q16 64 -25 64q-24 0 -44 -17.5t-31 -46.5z" />
    <glyph glyph-name="semicolon.arabic" unicode="&#x61b;" horiz-adv-x="298" 
d="M56 71q0 33 24 57t58 24q33 0 57 -24t24 -57q0 -34 -24 -58t-57 -24q-34 0 -58 24t-24 58zM138 275q-49 0 -72 45.5t5 123.5t115 153l52 -47q-49 -53 -57.5 -90t16.5 -63q30 -34 11 -78t-70 -44z" />
    <glyph glyph-name="questionmark.arabic" unicode="&#x61f;" horiz-adv-x="459" 
d="M337 192h-128q7 23 7 40q0 33 -16.5 61.5t-39.5 52t-46 47.5t-39.5 58t-16.5 74q0 88 64.5 143t188.5 55q54 0 91 -9l-21 -110q-47 10 -79 10q-52 0 -78 -23t-26 -57q0 -30 23.5 -62.5t51 -58t51 -68t23.5 -91.5q0 -30 -10 -62zM269 -11q-33 0 -55.5 22t-22.5 54t22.5 54
t55.5 22q34 0 56.5 -22t22.5 -54t-22.5 -54t-56.5 -22z" />
    <glyph glyph-name="kashida" unicode="&#x640;" horiz-adv-x="108" 
d="M0 0v104h119v-104h-119z" />
    <glyph glyph-name="alefmaksura.medi" unicode="&#x649;" horiz-adv-x="355" 
d="M0 0v104h140v366h132v-366h98v-104h-370z" />
    <glyph glyph-name="madda" unicode="&#x653;" horiz-adv-x="0" 
d="M-105 0l-46 63l105 78q42 -39 94 -39q54 0 104 41v-96q-47 -38 -110 -38q-54 0 -89 32z" />
    <glyph glyph-name="hamza_above" unicode="&#x654;" horiz-adv-x="0" 
d="M-129 0v69q42 0 59 -4q-18 10 -18 39q0 47 33.5 76.5t107.5 29.5q41 0 59 -5l-12 -69q-25 5 -49 5q-49 0 -49 -34q0 -38 70 -38h57v-69h-258z" />
    <glyph glyph-name="hamza_below" unicode="&#x655;" horiz-adv-x="0" 
d="M-126 -205v73q32 0 49 -4q-13 11 -13 33q0 44 35 73.5t104 29.5q41 0 59 -5l-12 -72q-35 5 -48 5q-44 0 -44 -29q0 -31 63 -31h59v-73h-252z" />
    <glyph glyph-name="alef_subscript" unicode="&#x656;" horiz-adv-x="0" 
d="M-47 -192v192h95v-177z" />
    <glyph glyph-name="uni0658" unicode="&#x658;" horiz-adv-x="373" 
d="M239 914h83q0 -65 -34.5 -109t-103.5 -44q-68 0 -101.5 44t-33.5 109h82q0 -27 14 -44t40 -17q54 0 54 61z" />
    <glyph glyph-name="zero.indic" unicode="&#x660;" horiz-adv-x="589" 
d="M553 345q0 -171 -76.5 -262.5t-190.5 -91.5q-250 0 -250 339q0 171 76.5 262.5t190.5 91.5q250 0 250 -339zM417 336q0 125 -30 183t-91 58q-124 0 -124 -239q0 -125 30 -182.5t91 -57.5q124 0 124 238z" />
    <glyph glyph-name="one.indic" unicode="&#x661;" horiz-adv-x="359" 
d="M286 0h-132v542l-116 -46l-19 122l166 57h101v-675z" />
    <glyph glyph-name="two.indic" unicode="&#x662;" horiz-adv-x="498" 
d="M458 0h-408v108l101 114q83 90 114 148t31 104q0 42 -25 68t-72 26q-62 0 -125 -38l-19 116q80 39 179 39t151.5 -53t52.5 -136q0 -132 -159 -306l-60 -70v-1q70 4 239 4v-123z" />
    <glyph glyph-name="three.indic" unicode="&#x663;" horiz-adv-x="473" 
d="M429 210q0 -98 -76.5 -159t-197.5 -61q-67 0 -113 13l14 112q38 -14 102 -14q62 0 97.5 28t35.5 73q0 43 -35.5 69t-107.5 26q-38 0 -70 -5v103q193 -5 193 102q0 37 -24 58.5t-71 21.5q-53 0 -111 -28l-10 107q72 29 155 29q94 0 145 -45t51 -117q0 -54 -29 -94.5
t-79 -58.5l-1 -2q61 -15 96.5 -57.5t35.5 -100.5z" />
    <glyph glyph-name="four.indic" unicode="&#x664;" horiz-adv-x="554" 
d="M536 148h-101v-148h-126v148h-283l-9 102l246 425h172v-410h101v-117zM311 263v295h-1l-172 -297q44 2 173 2z" />
    <glyph glyph-name="five.indic" unicode="&#x665;" horiz-adv-x="461" 
d="M429 229q0 -107 -80 -172t-206 -65q-55 0 -100 10l13 114q36 -13 94 -13q67 0 105.5 31t38.5 82q0 102 -165 102q-39 0 -64 -4v361h333v-122l-213 1v-134q117 1 180.5 -49.5t63.5 -141.5z" />
    <glyph glyph-name="six.indic" unicode="&#x666;" horiz-adv-x="578" 
d="M541 231q0 -108 -70.5 -175t-183.5 -67q-118 0 -176.5 83t-58.5 211q0 194 97.5 297.5t250.5 103.5q54 0 79 -4v-115q-36 9 -81 9q-160 0 -202 -162q-6 -26 -8 -34l1 -1q55 55 145 55q96 0 151.5 -55t55.5 -146zM406 213q0 53 -27 83t-78 30q-49 0 -79 -30.5t-30 -74.5
q0 -57 28 -90t78 -33q49 0 78.5 32t29.5 83z" />
    <glyph glyph-name="seven.indic" unicode="&#x667;" horiz-adv-x="459" 
d="M435 565q-117 -259 -180 -565h-143q30 139 82 296t97 256q-76 -2 -269 -2v125h413v-110z" />
    <glyph glyph-name="eight.indic" unicode="&#x668;" horiz-adv-x="557" 
d="M514 183q0 -93 -71 -144t-176 -51t-165 48.5t-60 129.5q0 98 122 174q-111 63 -111 158q0 87 66 139t169 52q95 0 153.5 -47t58.5 -119q0 -52 -30.5 -91t-84.5 -76q129 -72 129 -173zM369 512q0 31 -23.5 52.5t-67.5 21.5q-45 0 -70 -20.5t-25 -54.5q0 -31 24 -54.5
t74 -49.5q46 29 67 53t21 52zM380 174q0 36 -28.5 61t-84.5 54q-45 -29 -68 -53.5t-23 -57.5q0 -39 27.5 -61.5t75.5 -22.5q44 0 72.5 21.5t28.5 58.5z" />
    <glyph glyph-name="nine.indic" unicode="&#x669;" horiz-adv-x="581" 
d="M530 393q0 -194 -90.5 -298.5t-263.5 -104.5q-51 0 -90 7v116q44 -13 100 -13q148 0 186 143q3 10 7.5 26.5t5.5 21.5l-1 1q-45 -56 -139 -56q-93 0 -148 56t-55 151q0 105 69.5 174t177.5 69q84 0 139.5 -42t78.5 -105.5t23 -145.5zM386 451q0 59 -28 92t-76 33
t-77.5 -32t-29.5 -84q0 -51 27 -81.5t77 -30.5q47 0 77 32t30 71z" />
    <glyph glyph-name="percentsign.arabic" unicode="&#x66a;" horiz-adv-x="655" 
d="M581 631l-416 -694l-92 45l416 694zM250 531q0 -34 -24.5 -58.5t-58.5 -24.5q-35 0 -59 24t-24 59q0 34 24.5 58.5t58.5 24.5t58.5 -24.5t24.5 -58.5zM404 83q0 34 24.5 58.5t58.5 24.5q35 0 59 -24t24 -59t-24 -59t-59 -24q-34 0 -58.5 24.5t-24.5 58.5z" />
    <glyph glyph-name="decimal.arabic" unicode="&#x66b;" horiz-adv-x="300" 
d="M128 149q51 0 72 -50q29 -69 -26 -162q-33 -57 -94 -110l-53 47q50 53 58.5 90.5t-17.5 63.5q-29 33 -10 77t70 44z" />
    <glyph glyph-name="thousands.arabic" unicode="&#x66c;" horiz-adv-x="300" 
d="M128 569q51 0 72 -50q29 -69 -26 -162q-33 -57 -94 -110l-53 47q50 53 58.5 90.5t-17.5 63.5q-29 33 -10 77t70 44z" />
    <glyph glyph-name="fivept_star.arabic" unicode="&#x66d;" horiz-adv-x="604" 
d="M214 11l-92 72l103 121l-155 34l38 110l143 -62l-11 158l119 1l-16 -158l144 62l41 -112l-155 -31l101 -122l-93 -71l-82 140z" />
    <glyph glyph-name="alef_superscript" unicode="&#x670;" horiz-adv-x="0" 
d="M48 14l-95 -14v236h95v-222z" />
    <glyph glyph-name="uni06C3" unicode="&#x6c3;" horiz-adv-x="594" 
d="M525 0h-219q-268 0 -268 231q0 108 68 180t193 72q114 0 170 -60.5t56 -169.5v-253zM396 104v133q0 142 -107 142q-55 0 -87 -37.5t-32 -97.5q0 -71 36.5 -105.5t113.5 -34.5h76zM373 546q-28 0 -47 19.5t-19 48.5q0 28 19 48t47 20t47 -19.5t19 -48.5q0 -28 -19 -48
t-47 -20zM207 546q-28 0 -47 19.5t-19 48.5q0 28 19 48t47 20t47.5 -19.5t19.5 -48.5q0 -28 -19.5 -48t-47.5 -20z" />
    <glyph glyph-name="arabicae" unicode="&#x6d5;" horiz-adv-x="594" 
d="M525 0h-219q-268 0 -268 231q0 108 68 180t193 72q114 0 170 -60.5t56 -169.5v-253zM396 104v133q0 142 -107 142q-55 0 -87 -37.5t-32 -97.5q0 -71 36.5 -105.5t113.5 -34.5h76z" />
    <glyph glyph-name="zero_ext.indic" unicode="&#x6f0;" horiz-adv-x="589" 
d="M553 345q0 -171 -76.5 -262.5t-190.5 -91.5q-250 0 -250 339q0 171 76.5 262.5t190.5 91.5q250 0 250 -339zM417 336q0 125 -30 183t-91 58q-124 0 -124 -239q0 -125 30 -182.5t91 -57.5q124 0 124 238z" />
    <glyph glyph-name="one_ext.indic" unicode="&#x6f1;" horiz-adv-x="359" 
d="M286 0h-132v542l-116 -46l-19 122l166 57h101v-675z" />
    <glyph glyph-name="two_ext.indic" unicode="&#x6f2;" horiz-adv-x="498" 
d="M458 0h-408v108l101 114q83 90 114 148t31 104q0 42 -25 68t-72 26q-62 0 -125 -38l-19 116q80 39 179 39t151.5 -53t52.5 -136q0 -132 -159 -306l-60 -70v-1q70 4 239 4v-123z" />
    <glyph glyph-name="three_ext.indic" unicode="&#x6f3;" horiz-adv-x="473" 
d="M429 210q0 -98 -76.5 -159t-197.5 -61q-67 0 -113 13l14 112q38 -14 102 -14q62 0 97.5 28t35.5 73q0 43 -35.5 69t-107.5 26q-38 0 -70 -5v103q193 -5 193 102q0 37 -24 58.5t-71 21.5q-53 0 -111 -28l-10 107q72 29 155 29q94 0 145 -45t51 -117q0 -54 -29 -94.5
t-79 -58.5l-1 -2q61 -15 96.5 -57.5t35.5 -100.5z" />
    <glyph glyph-name="four_ext.indic" unicode="&#x6f4;" horiz-adv-x="554" 
d="M536 148h-101v-148h-126v148h-283l-9 102l246 425h172v-410h101v-117zM311 263v295h-1l-172 -297q44 2 173 2z" />
    <glyph glyph-name="five_ext.indic" unicode="&#x6f5;" horiz-adv-x="461" 
d="M429 229q0 -107 -80 -172t-206 -65q-55 0 -100 10l13 114q36 -13 94 -13q67 0 105.5 31t38.5 82q0 102 -165 102q-39 0 -64 -4v361h333v-122l-213 1v-134q117 1 180.5 -49.5t63.5 -141.5z" />
    <glyph glyph-name="six_ext.indic" unicode="&#x6f6;" horiz-adv-x="578" 
d="M541 231q0 -108 -70.5 -175t-183.5 -67q-118 0 -176.5 83t-58.5 211q0 194 97.5 297.5t250.5 103.5q54 0 79 -4v-115q-36 9 -81 9q-160 0 -202 -162q-6 -26 -8 -34l1 -1q55 55 145 55q96 0 151.5 -55t55.5 -146zM406 213q0 53 -27 83t-78 30q-49 0 -79 -30.5t-30 -74.5
q0 -57 28 -90t78 -33q49 0 78.5 32t29.5 83z" />
    <glyph glyph-name="seven_ext.indic" unicode="&#x6f7;" horiz-adv-x="459" 
d="M435 565q-117 -259 -180 -565h-143q30 139 82 296t97 256q-76 -2 -269 -2v125h413v-110z" />
    <glyph glyph-name="eight_ext.indic" unicode="&#x6f8;" horiz-adv-x="557" 
d="M514 183q0 -93 -71 -144t-176 -51t-165 48.5t-60 129.5q0 98 122 174q-111 63 -111 158q0 87 66 139t169 52q95 0 153.5 -47t58.5 -119q0 -52 -30.5 -91t-84.5 -76q129 -72 129 -173zM369 512q0 31 -23.5 52.5t-67.5 21.5q-45 0 -70 -20.5t-25 -54.5q0 -31 24 -54.5
t74 -49.5q46 29 67 53t21 52zM380 174q0 36 -28.5 61t-84.5 54q-45 -29 -68 -53.5t-23 -57.5q0 -39 27.5 -61.5t75.5 -22.5q44 0 72.5 21.5t28.5 58.5z" />
    <glyph glyph-name="nine_ext.indic" unicode="&#x6f9;" horiz-adv-x="581" 
d="M530 393q0 -194 -90.5 -298.5t-263.5 -104.5q-51 0 -90 7v116q44 -13 100 -13q148 0 186 143q3 10 7.5 26.5t5.5 21.5l-1 1q-45 -56 -139 -56q-93 0 -148 56t-55 151q0 105 69.5 174t177.5 69q84 0 139.5 -42t78.5 -105.5t23 -145.5zM386 451q0 59 -28 92t-76 33
t-77.5 -32t-29.5 -84q0 -51 27 -81.5t77 -30.5q47 0 77 32t30 71z" />
    <glyph glyph-name="endash" unicode="&#x2013;" 
d="M550 242h-550v111h550v-111z" />
    <glyph glyph-name="emdash" unicode="&#x2014;" horiz-adv-x="1000" 
d="M889 242h-778v111h778v-111z" />
    <glyph glyph-name="quoteleft" unicode="&#x2018;" horiz-adv-x="267" 
d="M230 709q-90 -96 -41 -154q30 -33 11 -77t-70 -44q-49 0 -72 45t5 123t115 154z" />
    <glyph glyph-name="quoteright" unicode="&#x2019;" horiz-adv-x="267" 
d="M136 747q49 0 72 -45t-5 -123t-115 -154l-53 47q50 53 58.5 90.5t-17.5 63.5q-29 33 -10 77t70 44z" />
    <glyph glyph-name="quotesinglbase" unicode="&#x201a;" horiz-adv-x="267" 
d="M136 149q49 0 72 -45t-5 -123t-115 -154l-53 47q50 53 58.5 90.5t-17.5 63.5q-29 33 -10 77t70 44z" />
    <glyph glyph-name="quotedblleft" unicode="&#x201c;" horiz-adv-x="485" 
d="M449 709q-90 -96 -41 -154q29 -33 10 -77t-69 -44q-49 0 -72.5 45t4.5 123t115 154zM230 709q-90 -96 -41 -154q30 -33 11 -77t-70 -44q-49 0 -72 45t5 123t115 154z" />
    <glyph glyph-name="quotedblright" unicode="&#x201d;" horiz-adv-x="485" 
d="M354 747q49 0 72.5 -45t-4.5 -123t-115 -154l-53 47q90 96 41 154q-29 33 -10 77t69 44zM136 747q49 0 72 -45t-5 -123t-115 -154l-53 47q50 53 58.5 90.5t-17.5 63.5q-29 33 -10 77t70 44z" />
    <glyph glyph-name="quotedblbase" unicode="&#x201e;" horiz-adv-x="485" 
d="M354 149q49 0 72.5 -45t-4.5 -123t-115 -154l-53 47q49 53 57.5 90.5t-16.5 63.5q-29 33 -10 77t69 44zM136 149q49 0 72 -45t-5 -123t-115 -154l-53 47q50 53 58.5 90.5t-17.5 63.5q-29 33 -10 77t70 44z" />
    <glyph glyph-name="dagger" unicode="&#x2020;" horiz-adv-x="457" 
d="M416 533h-135l21 -88l-23 -255h-100l-24 255l21 88h-134v99h134l-21 136h147l-21 -136h135v-99z" />
    <glyph glyph-name="daggerdbl" unicode="&#x2021;" horiz-adv-x="457" 
d="M416 287h-134l21 -122h-149l21 122h-133v98h133l-20 81l20 82h-133v98h133l-20 122h147l-20 -122h134v-98h-134l20 -82l-20 -81h134v-98z" />
    <glyph glyph-name="bullet" unicode="&#x2022;" horiz-adv-x="423" 
d="M360 297q0 -61 -44 -104.5t-105 -43.5t-104.5 43.5t-43.5 104.5t43.5 104.5t104.5 43.5t105 -43.5t44 -104.5z" />
    <glyph glyph-name="ellipsis" unicode="&#x2026;" horiz-adv-x="723" 
d="M670 67q0 -32 -23 -55t-55 -23t-55 23t-23 55t23 55t55 23t55 -23t23 -55zM437 67q0 -32 -23 -55t-55 -23t-55 23t-23 55t23 55t55 23t55 -23t23 -55zM204 67q0 -32 -23.5 -55t-55.5 -23t-55 23t-23 55t23 55t55 23t55.5 -23t23.5 -55z" />
    <glyph glyph-name="perthousand" unicode="&#x2030;" horiz-adv-x="1052" 
d="M329 536q0 -75 -43.5 -119.5t-105.5 -44.5q-65 0 -102.5 39t-37.5 113q0 73 43.5 117.5t105.5 44.5q63 0 101.5 -37t38.5 -113zM237 530q0 41 -12.5 58.5t-38.5 17.5q-23 0 -38 -20.5t-15 -56.5q0 -77 51 -77q24 0 38.5 20.5t14.5 57.5zM655 635l-519 -655l-76 59
l519 655zM677 153q0 -75 -43.5 -119.5t-105.5 -44.5q-65 0 -102.5 39t-37.5 113q0 73 43 117.5t105 44.5q64 0 102.5 -37t38.5 -113zM584 147q0 76 -50 76q-24 0 -38.5 -20.5t-14.5 -56.5q0 -77 51 -77q23 0 37.5 20.5t14.5 57.5zM1005 153q0 -75 -43.5 -119.5t-105.5 -44.5
q-65 0 -102.5 39t-37.5 113q0 73 43 117.5t105 44.5q63 0 102 -37t39 -113zM912 147q0 76 -50 76q-24 0 -38.5 -20.5t-14.5 -56.5q0 -77 51 -77q23 0 37.5 20.5t14.5 57.5z" />
    <glyph glyph-name="guilsinglleft" unicode="&#x2039;" horiz-adv-x="312" 
d="M255 148l-101 -48l-113 192l115 195l97 -47l-89 -147z" />
    <glyph glyph-name="guilsinglright" unicode="&#x203a;" horiz-adv-x="312" 
d="M272 295l-116 -195l-97 47l90 147l-91 145l101 48z" />
    <glyph glyph-name="Euro" unicode="&#x20ac;" horiz-adv-x="592" 
d="M565 40q-82 -51 -189 -51q-251 0 -286 231h-78v77h72v19q0 21 2 57h-74v77h83q24 116 102 176t194 60q97 0 165 -36l-30 -103q-57 33 -136 33q-126 0 -153 -130h194v-77h-206q0 -5 -0.5 -17t-0.5 -18q0 -28 1 -41h206v-77h-196q24 -125 159 -125q71 0 137 42z" />
    <glyph glyph-name="trademark" unicode="&#x2122;" horiz-adv-x="689" 
d="M654 394h-95l-18 121l-5 47l-9 -43l-33 -125h-85l-33 128l-8 40l-2 -36l-19 -132h-86l45 281h109l34 -123l8 -41l7 39l34 125h110zM253 598h-65v-204h-91v204h-68v77h224v-77z" />
    <glyph glyph-name="minus" unicode="&#x2212;" 
d="M511 242h-472v111h472v-111z" />
    <glyph glyph-name="periodcentered" unicode="&#x2219;" horiz-adv-x="269" 
d="M218 298q0 -34 -24.5 -58.5t-58.5 -24.5q-35 0 -59 24.5t-24 58.5t24.5 58.5t58.5 24.5t58.5 -24.5t24.5 -58.5z" />
    <glyph glyph-name="notequal" unicode="&#x2260;" horiz-adv-x="564" 
d="M510 150h-229l-48 -121h-114l48 121h-114v103h154l35 88h-189v103h229l48 121h115l-48 -121h113v-103h-154l-35 -88h189v-103z" />
    <glyph glyph-name="parenthesis_left_ornate" unicode="&#xfd3e;" horiz-adv-x="362" 
d="M330 -205h-21q-97 0 -139.5 53t-42.5 170v135q0 60 -23.5 84.5t-76.5 27.5v96q54 3 77 25.5t23 82.5v87q0 112 42.5 166.5t139.5 54.5h21v-101q-49 0 -66.5 -23.5t-17.5 -94.5v-86q0 -142 -92 -158v-2q92 -13 92 -161v-134q0 -72 17.5 -95.5t66.5 -23.5v-103z" />
    <glyph glyph-name="parenthesis_right_ornate" unicode="&#xfd3f;" horiz-adv-x="360" 
d="M338 265q-52 -3 -76 -27.5t-24 -84.5v-135q0 -117 -42.5 -170t-138.5 -53h-22v103q50 0 67.5 23.5t17.5 95.5v134q0 148 92 161v2q-92 13 -92 155v89q0 71 -17.5 94.5t-67.5 23.5v101h22q97 0 139 -54.5t42 -166.5v-84q0 -62 23 -85t77 -26v-96z" />
    <glyph glyph-name="alefmaksura.init" horiz-adv-x="346" 
d="M0 0v104h140v366h132v-470h-272z" />
    <glyph glyph-name="glyph195" 
d="M300 150h-150v250h50v-200h100v-50zM500 50h-450v450h450v-450zM350 350h-100v50h150v-250h-50v100h-100v50h100v50zM100 100h350v350h-350v-350z" />
    <glyph glyph-name="CR" horiz-adv-x="500" 
 />
    <glyph glyph-name="hyphen" horiz-adv-x="334" 
d="M290 226h-246v103h246v-103z" />
    <glyph glyph-name="zero.basic" 
d="M514 330q0 -171 -69.5 -256t-175.5 -85q-57 0 -98.5 16.5t-73 55t-47 105t-15.5 162.5q0 165 66.5 249t178.5 84q116 0 175 -77t59 -254zM376 326q0 132 -23.5 179.5t-78.5 47.5q-48 0 -74.5 -50t-26.5 -171q0 -133 22.5 -183t79.5 -50q50 0 75.5 52.5t25.5 174.5z" />
    <glyph glyph-name="one.basic" 
d="M504 0h-438v115h163v403l-145 -57l-21 121l200 68h99v-535h142v-115z" />
    <glyph glyph-name="two.basic" 
d="M493 0h-442v104l98 96q110 105 144.5 154.5t34.5 92.5t-28.5 70t-80.5 27q-73 0 -138 -46l-25 114q84 49 191 49q109 0 165.5 -55.5t56.5 -136.5q0 -67 -34 -127t-128 -146l-78 -74v-1q92 2 184 2h80v-123z" />
    <glyph glyph-name="three.basic" 
d="M484 207q0 -102 -79 -160t-210 -58q-73 0 -130 16l13 110q56 -19 125 -19q71 0 107 26.5t36 70.5q0 43 -35.5 67.5t-106.5 24.5q-49 0 -102 -6v99h29q203 0 203 99q0 37 -28 57.5t-80 20.5q-75 0 -139 -33l-12 108q82 31 177 31q106 0 161 -43.5t55 -116.5
q0 -55 -29.5 -92.5t-83.5 -53.5l-1 -3q57 -7 93.5 -48t36.5 -97z" />
    <glyph glyph-name="four.basic" 
d="M529 141h-90v-141h-126v141h-283l-12 106l247 403h174v-394h90v-115zM315 256v266h-1l-167 -268q44 2 168 2z" />
    <glyph glyph-name="five.basic" 
d="M489 217q0 -104 -78.5 -166t-207.5 -62q-65 0 -124 14v115q62 -19 133 -19q65 0 100.5 28t35.5 77q0 47 -39.5 72.5t-108.5 25.5q-67 0 -113 -8v356h374v-120h-252v-128q12 1 39 1q114 0 177.5 -51.5t63.5 -134.5z" />
    <glyph glyph-name="six.basic" 
d="M515 223q0 -108 -64.5 -171t-172.5 -63q-112 0 -175 72t-63 212q0 190 91 288.5t249 98.5q48 0 76 -4v-111q-38 7 -82 7q-158 0 -197 -161q-5 -14 -9 -40h1q49 63 143 63q96 0 149.5 -54t53.5 -137zM386 203q0 50 -27 78t-78 28q-48 0 -77 -30t-29 -69q0 -52 28.5 -84.5
t81.5 -32.5q47 0 74 30.5t27 79.5z" />
    <glyph glyph-name="seven.basic" 
d="M499 540q-129 -247 -222 -540h-147q96 294 221 527q-58 -2 -215 -2h-86v125h449v-110z" />
    <glyph glyph-name="eight.basic" 
d="M509 179q0 -89 -69 -139.5t-172 -50.5q-105 0 -166.5 46t-61.5 124q0 53 32 92t88 74q-104 58 -104 153q0 82 63 132.5t163 50.5q98 0 155 -45t57 -117q0 -87 -106 -155q57 -31 89 -69t32 -96zM365 488q0 33 -24 53.5t-68 20.5q-42 0 -65 -21t-23 -52t22.5 -52.5
t73.5 -45.5q41 23 62.5 45.5t21.5 51.5zM377 167q0 37 -28 60.5t-84 48.5q-45 -26 -68.5 -50t-23.5 -57q0 -35 27.5 -56.5t78.5 -21.5q43 0 70.5 20.5t27.5 55.5z" />
    <glyph glyph-name="nine.basic" 
d="M508 377q0 -192 -90.5 -289.5t-249.5 -97.5q-50 0 -92 7v113q50 -12 100 -12q155 0 192 154q1 6 4 18.5t5 20.5h-1q-50 -57 -139 -57q-95 0 -149 55t-54 140q0 106 66 169t171 63q112 0 174.5 -71t62.5 -213zM370 440q0 53 -28 85t-80 32q-46 0 -73 -31t-27 -78
q0 -51 27 -79.5t76 -28.5t77 29t28 71z" />
    <glyph glyph-name="Euro.basic" 
d="M521 21q-75 -32 -168 -32q-111 0 -176.5 53t-84.5 168h-81v79h74q-1 9 -1 27q0 8 0.5 23.5t0.5 23.5h-74v79h87q23 101 91.5 160t186.5 59q74 0 139 -25l-30 -102q-55 26 -119 26q-105 0 -136 -118h165v-79h-180v-37v-37h180v-79h-168q13 -61 48.5 -89.5t97.5 -28.5
q57 0 119 26z" />
    <glyph glyph-name="dollar.basic" 
d="M473 209q0 -68 -44.5 -119t-120.5 -69v-106h-92v100q-64 1 -121 12l10 115q58 -21 126 -21q49 0 78 19t29 56q0 29 -27.5 48t-67 33t-78.5 32t-66.5 56t-27.5 94q0 65 43.5 113.5t114.5 62.5v95h91v-88q55 -2 104 -12l-11 -109q-55 17 -110 17q-51 0 -75.5 -19t-24.5 -48
q0 -27 28 -46t67.5 -33.5t79 -33t67.5 -56.5t28 -93z" />
    <glyph glyph-name="cent.basic" 
d="M474 128q-50 -24 -110 -30v-98h-96v98q-96 10 -145.5 69.5t-49.5 158.5q0 93 51 155.5t144 81.5v87h96v-83q53 -2 103 -21l-26 -103q-47 22 -102 22q-61 0 -96.5 -34.5t-35.5 -98.5q0 -60 34.5 -94t97.5 -34q58 0 104 26z" />
    <glyph glyph-name="sterling.basic" 
d="M490 0h-422v87q79 64 79 136q0 28 -4 51h-95v99h82q-8 58 -8 85q0 203 221 203q59 0 123 -16l-26 -107q-55 19 -104 19q-85 0 -85 -88q0 -24 9 -96h151v-99h-139q4 -21 4 -47q0 -68 -57 -119q42 2 73 2h198v-110z" />
    <glyph glyph-name="florin.basic" 
d="M518 692l-15 -109q-42 15 -84 15q-43 0 -63.5 -24t-26.5 -81l-11 -120h141v-99h-151l-20 -216q-20 -219 -227 -219q-45 0 -91 11l15 108q52 -14 86 -14q41 0 62.5 24.5t26.5 79.5l21 226h-114v99h123l11 111q11 113 67.5 166t159.5 53q39 0 90 -11z" />
    <glyph glyph-name="yen.basic" 
d="M531 650l-161 -330h124v-82h-155v-59h155v-81h-155v-98h-129v98h-155v81h155v59h-155v82h124l-159 330h141l75 -167q20 -49 39 -101h1q18 49 43 104l74 164h138z" />
    <glyph glyph-name="numbersign.basic" 
d="M523 396h-85l-13 -137h75v-88h-84l-19 -171h-93l18 171h-126l-18 -171h-93l18 171h-76v88h85l14 137h-76v87h85l18 167h93l-18 -167h127l17 167h93l-17 -167h75v-87zM345 396h-126l-13 -137h126z" />
    <glyph glyph-name="percent.basic" horiz-adv-x="760" 
d="M722 154q0 -73 -45 -119t-112 -46q-72 0 -110 41t-38 115q0 71 44.5 117t111.5 46q70 0 109.5 -39t39.5 -115zM669 613l-501 -635l-80 57l501 635zM343 508q0 -73 -44.5 -119.5t-112.5 -46.5q-72 0 -110 41.5t-38 115.5q0 71 45 116.5t112 45.5q70 0 109 -38.5t39 -114.5
zM625 148q0 79 -55 79q-25 0 -40.5 -20.5t-15.5 -56.5q0 -81 57 -81q23 0 38.5 21.5t15.5 57.5zM247 502q0 42 -13.5 60.5t-42.5 18.5q-24 0 -39.5 -21t-15.5 -57q0 -80 56 -80q24 0 39.5 21t15.5 58z" />
    <glyph glyph-name="perthousand.basic" horiz-adv-x="1052" 
d="M329 512q0 -75 -43.5 -120t-105.5 -45q-65 0 -102.5 39.5t-37.5 113.5q0 73 43.5 117t105.5 44q63 0 101.5 -36.5t38.5 -112.5zM237 505q0 41 -12.5 58.5t-38.5 17.5q-23 0 -38 -20.5t-15 -56.5q0 -77 51 -77q24 0 38.5 20.5t14.5 57.5zM655 610l-519 -630l-76 59
l519 630zM677 153q0 -75 -43.5 -119.5t-105.5 -44.5q-65 0 -102.5 39t-37.5 113q0 73 43 117.5t105 44.5q64 0 102.5 -37t38.5 -113zM584 147q0 76 -50 76q-24 0 -38.5 -20.5t-14.5 -56.5q0 -77 51 -77q23 0 37.5 20.5t14.5 57.5zM1005 153q0 -75 -43.5 -119.5t-105.5 -44.5
q-65 0 -102.5 39t-37.5 113q0 73 43 117.5t105 44.5q63 0 102 -37t39 -113zM912 147q0 76 -50 76q-24 0 -38.5 -20.5t-14.5 -56.5q0 -77 51 -77q23 0 37.5 20.5t14.5 57.5z" />
    <glyph glyph-name="zero.onum" horiz-adv-x="608" 
d="M567 266q0 -126 -79 -201.5t-194 -75.5q-113 0 -182.5 64.5t-69.5 200.5q0 125 79 201t190 76q68 0 119 -22t80 -60.5t43 -84t14 -98.5zM439 263q0 72 -34 116t-99 44q-58 0 -97.5 -43.5t-39.5 -116.5q0 -74 33.5 -119t100.5 -45q57 0 96.5 45t39.5 119z" />
    <glyph glyph-name="one.onum" horiz-adv-x="342" 
d="M268 0h-131v400l-102 -42l-20 106l154 58h99v-522z" />
    <glyph glyph-name="two.onum" horiz-adv-x="481" 
d="M438 0h-393v104l98 81q75 55 105 90.5t30 70.5t-23 56t-65 21q-63 0 -119 -36l-18 108q79 36 167 36q95 0 147 -44t52 -117q0 -108 -126 -200l-73 -58l-1 -3q54 4 219 4v-113z" />
    <glyph glyph-name="three.onum" horiz-adv-x="458" 
d="M417 47q0 -99 -76 -166t-208 -67q-57 0 -101 12l11 112q45 -15 94 -15q67 0 104.5 31t37.5 80q0 60 -57 84.5t-153 13.5v103q197 -1 197 109q0 37 -25.5 59t-70.5 22q-58 0 -113 -29l-12 106q72 29 151 29q99 0 152 -46.5t53 -116.5q0 -53 -30 -95t-80 -64v-1
q59 -12 92.5 -56.5t33.5 -104.5z" />
    <glyph glyph-name="four.onum" horiz-adv-x="554" 
d="M540 0h-106v-181h-126v181h-271l-21 104l256 416h162v-405h106v-115zM310 115v281h-1l-170 -283q43 2 171 2z" />
    <glyph glyph-name="five.onum" horiz-adv-x="463" 
d="M424 64q0 -108 -86 -179t-216 -71q-39 0 -83 7l13 114q42 -8 78 -8q76 0 117 33.5t41 85.5q0 113 -168 113q-28 0 -56 -3v364h338v-125l-217 1v-132q112 0 175.5 -54t63.5 -146z" />
    <glyph glyph-name="six.onum" horiz-adv-x="581" 
d="M543 231q0 -106 -71.5 -174t-184.5 -68q-109 0 -172 75t-63 213q0 200 100 312.5t268 112.5q25 0 57 -2v-113q-35 5 -66 5q-170 0 -216 -174q-1 -4 -3.5 -14.5t-4.5 -17.5l1 -1q47 60 146 60q97 0 153 -58t56 -156zM408 217q0 56 -28 87t-76 31q-51 0 -80 -32t-29 -77
q0 -56 27 -92t78 -36q50 0 79 33.5t29 85.5z" />
    <glyph glyph-name="seven.onum" horiz-adv-x="458" 
d="M435 412q-123 -293 -188 -593h-143q71 302 187 578q-74 -2 -269 -2v125h413v-108z" />
    <glyph glyph-name="eight.onum" horiz-adv-x="557" 
d="M513 187q0 -93 -70.5 -145.5t-175.5 -52.5q-104 0 -163.5 49.5t-59.5 130.5q0 61 33.5 102.5t88.5 77.5l-1 1q-113 66 -113 169q0 85 64.5 137t165.5 52t159.5 -46t58.5 -122q0 -52 -28.5 -92.5t-87.5 -79.5q59 -35 94 -77t35 -104zM368 528q0 32 -24 54t-67 22
q-42 0 -66.5 -22t-24.5 -57q0 -31 23.5 -55t72.5 -51l1 -1q45 30 65 54.5t20 55.5zM377 178q0 37 -27.5 64t-81.5 55h-1q-88 -55 -88 -114q0 -39 27 -63t72 -24q43 0 71 22.5t28 59.5z" />
    <glyph glyph-name="nine.onum" horiz-adv-x="581" 
d="M530 240q0 -198 -97 -312t-280 -114q-38 0 -66 6v116q33 -10 71 -10q92 0 144.5 39.5t74.5 121.5q6 21 8 44h-1q-46 -58 -142 -58q-94 0 -149 58t-55 154q0 108 69.5 177t180.5 69t176.5 -72.5t65.5 -218.5zM385 295q0 57 -27.5 92t-78.5 35q-48 0 -77.5 -34t-29.5 -85
q0 -57 27 -87.5t78 -30.5q49 0 78.5 32t29.5 78z" />
    <glyph glyph-name="wasla" horiz-adv-x="0" 
d="M-29 69h103v13q0 61 -35 61q-24 0 -42 -21t-26 -53zM-152 0v69h49q46 141 156 141q100 0 100 -126v-84h-305z" />
    <glyph glyph-name="hamza_medial" horiz-adv-x="0" 
d="M-128 0v75q37 0 56 -4q-19 9 -19 39q0 47 36 79.5t109 32.5q24 0 59 -5l-12 -75q-25 5 -50 5q-48 0 -48 -34q0 -38 69 -38h57v-75h-257z" />
    <glyph glyph-name="xx.TahAbove" horiz-adv-x="0" 
d="M68 115q0 48 -38 48q-32 0 -61.5 -32t-39.5 -75h67q72 0 72 59zM-70 286v-78q0 -21 -7 -58h1q19 31 50.5 50t67.5 19q100 0 100 -97q0 -56 -40.5 -89t-113.5 -33h-129v286h71z" />
    <glyph glyph-name="shadda_fathatan" horiz-adv-x="0" 
d="M-121 239l-8 49l210 32l8 -49zM-108 162l-9 49l211 33l7 -49zM16 36q-14 -36 -60 -36q-25 0 -37.5 15.5t-18.5 50.5l-7 37l51 9l6 -35q4 -22 20 -22q10 -1 14 7.5t2 22.5l-5 38l50 9l7 -37q4 -26 20 -26q22 1 19 37l-6 40l50 8l6 -37q8 -46 -10.5 -72.5t-58.5 -27.5
q-26 0 -42 19z" />
    <glyph glyph-name="hamza_above_damma" horiz-adv-x="0" 
d="M-97 0v51q31 0 58 -5q-27 12 -27 43q0 37 32.5 54.5t81.5 17.5q26 0 56 -7l-9 -49q-24 6 -47 6q-46 0 -46 -25q0 -35 63 -35h51v-51h-213zM-117 154l-10 48l92 19q-6 16 -6 33q1 38 27.5 63t65.5 25q38 0 57 -18.5t19 -50.5q-1 -70 -84 -86zM18 232l21 4q34 8 34 35
q0 22 -26 22q-14 0 -23.5 -10.5t-9.5 -26.5z" />
    <glyph glyph-name="hamza_above_sukun" horiz-adv-x="0" 
d="M7 192q-85 0 -85 78q0 37 26 60.5t65 23.5q41 0 63 -20t22 -58q0 -39 -26 -61.5t-65 -22.5zM9 238q31 0 31 36q0 34 -29 34q-14 0 -23 -9.5t-9 -24.5q0 -36 30 -36zM-106 0v52q7 0 57 -5q-10 4 -18 16.5t-8 26.5q0 36 33 54t81 18q29 0 56 -8l-9 -48q-33 5 -47 5
q-46 0 -46 -25q0 -34 63 -34h51v-52h-213z" />
    <glyph glyph-name="hamza_above_fathatan" horiz-adv-x="0" 
d="M-107 248l-9 49l210 33l9 -49zM-94 172l-9 48l211 33l7 -48zM-95 0v52q2 0 57 -5q-10 4 -18.5 16.5t-8.5 26.5q0 36 33 53.5t82 17.5q23 0 56 -7l-9 -48q-22 5 -48 5q-45 0 -45 -25q0 -34 63 -34h50v-52h-212z" />
    <glyph glyph-name="hamza_above_dammatan" horiz-adv-x="0" 
d="M-88 0v51q32 0 57 -5q-26 12 -26 43q0 37 32.5 54.5t81.5 17.5q23 0 56 -7l-9 -49q-26 6 -47 6q-46 0 -46 -25q0 -35 63 -35h51v-51h-213zM-108 153l-28 132l54 12l18 -83l36 7l-4 33q0 38 26.5 63t65.5 25q38 0 57 -18.5t19 -50.5q0 -68 -85 -86zM27 232l19 4
q35 8 35 35q0 22 -25 22q-15 0 -24.5 -10.5t-9.5 -26.5z" />
    <glyph glyph-name="hamza_above_fatha" horiz-adv-x="0" 
d="M-102 173l-8 49l210 32l8 -49zM-103 0v52q3 0 58 -5q-11 4 -19 16t-8 27q0 36 33 54t81 18q28 0 56 -8l-9 -48q-22 5 -47 5q-46 0 -46 -25q0 -34 63 -34h51v-52h-213z" />
    <glyph glyph-name="hamza_below_kasratan" horiz-adv-x="0" 
d="M-101 -277v44h202v-44h-202zM-101 -212v44h202v-44h-202zM-101 -147v46q15 0 55 -4q-10 3 -17.5 14.5t-7.5 25.5q0 33 31 49t77 16q30 0 53 -7l-8 -43q-33 5 -46 5q-44 0 -44 -23q0 -33 61 -33h48v-46h-202z" />
    <glyph glyph-name="hamza_below_kasra" horiz-adv-x="0" 
d="M-106 -233v49h213v-49h-213zM-106 -161v52q7 0 57 -5q-10 4 -18 16t-8 27q0 36 32.5 53.5t81.5 17.5q23 0 56 -7l-9 -48q-22 5 -47 5q-46 0 -46 -25q0 -34 63 -34h51v-52h-213z" />
    <glyph glyph-name="wasle" horiz-adv-x="102" 
d="M0 0v104h119v-104h-119z" />
    <glyph glyph-name="Kashida.Narrow" horiz-adv-x="189" 
d="M0 0v104h209v-104h-209z" />
    <glyph glyph-name="kashida.long" horiz-adv-x="197" 
d="M-1 0v104h199v-104h-199z" />
    <glyph glyph-name="tooth.init" horiz-adv-x="346" 
d="M0 0v104h140v366h132v-470h-272z" />
    <glyph glyph-name="tooth.init.long" horiz-adv-x="394" 
d="M0 0v104h188v366h132v-470h-320z" />
    </font>
</defs>
</svg>
